<?xml version="1.0" ?><!DOCTYPE svg  PUBLIC '-//W3C//DTD SVG 1.1//EN'  'http://www.w3.org/Graphics/SVG/1.1/DTD/svg11.dtd'><svg height="512px" style="enable-background:new 0 0 512 512;" version="1.1" viewBox="0 0 512 512" width="512px" xml:space="preserve" xmlns="http://www.w3.org/2000/svg" xmlns:xlink="http://www.w3.org/1999/xlink"><g id="_x38_9-dribbble"><g><g><path d="M479.689,254.381c0,123.878-100.148,224.298-223.688,224.298     c-123.541,0-223.689-100.42-223.689-224.298c0-123.87,100.148-224.291,223.689-224.291     C379.541,30.09,479.689,130.511,479.689,254.381L479.689,254.381z M479.689,254.381" style="fill:#F4427E;"/><path d="M256.002,16.75C124.441,16.75,17.397,124.083,17.397,256c0,131.915,107.044,239.25,238.605,239.25     c131.559,0,238.602-107.335,238.602-239.25C494.604,124.083,387.561,16.75,256.002,16.75L256.002,16.75z M464.684,257.791     c-50.518-13.364-102.328-14.92-151.688-4.721c-6.74-16.87-14.016-33.469-21.836-49.853     c44.648-20.939,85.928-49.317,122.135-84.397c31.945,36.756,51.482,84.666,51.482,137.18     C464.777,256.6,464.684,257.162,464.684,257.791L464.684,257.791z M392.211,97.708c-33.82,32.747-72.297,59.421-113.992,78.923     c-22.281-42.77-48.346-83.62-77.844-122.2c17.746-4.935,36.332-7.771,55.627-7.771C308.047,46.662,355.615,65.973,392.211,97.708     L392.211,97.708z M170.908,65.021c30.272,38.639,56.85,79.791,79.487,122.88c-62.635,23.984-130.636,33.2-198.727,25.214     C65.472,146.843,110.693,92.115,170.908,65.021L170.908,65.021z M47.224,256c0-4.486,0.389-8.884,0.684-13.28     c17.658,2.096,35.315,3.47,52.908,3.47c56.133,0,111.282-11.007,162.967-31.191c7.156,14.954,13.896,30.113,20.131,45.486     c-73.309,22.071-138.624,69.143-182.587,135.623C67.83,358.966,47.224,309.888,47.224,256L47.224,256z M123.128,417.34     c40.443-63.756,102.122-108.708,171.526-129.044c18.848,52.036,32.418,106.073,40.324,161.374     c-24.367,10.05-51.031,15.669-78.977,15.669C205.566,465.339,159.245,447.308,123.128,417.34L123.128,417.34z M362.951,435.434     c-8.199-52.694-21.207-104.279-39.01-154.075c45.066-8.492,92.221-6.491,138.15,6.521     C452.459,350.563,415.146,404.033,362.951,435.434L362.951,435.434z M362.951,435.434" style="fill:#DA1B66;"/></g></g></g><g id="Layer_1"/></svg>