<svg width="343" height="252" viewBox="0 0 343 252" fill="none" xmlns="http://www.w3.org/2000/svg">
<path d="M343 237.376H0V237.534H343V237.376Z" fill="#EBEBEB"/>
<path d="M308.63 249.004H285.91V249.161H308.63V249.004Z" fill="#EBEBEB"/>
<path d="M227.216 250.962H221.255V251.12H227.216V250.962Z" fill="#EBEBEB"/>
<path d="M285.223 242.3H272.059V242.458H285.223V242.3Z" fill="#EBEBEB"/>
<path d="M65.6166 243.514H35.9883V243.671H65.6166V243.514Z" fill="#EBEBEB"/>
<path d="M76.0689 243.514H71.7266V243.671H76.0689V243.514Z" fill="#EBEBEB"/>
<path d="M154.45 246.556H90.1855V246.714H154.45V246.556Z" fill="#EBEBEB"/>
<path d="M162.584 205.156H30.1246C29.0869 205.154 28.0923 204.719 27.3592 203.945C26.6261 203.172 26.2144 202.124 26.2144 201.031V4.94329C26.2234 3.85679 26.6391 2.8179 27.3713 2.05231C28.1034 1.28671 29.0928 0.856231 30.1246 0.85437H162.584C163.623 0.85437 164.619 1.28897 165.354 2.06257C166.089 2.83616 166.501 3.88538 166.501 4.97941V201.031C166.501 202.125 166.089 203.174 165.354 203.948C164.619 204.721 163.623 205.156 162.584 205.156ZM30.1246 0.998856C29.1324 1.00077 28.1814 1.41719 27.4805 2.1567C26.7795 2.89622 26.3859 3.89841 26.3859 4.94329V201.031C26.3859 202.076 26.7795 203.078 27.4805 203.818C28.1814 204.557 29.1324 204.974 30.1246 204.975H162.584C163.577 204.974 164.529 204.557 165.231 203.818C165.933 203.079 166.328 202.077 166.33 201.031V4.94329C166.328 3.89775 165.933 2.89558 165.231 2.15626C164.529 1.41695 163.577 1.00077 162.584 0.998856H30.1246Z" fill="#EBEBEB"/>
<path d="M310.969 205.156H178.502C177.464 205.154 176.468 204.719 175.734 203.946C175 203.173 174.587 202.124 174.585 201.031V4.94329C174.596 3.85613 175.013 2.81725 175.746 2.05186C176.479 1.28646 177.47 0.856211 178.502 0.85437H310.969C311.999 0.85813 312.987 1.28945 313.717 2.05484C314.448 2.82024 314.863 3.85803 314.872 4.94329V201.031C314.872 202.123 314.461 203.17 313.729 203.943C312.998 204.716 312.005 205.152 310.969 205.156ZM178.502 0.998856C177.509 1.00077 176.558 1.41695 175.856 2.15626C175.153 2.89558 174.758 3.89775 174.756 4.94329V201.031C174.758 202.077 175.153 203.079 175.856 203.818C176.558 204.557 177.509 204.974 178.502 204.975H310.969C311.961 204.974 312.913 204.557 313.615 203.818C314.317 203.079 314.712 202.077 314.714 201.031V4.94329C314.712 3.89775 314.317 2.89558 313.615 2.15626C312.913 1.41695 311.961 1.00077 310.969 0.998856H178.502Z" fill="#EBEBEB"/>
<path d="M39.8032 237.124V192.471H42.609V176.022H46.7044V118.82H52.6314V111.437L65.2813 105.224V97.783H67.0306V118.82H69.4864V176.022H71.9423V145.947H78.5965V130.444H80.4556V176.022H85.5114V158.676H88.8385V154.248H96.5491V139.113H100.775V128.414H105.961V112.824H107.813V128.414H113.006V139.113H117.225V154.248H124.936V158.676H128.27V176.022H132.214V154.248H139.925V107.377H142.381V102.211H158.852V107.377H162.35V141.331H176.372V144.654H181.627V147.233H176.372V160.518H191.094V116.234H194.242V106.828H201.075V73.4229H203.003V106.828H207.914V116.234H236.672V113.135H238.428V134.172H240.877V134.54H242.352V155.577H244.807V161.299H249.994V145.795H251.853V182.704H253.918V167.201H255.777V191.373H256.909V174.028H260.236V169.599H267.946V154.472H272.165V143.765H277.358V128.175H279.21V143.765H284.397V154.472H288.622V169.599H296.333V174.028H299.66V191.005H300.257V191.373H301.91V237.124H39.8032Z" fill="#E6E6E6"/>
<path d="M220.622 118.307H218.64V120.393H220.622V118.307Z" fill="#F0F0F0"/>
<path d="M220.622 121.811H218.64V123.898H220.622V121.811Z" fill="#F0F0F0"/>
<path d="M220.622 135.831H218.64V137.918H220.622V135.831Z" fill="#F0F0F0"/>
<path d="M220.622 139.336H218.64V141.423H220.622V139.336Z" fill="#F0F0F0"/>
<path d="M220.622 142.848H218.64V144.942H220.622V142.848Z" fill="#F0F0F0"/>
<path d="M220.622 153.365H218.64V155.452H220.622V153.365Z" fill="#F0F0F0"/>
<path d="M220.622 156.871H218.64V158.965H220.622V156.871Z" fill="#F0F0F0"/>
<path d="M217.471 132.33H215.488V134.424H217.471V132.33Z" fill="#F0F0F0"/>
<path d="M217.471 135.831H215.488V137.918H217.471V135.831Z" fill="#F0F0F0"/>
<path d="M217.471 139.336H215.488V141.423H217.471V139.336Z" fill="#F0F0F0"/>
<path d="M217.471 142.848H215.488V144.942H217.471V142.848Z" fill="#F0F0F0"/>
<path d="M217.471 146.349H215.488V148.436H217.471V146.349Z" fill="#F0F0F0"/>
<path d="M217.471 153.365H215.488V155.452H217.471V153.365Z" fill="#F0F0F0"/>
<path d="M217.471 156.871H215.488V158.965H217.471V156.871Z" fill="#F0F0F0"/>
<path d="M214.314 118.307H212.332V120.393H214.314V118.307Z" fill="#F0F0F0"/>
<path d="M214.314 121.811H212.332V123.898H214.314V121.811Z" fill="#F0F0F0"/>
<path d="M214.314 125.313H212.332V127.407H214.314V125.313Z" fill="#F0F0F0"/>
<path d="M214.314 128.824H212.332V130.918H214.314V128.824Z" fill="#F0F0F0"/>
<path d="M214.314 132.33H212.332V134.424H214.314V132.33Z" fill="#F0F0F0"/>
<path d="M214.314 135.831H212.332V137.918H214.314V135.831Z" fill="#F0F0F0"/>
<path d="M214.314 139.336H212.332V141.423H214.314V139.336Z" fill="#F0F0F0"/>
<path d="M214.314 142.848H212.332V144.942H214.314V142.848Z" fill="#F0F0F0"/>
<path d="M214.314 146.349H212.332V148.436H214.314V146.349Z" fill="#F0F0F0"/>
<path d="M214.314 149.854H212.332V151.948H214.314V149.854Z" fill="#F0F0F0"/>
<path d="M214.314 156.871H212.332V158.965H214.314V156.871Z" fill="#F0F0F0"/>
<path d="M211.158 118.307H209.175V120.393H211.158V118.307Z" fill="#F0F0F0"/>
<path d="M211.158 121.811H209.175V123.898H211.158V121.811Z" fill="#F0F0F0"/>
<path d="M211.158 125.313H209.175V127.407H211.158V125.313Z" fill="#F0F0F0"/>
<path d="M211.158 128.824H209.175V130.918H211.158V128.824Z" fill="#F0F0F0"/>
<path d="M211.158 132.33H209.175V134.424H211.158V132.33Z" fill="#F0F0F0"/>
<path d="M211.158 135.831H209.175V137.918H211.158V135.831Z" fill="#F0F0F0"/>
<path d="M211.158 139.336H209.175V141.423H211.158V139.336Z" fill="#F0F0F0"/>
<path d="M211.158 170.89H209.175V172.977H211.158V170.89Z" fill="#F0F0F0"/>
<path d="M208.002 118.307H206.019V120.393H208.002V118.307Z" fill="#F0F0F0"/>
<path d="M208.002 121.811H206.019V123.898H208.002V121.811Z" fill="#F0F0F0"/>
<path d="M208.002 125.313H206.019V127.407H208.002V125.313Z" fill="#F0F0F0"/>
<path d="M208.002 128.824H206.019V130.918H208.002V128.824Z" fill="#F0F0F0"/>
<path d="M208.002 132.33H206.019V134.424H208.002V132.33Z" fill="#F0F0F0"/>
<path d="M208.002 135.831H206.019V137.918H208.002V135.831Z" fill="#F0F0F0"/>
<path d="M208.002 139.336H206.019V141.423H208.002V139.336Z" fill="#F0F0F0"/>
<path d="M208.002 142.848H206.019V144.942H208.002V142.848Z" fill="#F0F0F0"/>
<path d="M208.002 163.883H206.019V165.97H208.002V163.883Z" fill="#F0F0F0"/>
<path d="M208.002 167.388H206.019V169.475H208.002V167.388Z" fill="#F0F0F0"/>
<path d="M208.002 170.89H206.019V172.977H208.002V170.89Z" fill="#F0F0F0"/>
<path d="M208.002 174.401H206.019V176.495H208.002V174.401Z" fill="#F0F0F0"/>
<path d="M208.002 188.424H206.019V190.511H208.002V188.424Z" fill="#F0F0F0"/>
<path d="M204.852 118.307H202.869V120.393H204.852V118.307Z" fill="#F0F0F0"/>
<path d="M204.852 121.811H202.869V123.898H204.852V121.811Z" fill="#F0F0F0"/>
<path d="M204.852 125.313H202.869V127.407H204.852V125.313Z" fill="#F0F0F0"/>
<path d="M204.852 128.824H202.869V130.918H204.852V128.824Z" fill="#F0F0F0"/>
<path d="M204.852 132.33H202.869V134.424H204.852V132.33Z" fill="#F0F0F0"/>
<path d="M204.852 135.831H202.869V137.918H204.852V135.831Z" fill="#F0F0F0"/>
<path d="M204.852 139.336H202.869V141.423H204.852V139.336Z" fill="#F0F0F0"/>
<path d="M204.852 142.848H202.869V144.942H204.852V142.848Z" fill="#F0F0F0"/>
<path d="M204.852 146.349H202.869V148.436H204.852V146.349Z" fill="#F0F0F0"/>
<path d="M204.852 149.854H202.869V151.948H204.852V149.854Z" fill="#F0F0F0"/>
<path d="M204.852 160.372H202.869V162.459H204.852V160.372Z" fill="#F0F0F0"/>
<path d="M204.852 163.883H202.869V165.97H204.852V163.883Z" fill="#F0F0F0"/>
<path d="M204.852 167.388H202.869V169.475H204.852V167.388Z" fill="#F0F0F0"/>
<path d="M204.852 170.89H202.869V172.977H204.852V170.89Z" fill="#F0F0F0"/>
<path d="M204.852 174.401H202.869V176.495H204.852V174.401Z" fill="#F0F0F0"/>
<path d="M204.852 188.424H202.869V190.511H204.852V188.424Z" fill="#F0F0F0"/>
<path d="M201.696 118.307H199.713V120.393H201.696V118.307Z" fill="#F0F0F0"/>
<path d="M201.696 121.811H199.713V123.898H201.696V121.811Z" fill="#F0F0F0"/>
<path d="M201.696 125.313H199.713V127.407H201.696V125.313Z" fill="#F0F0F0"/>
<path d="M201.696 128.824H199.713V130.918H201.696V128.824Z" fill="#F0F0F0"/>
<path d="M201.696 132.33H199.713V134.424H201.696V132.33Z" fill="#F0F0F0"/>
<path d="M201.696 135.831H199.713V137.918H201.696V135.831Z" fill="#F0F0F0"/>
<path d="M201.696 139.336H199.713V141.423H201.696V139.336Z" fill="#F0F0F0"/>
<path d="M201.696 142.848H199.713V144.942H201.696V142.848Z" fill="#F0F0F0"/>
<path d="M201.696 146.349H199.713V148.436H201.696V146.349Z" fill="#F0F0F0"/>
<path d="M201.696 149.854H199.713V151.948H201.696V149.854Z" fill="#F0F0F0"/>
<path d="M201.696 153.365H199.713V155.452H201.696V153.365Z" fill="#F0F0F0"/>
<path d="M201.696 156.871H199.713V158.965H201.696V156.871Z" fill="#F0F0F0"/>
<path d="M201.696 160.372H199.713V162.459H201.696V160.372Z" fill="#F0F0F0"/>
<path d="M201.696 163.883H199.713V165.97H201.696V163.883Z" fill="#F0F0F0"/>
<path d="M201.696 167.388H199.713V169.475H201.696V167.388Z" fill="#F0F0F0"/>
<path d="M201.696 170.89H199.713V172.977H201.696V170.89Z" fill="#F0F0F0"/>
<path d="M201.696 174.401H199.713V176.495H201.696V174.401Z" fill="#F0F0F0"/>
<path d="M201.696 177.906H199.713V179.993H201.696V177.906Z" fill="#F0F0F0"/>
<path d="M198.544 118.307H196.562V120.393H198.544V118.307Z" fill="#F0F0F0"/>
<path d="M198.544 121.811H196.562V123.898H198.544V121.811Z" fill="#F0F0F0"/>
<path d="M198.544 125.313H196.562V127.407H198.544V125.313Z" fill="#F0F0F0"/>
<path d="M198.544 128.824H196.562V130.918H198.544V128.824Z" fill="#F0F0F0"/>
<path d="M198.544 132.33H196.562V134.424H198.544V132.33Z" fill="#F0F0F0"/>
<path d="M198.544 135.831H196.562V137.918H198.544V135.831Z" fill="#F0F0F0"/>
<path d="M198.544 139.336H196.562V141.423H198.544V139.336Z" fill="#F0F0F0"/>
<path d="M198.544 142.848H196.562V144.942H198.544V142.848Z" fill="#F0F0F0"/>
<path d="M198.544 146.349H196.562V148.436H198.544V146.349Z" fill="#F0F0F0"/>
<path d="M198.544 149.854H196.562V151.948H198.544V149.854Z" fill="#F0F0F0"/>
<path d="M198.544 160.372H196.562V162.459H198.544V160.372Z" fill="#F0F0F0"/>
<path d="M198.544 163.883H196.562V165.97H198.544V163.883Z" fill="#F0F0F0"/>
<path d="M198.544 167.388H196.562V169.475H198.544V167.388Z" fill="#F0F0F0"/>
<path d="M198.544 170.89H196.562V172.977H198.544V170.89Z" fill="#F0F0F0"/>
<path d="M195.388 118.307H193.405V120.393H195.388V118.307Z" fill="#F0F0F0"/>
<path d="M195.388 121.811H193.405V123.898H195.388V121.811Z" fill="#F0F0F0"/>
<path d="M195.388 125.313H193.405V127.407H195.388V125.313Z" fill="#F0F0F0"/>
<path d="M195.388 128.824H193.405V130.918H195.388V128.824Z" fill="#F0F0F0"/>
<path d="M195.388 132.33H193.405V134.424H195.388V132.33Z" fill="#F0F0F0"/>
<path d="M195.388 135.831H193.405V137.918H195.388V135.831Z" fill="#F0F0F0"/>
<path d="M195.388 139.336H193.405V141.423H195.388V139.336Z" fill="#F0F0F0"/>
<path d="M195.388 142.848H193.405V144.942H195.388V142.848Z" fill="#F0F0F0"/>
<path d="M195.388 146.349H193.405V148.436H195.388V146.349Z" fill="#F0F0F0"/>
<path d="M195.388 149.854H193.405V151.948H195.388V149.854Z" fill="#F0F0F0"/>
<path d="M195.388 160.372H193.405V162.459H195.388V160.372Z" fill="#F0F0F0"/>
<path d="M195.388 163.883H193.405V165.97H195.388V163.883Z" fill="#F0F0F0"/>
<path d="M195.388 167.388H193.405V169.475H195.388V167.388Z" fill="#F0F0F0"/>
<path d="M159.88 109.204H157.897V111.291H159.88V109.204Z" fill="#F0F0F0"/>
<path d="M159.88 112.706H157.897V114.792H159.88V112.706Z" fill="#F0F0F0"/>
<path d="M159.88 116.211H157.897V118.297H159.88V116.211Z" fill="#F0F0F0"/>
<path d="M159.88 119.716H157.897V121.803H159.88V119.716Z" fill="#F0F0F0"/>
<path d="M159.88 123.227H157.897V125.314H159.88V123.227Z" fill="#F0F0F0"/>
<path d="M159.88 126.729H157.897V128.815H159.88V126.729Z" fill="#F0F0F0"/>
<path d="M159.88 130.234H157.897V132.32H159.88V130.234Z" fill="#F0F0F0"/>
<path d="M159.88 133.745H157.897V135.832H159.88V133.745Z" fill="#F0F0F0"/>
<path d="M159.88 144.263H157.897V146.35H159.88V144.263Z" fill="#F0F0F0"/>
<path d="M159.88 147.768H157.897V149.855H159.88V147.768Z" fill="#F0F0F0"/>
<path d="M156.731 109.204H154.741V111.291H156.731V109.204Z" fill="#F0F0F0"/>
<path d="M156.731 112.706H154.741V114.792H156.731V112.706Z" fill="#F0F0F0"/>
<path d="M156.731 116.211H154.741V118.297H156.731V116.211Z" fill="#F0F0F0"/>
<path d="M156.731 119.716H154.741V121.803H156.731V119.716Z" fill="#F0F0F0"/>
<path d="M156.731 123.227H154.741V125.314H156.731V123.227Z" fill="#F0F0F0"/>
<path d="M156.731 126.729H154.741V128.815H156.731V126.729Z" fill="#F0F0F0"/>
<path d="M156.731 130.234H154.741V132.32H156.731V130.234Z" fill="#F0F0F0"/>
<path d="M156.731 133.745H154.741V135.832H156.731V133.745Z" fill="#F0F0F0"/>
<path d="M156.731 147.768H154.741V149.855H156.731V147.768Z" fill="#F0F0F0"/>
<path d="M153.574 109.204H151.585V111.291H153.574V109.204Z" fill="#F0F0F0"/>
<path d="M153.574 112.706H151.585V114.792H153.574V112.706Z" fill="#F0F0F0"/>
<path d="M153.574 116.211H151.585V118.297H153.574V116.211Z" fill="#F0F0F0"/>
<path d="M153.574 119.716H151.585V121.803H153.574V119.716Z" fill="#F0F0F0"/>
<path d="M153.574 123.227H151.585V125.314H153.574V123.227Z" fill="#F0F0F0"/>
<path d="M153.574 126.729H151.585V128.815H153.574V126.729Z" fill="#F0F0F0"/>
<path d="M153.574 130.234H151.585V132.32H153.574V130.234Z" fill="#F0F0F0"/>
<path d="M153.574 133.745H151.585V135.832H153.574V133.745Z" fill="#F0F0F0"/>
<path d="M150.418 109.204H148.428V111.291H150.418V109.204Z" fill="#F0F0F0"/>
<path d="M150.418 112.706H148.428V114.792H150.418V112.706Z" fill="#F0F0F0"/>
<path d="M150.418 116.211H148.428V118.297H150.418V116.211Z" fill="#F0F0F0"/>
<path d="M150.418 119.716H148.428V121.803H150.418V119.716Z" fill="#F0F0F0"/>
<path d="M150.418 123.227H148.428V125.314H150.418V123.227Z" fill="#F0F0F0"/>
<path d="M150.418 126.729H148.428V128.815H150.418V126.729Z" fill="#F0F0F0"/>
<path d="M150.418 133.745H148.428V135.832H150.418V133.745Z" fill="#F0F0F0"/>
<path d="M150.418 137.246H148.428V139.34H150.418V137.246Z" fill="#F0F0F0"/>
<path d="M150.418 147.768H148.428V149.855H150.418V147.768Z" fill="#F0F0F0"/>
<path d="M150.418 151.269H148.428V153.356H150.418V151.269Z" fill="#F0F0F0"/>
<path d="M150.418 154.781H148.428V156.868H150.418V154.781Z" fill="#F0F0F0"/>
<path d="M150.418 158.286H148.428V160.373H150.418V158.286Z" fill="#F0F0F0"/>
<path d="M150.418 161.787H148.428V163.874H150.418V161.787Z" fill="#F0F0F0"/>
<path d="M150.418 165.292H148.428V167.379H150.418V165.292Z" fill="#F0F0F0"/>
<path d="M150.418 168.804H148.428V170.898H150.418V168.804Z" fill="#F0F0F0"/>
<path d="M147.261 109.204H145.279V111.291H147.261V109.204Z" fill="#F0F0F0"/>
<path d="M147.261 112.706H145.279V114.792H147.261V112.706Z" fill="#F0F0F0"/>
<path d="M147.261 116.211H145.279V118.297H147.261V116.211Z" fill="#F0F0F0"/>
<path d="M147.261 119.716H145.279V121.803H147.261V119.716Z" fill="#F0F0F0"/>
<path d="M147.261 123.227H145.279V125.314H147.261V123.227Z" fill="#F0F0F0"/>
<path d="M147.261 126.729H145.279V128.815H147.261V126.729Z" fill="#F0F0F0"/>
<path d="M147.261 137.246H145.279V139.34H147.261V137.246Z" fill="#F0F0F0"/>
<path d="M147.261 140.752H145.279V142.838H147.261V140.752Z" fill="#F0F0F0"/>
<path d="M147.261 144.263H145.279V146.35H147.261V144.263Z" fill="#F0F0F0"/>
<path d="M147.261 147.768H145.279V149.855H147.261V147.768Z" fill="#F0F0F0"/>
<path d="M147.261 151.269H145.279V153.356H147.261V151.269Z" fill="#F0F0F0"/>
<path d="M147.261 154.781H145.279V156.868H147.261V154.781Z" fill="#F0F0F0"/>
<path d="M147.261 158.286H145.279V160.373H147.261V158.286Z" fill="#F0F0F0"/>
<path d="M147.261 161.787H145.279V163.874H147.261V161.787Z" fill="#F0F0F0"/>
<path d="M147.261 165.292H145.279V167.379H147.261V165.292Z" fill="#F0F0F0"/>
<path d="M147.261 168.804H145.279V170.898H147.261V168.804Z" fill="#F0F0F0"/>
<path d="M147.261 172.305H145.279V174.392H147.261V172.305Z" fill="#F0F0F0"/>
<path d="M147.261 179.322H145.279V181.409H147.261V179.322Z" fill="#F0F0F0"/>
<path d="M144.117 109.204H142.127V111.291H144.117V109.204Z" fill="#F0F0F0"/>
<path d="M144.117 112.706H142.127V114.792H144.117V112.706Z" fill="#F0F0F0"/>
<path d="M144.117 116.211H142.127V118.297H144.117V116.211Z" fill="#F0F0F0"/>
<path d="M144.117 119.716H142.127V121.803H144.117V119.716Z" fill="#F0F0F0"/>
<path d="M144.117 123.227H142.127V125.314H144.117V123.227Z" fill="#F0F0F0"/>
<path d="M144.117 126.729H142.127V128.815H144.117V126.729Z" fill="#F0F0F0"/>
<path d="M144.117 137.246H142.127V139.34H144.117V137.246Z" fill="#F0F0F0"/>
<path d="M144.117 140.752H142.127V142.838H144.117V140.752Z" fill="#F0F0F0"/>
<path d="M144.117 144.263H142.127V146.35H144.117V144.263Z" fill="#F0F0F0"/>
<path d="M144.117 147.768H142.127V149.855H144.117V147.768Z" fill="#F0F0F0"/>
<path d="M144.117 158.286H142.127V160.373H144.117V158.286Z" fill="#F0F0F0"/>
<path d="M144.117 161.787H142.127V163.874H144.117V161.787Z" fill="#F0F0F0"/>
<path d="M144.117 165.292H142.127V167.379H144.117V165.292Z" fill="#F0F0F0"/>
<path d="M144.117 168.804H142.127V170.898H144.117V168.804Z" fill="#F0F0F0"/>
<path d="M144.117 172.305H142.127V174.392H144.117V172.305Z" fill="#F0F0F0"/>
<path d="M144.117 179.322H142.127V181.409H144.117V179.322Z" fill="#F0F0F0"/>
<path d="M144.117 182.827H142.127V184.914H144.117V182.827Z" fill="#F0F0F0"/>
<path d="M115.49 141.8H113.507V143.886H115.49V141.8Z" fill="#F0F0F0"/>
<path d="M115.49 145.305H113.507V147.392H115.49V145.305Z" fill="#F0F0F0"/>
<path d="M115.49 148.816H113.507V150.903H115.49V148.816Z" fill="#F0F0F0"/>
<path d="M115.49 152.317H113.507V154.404H115.49V152.317Z" fill="#F0F0F0"/>
<path d="M115.49 155.823H113.507V157.909H115.49V155.823Z" fill="#F0F0F0"/>
<path d="M115.49 159.334H113.507V161.421H115.49V159.334Z" fill="#F0F0F0"/>
<path d="M115.49 162.835H113.507V164.922H115.49V162.835Z" fill="#F0F0F0"/>
<path d="M115.49 173.354H113.507V175.44H115.49V173.354Z" fill="#F0F0F0"/>
<path d="M115.49 176.858H113.507V178.945H115.49V176.858Z" fill="#F0F0F0"/>
<path d="M115.49 180.364H113.507V182.45H115.49V180.364Z" fill="#F0F0F0"/>
<path d="M112.333 141.8H110.351V143.886H112.333V141.8Z" fill="#F0F0F0"/>
<path d="M112.333 145.305H110.351V147.392H112.333V145.305Z" fill="#F0F0F0"/>
<path d="M112.333 148.816H110.351V150.903H112.333V148.816Z" fill="#F0F0F0"/>
<path d="M112.333 152.317H110.351V154.404H112.333V152.317Z" fill="#F0F0F0"/>
<path d="M112.333 155.823H110.351V157.909H112.333V155.823Z" fill="#F0F0F0"/>
<path d="M112.333 159.334H110.351V161.421H112.333V159.334Z" fill="#F0F0F0"/>
<path d="M112.333 162.835H110.351V164.922H112.333V162.835Z" fill="#F0F0F0"/>
<path d="M109.177 141.8H107.195V143.886H109.177V141.8Z" fill="#F0F0F0"/>
<path d="M109.177 145.305H107.195V147.392H109.177V145.305Z" fill="#F0F0F0"/>
<path d="M109.177 148.816H107.195V150.903H109.177V148.816Z" fill="#F0F0F0"/>
<path d="M109.177 152.317H107.195V154.404H109.177V152.317Z" fill="#F0F0F0"/>
<path d="M109.177 155.823H107.195V157.909H109.177V155.823Z" fill="#F0F0F0"/>
<path d="M109.177 159.334H107.195V161.421H109.177V159.334Z" fill="#F0F0F0"/>
<path d="M109.177 162.835H107.195V164.922H109.177V162.835Z" fill="#F0F0F0"/>
<path d="M106.027 141.8H104.044V143.886H106.027V141.8Z" fill="#F0F0F0"/>
<path d="M106.027 145.305H104.044V147.392H106.027V145.305Z" fill="#F0F0F0"/>
<path d="M106.027 148.816H104.044V150.903H106.027V148.816Z" fill="#F0F0F0"/>
<path d="M106.027 152.317H104.044V154.404H106.027V152.317Z" fill="#F0F0F0"/>
<path d="M106.027 155.823H104.044V157.909H106.027V155.823Z" fill="#F0F0F0"/>
<path d="M106.027 159.334H104.044V161.421H106.027V159.334Z" fill="#F0F0F0"/>
<path d="M106.027 162.835H104.044V164.922H106.027V162.835Z" fill="#F0F0F0"/>
<path d="M106.027 166.34H104.044V168.427H106.027V166.34Z" fill="#F0F0F0"/>
<path d="M106.027 169.852H104.044V171.939H106.027V169.852Z" fill="#F0F0F0"/>
<path d="M106.027 173.354H104.044V175.44H106.027V173.354Z" fill="#F0F0F0"/>
<path d="M106.027 176.858H104.044V178.945H106.027V176.858Z" fill="#F0F0F0"/>
<path d="M102.871 141.8H100.888V143.886H102.871V141.8Z" fill="#F0F0F0"/>
<path d="M102.871 145.305H100.888V147.392H102.871V145.305Z" fill="#F0F0F0"/>
<path d="M102.871 148.816H100.888V150.903H102.871V148.816Z" fill="#F0F0F0"/>
<path d="M102.871 152.317H100.888V154.404H102.871V152.317Z" fill="#F0F0F0"/>
<path d="M102.871 155.823H100.888V157.909H102.871V155.823Z" fill="#F0F0F0"/>
<path d="M102.871 159.334H100.888V161.421H102.871V159.334Z" fill="#F0F0F0"/>
<path d="M102.871 162.835H100.888V164.922H102.871V162.835Z" fill="#F0F0F0"/>
<path d="M102.871 166.34H100.888V168.427H102.871V166.34Z" fill="#F0F0F0"/>
<path d="M102.871 169.852H100.888V171.939H102.871V169.852Z" fill="#F0F0F0"/>
<path d="M102.871 173.354H100.888V175.44H102.871V173.354Z" fill="#F0F0F0"/>
<path d="M102.871 176.858H100.888V178.945H102.871V176.858Z" fill="#F0F0F0"/>
<path d="M102.871 180.364H100.888V182.45H102.871V180.364Z" fill="#F0F0F0"/>
<path d="M102.871 190.881H100.888V192.968H102.871V190.881Z" fill="#F0F0F0"/>
<path d="M102.871 194.393H100.888V196.487H102.871V194.393Z" fill="#F0F0F0"/>
<path d="M99.7189 141.8H97.7363V143.886H99.7189V141.8Z" fill="#F0F0F0"/>
<path d="M99.7189 145.305H97.7363V147.392H99.7189V145.305Z" fill="#F0F0F0"/>
<path d="M99.7189 148.816H97.7363V150.903H99.7189V148.816Z" fill="#F0F0F0"/>
<path d="M99.7189 159.334H97.7363V161.421H99.7189V159.334Z" fill="#F0F0F0"/>
<path d="M99.7189 162.835H97.7363V164.922H99.7189V162.835Z" fill="#F0F0F0"/>
<path d="M99.7189 166.34H97.7363V168.427H99.7189V166.34Z" fill="#F0F0F0"/>
<path d="M99.7189 169.852H97.7363V171.939H99.7189V169.852Z" fill="#F0F0F0"/>
<path d="M99.7189 173.354H97.7363V175.44H99.7189V173.354Z" fill="#F0F0F0"/>
<path d="M99.7189 176.858H97.7363V178.945H99.7189V176.858Z" fill="#F0F0F0"/>
<path d="M99.7189 180.364H97.7363V182.45H99.7189V180.364Z" fill="#F0F0F0"/>
<path d="M99.7189 190.881H97.7363V192.968H99.7189V190.881Z" fill="#F0F0F0"/>
<path d="M99.7189 194.393H97.7363V196.487H99.7189V194.393Z" fill="#F0F0F0"/>
<path d="M99.7189 197.894H97.7363V199.988H99.7189V197.894Z" fill="#F0F0F0"/>
<path d="M66.6578 120.764H64.6753V122.85H66.6578V120.764Z" fill="#F0F0F0"/>
<path d="M66.6578 124.272H64.6753V126.358H66.6578V124.272Z" fill="#F0F0F0"/>
<path d="M66.6578 127.777H64.6753V129.863H66.6578V127.777Z" fill="#F0F0F0"/>
<path d="M66.6578 131.282H64.6753V133.369H66.6578V131.282Z" fill="#F0F0F0"/>
<path d="M66.6578 134.783H64.6753V136.87H66.6578V134.783Z" fill="#F0F0F0"/>
<path d="M66.6578 138.294H64.6753V140.381H66.6578V138.294Z" fill="#F0F0F0"/>
<path d="M66.6578 141.8H64.6753V143.886H66.6578V141.8Z" fill="#F0F0F0"/>
<path d="M66.6578 145.305H64.6753V147.392H66.6578V145.305Z" fill="#F0F0F0"/>
<path d="M66.6578 148.816H64.6753V150.903H66.6578V148.816Z" fill="#F0F0F0"/>
<path d="M66.6578 152.317H64.6753V154.404H66.6578V152.317Z" fill="#F0F0F0"/>
<path d="M66.6578 155.823H64.6753V157.909H66.6578V155.823Z" fill="#F0F0F0"/>
<path d="M66.6578 159.334H64.6753V161.421H66.6578V159.334Z" fill="#F0F0F0"/>
<path d="M66.6578 162.835H64.6753V164.922H66.6578V162.835Z" fill="#F0F0F0"/>
<path d="M66.6578 166.34H64.6753V168.427H66.6578V166.34Z" fill="#F0F0F0"/>
<path d="M66.6578 169.852H64.6753V171.939H66.6578V169.852Z" fill="#F0F0F0"/>
<path d="M66.6578 173.354H64.6753V175.44H66.6578V173.354Z" fill="#F0F0F0"/>
<path d="M66.6578 176.858H64.6753V178.945H66.6578V176.858Z" fill="#F0F0F0"/>
<path d="M66.6578 180.364H64.6753V182.45H66.6578V180.364Z" fill="#F0F0F0"/>
<path d="M66.6578 183.871H64.6753V185.958H66.6578V183.871Z" fill="#F0F0F0"/>
<path d="M66.6578 187.376H64.6753V189.463H66.6578V187.376Z" fill="#F0F0F0"/>
<path d="M66.6578 190.881H64.6753V192.968H66.6578V190.881Z" fill="#F0F0F0"/>
<path d="M66.6578 194.393H64.6753V196.487H66.6578V194.393Z" fill="#F0F0F0"/>
<path d="M66.6578 197.894H64.6753V199.988H66.6578V197.894Z" fill="#F0F0F0"/>
<path d="M63.5016 120.764H61.519V122.85H63.5016V120.764Z" fill="#F0F0F0"/>
<path d="M63.5016 124.272H61.519V126.358H63.5016V124.272Z" fill="#F0F0F0"/>
<path d="M63.5016 127.777H61.519V129.863H63.5016V127.777Z" fill="#F0F0F0"/>
<path d="M63.5016 131.282H61.519V133.369H63.5016V131.282Z" fill="#F0F0F0"/>
<path d="M63.5016 134.783H61.519V136.87H63.5016V134.783Z" fill="#F0F0F0"/>
<path d="M63.5016 138.294H61.519V140.381H63.5016V138.294Z" fill="#F0F0F0"/>
<path d="M63.5016 141.8H61.519V143.886H63.5016V141.8Z" fill="#F0F0F0"/>
<path d="M63.5016 145.305H61.519V147.392H63.5016V145.305Z" fill="#F0F0F0"/>
<path d="M63.5016 148.816H61.519V150.903H63.5016V148.816Z" fill="#F0F0F0"/>
<path d="M63.5016 152.317H61.519V154.404H63.5016V152.317Z" fill="#F0F0F0"/>
<path d="M63.5016 155.823H61.519V157.909H63.5016V155.823Z" fill="#F0F0F0"/>
<path d="M63.5016 159.334H61.519V161.421H63.5016V159.334Z" fill="#F0F0F0"/>
<path d="M63.5016 162.835H61.519V164.922H63.5016V162.835Z" fill="#F0F0F0"/>
<path d="M63.5016 166.34H61.519V168.427H63.5016V166.34Z" fill="#F0F0F0"/>
<path d="M63.5016 169.852H61.519V171.939H63.5016V169.852Z" fill="#F0F0F0"/>
<path d="M63.5016 173.354H61.519V175.44H63.5016V173.354Z" fill="#F0F0F0"/>
<path d="M63.5016 176.858H61.519V178.945H63.5016V176.858Z" fill="#F0F0F0"/>
<path d="M63.5016 180.364H61.519V182.45H63.5016V180.364Z" fill="#F0F0F0"/>
<path d="M63.5016 183.871H61.519V185.958H63.5016V183.871Z" fill="#F0F0F0"/>
<path d="M60.3566 120.764H58.374V122.85H60.3566V120.764Z" fill="#F0F0F0"/>
<path d="M60.3566 124.272H58.374V126.358H60.3566V124.272Z" fill="#F0F0F0"/>
<path d="M60.3566 127.777H58.374V129.863H60.3566V127.777Z" fill="#F0F0F0"/>
<path d="M60.3566 131.282H58.374V133.369H60.3566V131.282Z" fill="#F0F0F0"/>
<path d="M60.3566 134.783H58.374V136.87H60.3566V134.783Z" fill="#F0F0F0"/>
<path d="M60.3566 138.294H58.374V140.381H60.3566V138.294Z" fill="#F0F0F0"/>
<path d="M60.3566 141.8H58.374V143.886H60.3566V141.8Z" fill="#F0F0F0"/>
<path d="M60.3566 145.305H58.374V147.392H60.3566V145.305Z" fill="#F0F0F0"/>
<path d="M60.3566 148.816H58.374V150.903H60.3566V148.816Z" fill="#F0F0F0"/>
<path d="M60.3566 152.317H58.374V154.404H60.3566V152.317Z" fill="#F0F0F0"/>
<path d="M60.3566 155.823H58.374V157.909H60.3566V155.823Z" fill="#F0F0F0"/>
<path d="M60.3566 159.334H58.374V161.421H60.3566V159.334Z" fill="#F0F0F0"/>
<path d="M60.3566 162.835H58.374V164.922H60.3566V162.835Z" fill="#F0F0F0"/>
<path d="M60.3566 166.34H58.374V168.427H60.3566V166.34Z" fill="#F0F0F0"/>
<path d="M60.3566 169.852H58.374V171.939H60.3566V169.852Z" fill="#F0F0F0"/>
<path d="M60.3566 173.354H58.374V175.44H60.3566V173.354Z" fill="#F0F0F0"/>
<path d="M60.3566 176.858H58.374V178.945H60.3566V176.858Z" fill="#F0F0F0"/>
<path d="M60.3566 180.364H58.374V182.45H60.3566V180.364Z" fill="#F0F0F0"/>
<path d="M60.3566 183.871H58.374V185.958H60.3566V183.871Z" fill="#F0F0F0"/>
<path d="M57.2072 120.764H55.2178V122.85H57.2072V120.764Z" fill="#F0F0F0"/>
<path d="M57.2072 124.272H55.2178V126.358H57.2072V124.272Z" fill="#F0F0F0"/>
<path d="M57.2072 127.777H55.2178V129.863H57.2072V127.777Z" fill="#F0F0F0"/>
<path d="M57.2072 131.282H55.2178V133.369H57.2072V131.282Z" fill="#F0F0F0"/>
<path d="M57.2072 134.783H55.2178V136.87H57.2072V134.783Z" fill="#F0F0F0"/>
<path d="M57.2072 138.294H55.2178V140.381H57.2072V138.294Z" fill="#F0F0F0"/>
<path d="M57.2072 141.8H55.2178V143.886H57.2072V141.8Z" fill="#F0F0F0"/>
<path d="M57.2072 145.305H55.2178V147.392H57.2072V145.305Z" fill="#F0F0F0"/>
<path d="M57.2072 148.816H55.2178V150.903H57.2072V148.816Z" fill="#F0F0F0"/>
<path d="M57.2072 152.317H55.2178V154.404H57.2072V152.317Z" fill="#F0F0F0"/>
<path d="M57.2072 155.823H55.2178V157.909H57.2072V155.823Z" fill="#F0F0F0"/>
<path d="M57.2072 159.334H55.2178V161.421H57.2072V159.334Z" fill="#F0F0F0"/>
<path d="M57.2072 162.835H55.2178V164.922H57.2072V162.835Z" fill="#F0F0F0"/>
<path d="M57.2072 166.34H55.2178V168.427H57.2072V166.34Z" fill="#F0F0F0"/>
<path d="M57.2072 169.852H55.2178V171.939H57.2072V169.852Z" fill="#F0F0F0"/>
<path d="M54.0509 120.764H52.0615V122.85H54.0509V120.764Z" fill="#F0F0F0"/>
<path d="M54.0509 124.272H52.0615V126.358H54.0509V124.272Z" fill="#F0F0F0"/>
<path d="M54.0509 127.777H52.0615V129.863H54.0509V127.777Z" fill="#F0F0F0"/>
<path d="M54.0509 131.282H52.0615V133.369H54.0509V131.282Z" fill="#F0F0F0"/>
<path d="M54.0509 134.783H52.0615V136.87H54.0509V134.783Z" fill="#F0F0F0"/>
<path d="M54.0509 138.294H52.0615V140.381H54.0509V138.294Z" fill="#F0F0F0"/>
<path d="M54.0509 141.8H52.0615V143.886H54.0509V141.8Z" fill="#F0F0F0"/>
<path d="M54.0509 145.305H52.0615V147.392H54.0509V145.305Z" fill="#F0F0F0"/>
<path d="M54.0509 148.816H52.0615V150.903H54.0509V148.816Z" fill="#F0F0F0"/>
<path d="M54.0509 152.317H52.0615V154.404H54.0509V152.317Z" fill="#F0F0F0"/>
<path d="M54.0509 155.823H52.0615V157.909H54.0509V155.823Z" fill="#F0F0F0"/>
<path d="M54.0509 159.334H52.0615V161.421H54.0509V159.334Z" fill="#F0F0F0"/>
<path d="M54.0509 162.835H52.0615V164.922H54.0509V162.835Z" fill="#F0F0F0"/>
<path d="M50.8873 120.764H48.9048V122.85H50.8873V120.764Z" fill="#F0F0F0"/>
<path d="M50.8873 124.272H48.9048V126.358H50.8873V124.272Z" fill="#F0F0F0"/>
<path d="M50.8873 127.777H48.9048V129.863H50.8873V127.777Z" fill="#F0F0F0"/>
<path d="M50.8873 131.282H48.9048V133.369H50.8873V131.282Z" fill="#F0F0F0"/>
<path d="M50.8873 134.783H48.9048V136.87H50.8873V134.783Z" fill="#F0F0F0"/>
<path d="M50.8873 138.294H48.9048V140.381H50.8873V138.294Z" fill="#F0F0F0"/>
<path d="M50.8873 141.8H48.9048V143.886H50.8873V141.8Z" fill="#F0F0F0"/>
<path d="M50.8873 145.305H48.9048V147.392H50.8873V145.305Z" fill="#F0F0F0"/>
<path d="M50.8873 148.816H48.9048V150.903H50.8873V148.816Z" fill="#F0F0F0"/>
<path d="M50.8873 152.317H48.9048V154.404H50.8873V152.317Z" fill="#F0F0F0"/>
<path d="M50.8873 155.823H48.9048V157.909H50.8873V155.823Z" fill="#F0F0F0"/>
<path d="M50.8873 159.334H48.9048V161.421H50.8873V159.334Z" fill="#F0F0F0"/>
<path d="M282.653 146.349H280.671V148.436H282.653V146.349Z" fill="#F0F0F0"/>
<path d="M282.653 149.854H280.671V151.948H282.653V149.854Z" fill="#F0F0F0"/>
<path d="M282.653 153.365H280.671V155.452H282.653V153.365Z" fill="#F0F0F0"/>
<path d="M282.653 156.871H280.671V158.965H282.653V156.871Z" fill="#F0F0F0"/>
<path d="M282.653 160.372H280.671V162.459H282.653V160.372Z" fill="#F0F0F0"/>
<path d="M282.653 163.883H280.671V165.97H282.653V163.883Z" fill="#F0F0F0"/>
<path d="M282.653 167.388H280.671V169.475H282.653V167.388Z" fill="#F0F0F0"/>
<path d="M282.653 170.89H280.671V172.977H282.653V170.89Z" fill="#F0F0F0"/>
<path d="M282.653 174.401H280.671V176.495H282.653V174.401Z" fill="#F0F0F0"/>
<path d="M282.653 177.906H280.671V179.993H282.653V177.906Z" fill="#F0F0F0"/>
<path d="M282.653 181.411H280.671V183.506H282.653V181.411Z" fill="#F0F0F0"/>
<path d="M282.653 184.913H280.671V187H282.653V184.913Z" fill="#F0F0F0"/>
<path d="M282.653 188.424H280.671V190.511H282.653V188.424Z" fill="#F0F0F0"/>
<path d="M282.653 191.929H280.671V194.016H282.653V191.929Z" fill="#F0F0F0"/>
<path d="M282.653 195.431H280.671V197.518H282.653V195.431Z" fill="#F0F0F0"/>
<path d="M282.653 198.942H280.671V201.029H282.653V198.942Z" fill="#F0F0F0"/>
<path d="M282.653 202.447H280.671V204.534H282.653V202.447Z" fill="#F0F0F0"/>
<path d="M282.653 205.949H280.671V208.035H282.653V205.949Z" fill="#F0F0F0"/>
<path d="M282.653 209.46H280.671V211.547H282.653V209.46Z" fill="#F0F0F0"/>
<path d="M282.653 212.965H280.671V215.052H282.653V212.965Z" fill="#F0F0F0"/>
<path d="M279.497 146.349H277.515V148.436H279.497V146.349Z" fill="#F0F0F0"/>
<path d="M279.497 149.854H277.515V151.948H279.497V149.854Z" fill="#F0F0F0"/>
<path d="M279.497 153.365H277.515V155.452H279.497V153.365Z" fill="#F0F0F0"/>
<path d="M279.497 156.871H277.515V158.965H279.497V156.871Z" fill="#F0F0F0"/>
<path d="M279.497 160.372H277.515V162.459H279.497V160.372Z" fill="#F0F0F0"/>
<path d="M279.497 163.883H277.515V165.97H279.497V163.883Z" fill="#F0F0F0"/>
<path d="M279.497 167.388H277.515V169.475H279.497V167.388Z" fill="#F0F0F0"/>
<path d="M279.497 170.89H277.515V172.977H279.497V170.89Z" fill="#F0F0F0"/>
<path d="M279.497 174.401H277.515V176.495H279.497V174.401Z" fill="#F0F0F0"/>
<path d="M279.497 177.906H277.515V179.993H279.497V177.906Z" fill="#F0F0F0"/>
<path d="M279.497 181.411H277.515V183.506H279.497V181.411Z" fill="#F0F0F0"/>
<path d="M279.497 184.913H277.515V187H279.497V184.913Z" fill="#F0F0F0"/>
<path d="M279.497 188.424H277.515V190.511H279.497V188.424Z" fill="#F0F0F0"/>
<path d="M279.497 191.929H277.515V194.016H279.497V191.929Z" fill="#F0F0F0"/>
<path d="M279.497 195.431H277.515V197.518H279.497V195.431Z" fill="#F0F0F0"/>
<path d="M279.497 198.942H277.515V201.029H279.497V198.942Z" fill="#F0F0F0"/>
<path d="M279.497 202.447H277.515V204.534H279.497V202.447Z" fill="#F0F0F0"/>
<path d="M279.497 205.949H277.515V208.035H279.497V205.949Z" fill="#F0F0F0"/>
<path d="M276.341 146.349H274.358V148.436H276.341V146.349Z" fill="#F0F0F0"/>
<path d="M276.341 149.854H274.358V151.948H276.341V149.854Z" fill="#F0F0F0"/>
<path d="M276.341 153.365H274.358V155.452H276.341V153.365Z" fill="#F0F0F0"/>
<path d="M276.341 156.871H274.358V158.965H276.341V156.871Z" fill="#F0F0F0"/>
<path d="M276.341 160.372H274.358V162.459H276.341V160.372Z" fill="#F0F0F0"/>
<path d="M276.341 163.883H274.358V165.97H276.341V163.883Z" fill="#F0F0F0"/>
<path d="M276.341 167.388H274.358V169.475H276.341V167.388Z" fill="#F0F0F0"/>
<path d="M276.341 170.89H274.358V172.977H276.341V170.89Z" fill="#F0F0F0"/>
<path d="M276.341 174.401H274.358V176.495H276.341V174.401Z" fill="#F0F0F0"/>
<path d="M276.341 177.906H274.358V179.993H276.341V177.906Z" fill="#F0F0F0"/>
<path d="M276.341 181.411H274.358V183.506H276.341V181.411Z" fill="#F0F0F0"/>
<path d="M276.341 184.913H274.358V187H276.341V184.913Z" fill="#F0F0F0"/>
<path d="M276.341 188.424H274.358V190.511H276.341V188.424Z" fill="#F0F0F0"/>
<path d="M276.341 191.929H274.358V194.016H276.341V191.929Z" fill="#F0F0F0"/>
<path d="M276.341 195.431H274.358V197.518H276.341V195.431Z" fill="#F0F0F0"/>
<path d="M276.341 198.942H274.358V201.029H276.341V198.942Z" fill="#F0F0F0"/>
<path d="M276.341 202.447H274.358V204.534H276.341V202.447Z" fill="#F0F0F0"/>
<path d="M276.341 205.949H274.358V208.035H276.341V205.949Z" fill="#F0F0F0"/>
<path d="M294.45 171.938H292.461V174.032H294.45V171.938Z" fill="#F0F0F0"/>
<path d="M294.45 175.443H292.461V177.529H294.45V175.443Z" fill="#F0F0F0"/>
<path d="M294.45 178.954H292.461V181.041H294.45V178.954Z" fill="#F0F0F0"/>
<path d="M294.45 182.459H292.461V184.546H294.45V182.459Z" fill="#F0F0F0"/>
<path d="M294.45 185.961H292.461V188.047H294.45V185.961Z" fill="#F0F0F0"/>
<path d="M294.45 189.472H292.461V191.559H294.45V189.472Z" fill="#F0F0F0"/>
<path d="M294.45 192.977H292.461V195.064H294.45V192.977Z" fill="#F0F0F0"/>
<path d="M294.45 196.479H292.461V198.566H294.45V196.479Z" fill="#F0F0F0"/>
<path d="M294.45 199.984H292.461V202.07H294.45V199.984Z" fill="#F0F0F0"/>
<path d="M294.45 203.495H292.461V205.582H294.45V203.495Z" fill="#F0F0F0"/>
<path d="M294.45 206.997H292.461V209.083H294.45V206.997Z" fill="#F0F0F0"/>
<path d="M294.45 210.502H292.461V212.589H294.45V210.502Z" fill="#F0F0F0"/>
<path d="M294.45 214.013H292.461V216.1H294.45V214.013Z" fill="#F0F0F0"/>
<path d="M291.294 171.938H289.312V174.032H291.294V171.938Z" fill="#F0F0F0"/>
<path d="M291.294 175.443H289.312V177.529H291.294V175.443Z" fill="#F0F0F0"/>
<path d="M291.294 178.954H289.312V181.041H291.294V178.954Z" fill="#F0F0F0"/>
<path d="M291.294 182.459H289.312V184.546H291.294V182.459Z" fill="#F0F0F0"/>
<path d="M291.294 185.961H289.312V188.047H291.294V185.961Z" fill="#F0F0F0"/>
<path d="M291.294 189.472H289.312V191.559H291.294V189.472Z" fill="#F0F0F0"/>
<path d="M291.294 192.977H289.312V195.064H291.294V192.977Z" fill="#F0F0F0"/>
<path d="M291.294 196.479H289.312V198.566H291.294V196.479Z" fill="#F0F0F0"/>
<path d="M291.294 199.984H289.312V202.07H291.294V199.984Z" fill="#F0F0F0"/>
<path d="M291.294 203.495H289.312V205.582H291.294V203.495Z" fill="#F0F0F0"/>
<path d="M291.294 206.997H289.312V209.083H291.294V206.997Z" fill="#F0F0F0"/>
<path d="M291.294 210.502H289.312V212.589H291.294V210.502Z" fill="#F0F0F0"/>
<path d="M291.294 214.013H289.312V216.1H291.294V214.013Z" fill="#F0F0F0"/>
<path d="M288.143 171.938H286.16V174.032H288.143V171.938Z" fill="#F0F0F0"/>
<path d="M288.143 175.443H286.16V177.529H288.143V175.443Z" fill="#F0F0F0"/>
<path d="M288.143 178.954H286.16V181.041H288.143V178.954Z" fill="#F0F0F0"/>
<path d="M288.143 182.459H286.16V184.546H288.143V182.459Z" fill="#F0F0F0"/>
<path d="M288.143 185.961H286.16V188.047H288.143V185.961Z" fill="#F0F0F0"/>
<path d="M288.143 189.472H286.16V191.559H288.143V189.472Z" fill="#F0F0F0"/>
<path d="M288.143 192.977H286.16V195.064H288.143V192.977Z" fill="#F0F0F0"/>
<path d="M288.143 196.479H286.16V198.566H288.143V196.479Z" fill="#F0F0F0"/>
<path d="M288.143 199.984H286.16V202.07H288.143V199.984Z" fill="#F0F0F0"/>
<path d="M288.143 203.495H286.16V205.582H288.143V203.495Z" fill="#F0F0F0"/>
<path d="M288.143 206.997H286.16V209.083H288.143V206.997Z" fill="#F0F0F0"/>
<path d="M288.143 210.502H286.16V212.589H288.143V210.502Z" fill="#F0F0F0"/>
<path d="M288.143 214.013H286.16V216.1H288.143V214.013Z" fill="#F0F0F0"/>
<path d="M288.143 217.515H286.16V219.601H288.143V217.515Z" fill="#F0F0F0"/>
<path d="M270.62 172.986H268.638V175.072H270.62V172.986Z" fill="#F0F0F0"/>
<path d="M270.62 176.491H268.638V178.578H270.62V176.491Z" fill="#F0F0F0"/>
<path d="M270.62 179.992H268.638V182.079H270.62V179.992Z" fill="#F0F0F0"/>
<path d="M270.62 183.504H268.638V185.59H270.62V183.504Z" fill="#F0F0F0"/>
<path d="M270.62 187.009H268.638V189.095H270.62V187.009Z" fill="#F0F0F0"/>
<path d="M270.62 190.514H268.638V192.601H270.62V190.514Z" fill="#F0F0F0"/>
<path d="M270.62 194.025H268.638V196.112H270.62V194.025Z" fill="#F0F0F0"/>
<path d="M270.62 197.527H268.638V199.621H270.62V197.527Z" fill="#F0F0F0"/>
<path d="M270.62 201.032H268.638V203.119H270.62V201.032Z" fill="#F0F0F0"/>
<path d="M270.62 204.543H268.638V206.63H270.62V204.543Z" fill="#F0F0F0"/>
<path d="M270.62 215.057H268.638V217.144H270.62V215.057Z" fill="#F0F0F0"/>
<path d="M267.471 172.986H265.481V175.072H267.471V172.986Z" fill="#F0F0F0"/>
<path d="M267.471 176.491H265.481V178.578H267.471V176.491Z" fill="#F0F0F0"/>
<path d="M267.471 179.992H265.481V182.079H267.471V179.992Z" fill="#F0F0F0"/>
<path d="M267.471 183.504H265.481V185.59H267.471V183.504Z" fill="#F0F0F0"/>
<path d="M267.471 187.009H265.481V189.095H267.471V187.009Z" fill="#F0F0F0"/>
<path d="M267.471 190.514H265.481V192.601H267.471V190.514Z" fill="#F0F0F0"/>
<path d="M267.471 194.025H265.481V196.112H267.471V194.025Z" fill="#F0F0F0"/>
<path d="M267.471 197.527H265.481V199.621H267.471V197.527Z" fill="#F0F0F0"/>
<path d="M267.471 201.032H265.481V203.119H267.471V201.032Z" fill="#F0F0F0"/>
<path d="M267.471 211.55H265.481V213.644H267.471V211.55Z" fill="#F0F0F0"/>
<path d="M267.471 215.057H265.481V217.144H267.471V215.057Z" fill="#F0F0F0"/>
<path d="M264.315 172.986H262.325V175.072H264.315V172.986Z" fill="#F0F0F0"/>
<path d="M264.315 176.491H262.325V178.578H264.315V176.491Z" fill="#F0F0F0"/>
<path d="M264.315 179.992H262.325V182.079H264.315V179.992Z" fill="#F0F0F0"/>
<path d="M264.315 183.504H262.325V185.59H264.315V183.504Z" fill="#F0F0F0"/>
<path d="M264.315 187.009H262.325V189.095H264.315V187.009Z" fill="#F0F0F0"/>
<path d="M264.315 190.514H262.325V192.601H264.315V190.514Z" fill="#F0F0F0"/>
<path d="M264.315 194.025H262.325V196.112H264.315V194.025Z" fill="#F0F0F0"/>
<path d="M264.315 197.527H262.325V199.621H264.315V197.527Z" fill="#F0F0F0"/>
<path d="M264.315 208.045H262.325V210.139H264.315V208.045Z" fill="#F0F0F0"/>
<path d="M264.315 211.55H262.325V213.644H264.315V211.55Z" fill="#F0F0F0"/>
<path d="M264.315 215.057H262.325V217.144H264.315V215.057Z" fill="#F0F0F0"/>
<path d="M234.988 119.716H233.005V121.803H234.988V119.716Z" fill="#F0F0F0"/>
<path d="M234.988 123.227H233.005V125.314H234.988V123.227Z" fill="#F0F0F0"/>
<path d="M234.988 126.729H233.005V128.815H234.988V126.729Z" fill="#F0F0F0"/>
<path d="M234.988 130.234H233.005V132.32H234.988V130.234Z" fill="#F0F0F0"/>
<path d="M234.988 133.745H233.005V135.832H234.988V133.745Z" fill="#F0F0F0"/>
<path d="M234.988 137.246H233.005V139.34H234.988V137.246Z" fill="#F0F0F0"/>
<path d="M234.988 140.752H233.005V142.838H234.988V140.752Z" fill="#F0F0F0"/>
<path d="M234.988 144.263H233.005V146.35H234.988V144.263Z" fill="#F0F0F0"/>
<path d="M234.988 147.768H233.005V149.855H234.988V147.768Z" fill="#F0F0F0"/>
<path d="M234.988 151.269H233.005V153.356H234.988V151.269Z" fill="#F0F0F0"/>
<path d="M234.988 154.781H233.005V156.868H234.988V154.781Z" fill="#F0F0F0"/>
<path d="M234.988 158.286H233.005V160.373H234.988V158.286Z" fill="#F0F0F0"/>
<path d="M234.988 161.787H233.005V163.874H234.988V161.787Z" fill="#F0F0F0"/>
<path d="M234.988 165.292H233.005V167.379H234.988V165.292Z" fill="#F0F0F0"/>
<path d="M234.988 168.804H233.005V170.898H234.988V168.804Z" fill="#F0F0F0"/>
<path d="M234.988 172.305H233.005V174.392H234.988V172.305Z" fill="#F0F0F0"/>
<path d="M234.988 175.81H233.005V177.897H234.988V175.81Z" fill="#F0F0F0"/>
<path d="M234.988 182.827H233.005V184.914H234.988V182.827Z" fill="#F0F0F0"/>
<path d="M234.988 186.328H233.005V188.415H234.988V186.328Z" fill="#F0F0F0"/>
<path d="M234.988 189.84H233.005V191.927H234.988V189.84Z" fill="#F0F0F0"/>
<path d="M234.988 193.345H233.005V195.432H234.988V193.345Z" fill="#F0F0F0"/>
<path d="M234.988 196.853H233.005V198.94H234.988V196.853Z" fill="#F0F0F0"/>
<path d="M231.832 119.716H229.85V121.803H231.832V119.716Z" fill="#F0F0F0"/>
<path d="M231.832 123.227H229.85V125.314H231.832V123.227Z" fill="#F0F0F0"/>
<path d="M231.832 126.729H229.85V128.815H231.832V126.729Z" fill="#F0F0F0"/>
<path d="M231.832 130.234H229.85V132.32H231.832V130.234Z" fill="#F0F0F0"/>
<path d="M231.832 133.745H229.85V135.832H231.832V133.745Z" fill="#F0F0F0"/>
<path d="M231.832 137.246H229.85V139.34H231.832V137.246Z" fill="#F0F0F0"/>
<path d="M231.832 140.752H229.85V142.838H231.832V140.752Z" fill="#F0F0F0"/>
<path d="M231.832 144.263H229.85V146.35H231.832V144.263Z" fill="#F0F0F0"/>
<path d="M231.832 147.768H229.85V149.855H231.832V147.768Z" fill="#F0F0F0"/>
<path d="M231.832 151.269H229.85V153.356H231.832V151.269Z" fill="#F0F0F0"/>
<path d="M231.832 154.781H229.85V156.868H231.832V154.781Z" fill="#F0F0F0"/>
<path d="M231.832 158.286H229.85V160.373H231.832V158.286Z" fill="#F0F0F0"/>
<path d="M231.832 161.787H229.85V163.874H231.832V161.787Z" fill="#F0F0F0"/>
<path d="M231.832 165.292H229.85V167.379H231.832V165.292Z" fill="#F0F0F0"/>
<path d="M231.832 168.804H229.85V170.898H231.832V168.804Z" fill="#F0F0F0"/>
<path d="M231.832 172.305H229.85V174.392H231.832V172.305Z" fill="#F0F0F0"/>
<path d="M231.832 193.345H229.85V195.432H231.832V193.345Z" fill="#F0F0F0"/>
<path d="M231.832 196.853H229.85V198.94H231.832V196.853Z" fill="#F0F0F0"/>
<path d="M228.68 119.716H226.698V121.803H228.68V119.716Z" fill="#F0F0F0"/>
<path d="M228.68 123.227H226.698V125.314H228.68V123.227Z" fill="#F0F0F0"/>
<path d="M228.68 126.729H226.698V128.815H228.68V126.729Z" fill="#F0F0F0"/>
<path d="M228.68 130.234H226.698V132.32H228.68V130.234Z" fill="#F0F0F0"/>
<path d="M228.68 133.745H226.698V135.832H228.68V133.745Z" fill="#F0F0F0"/>
<path d="M228.68 137.246H226.698V139.34H228.68V137.246Z" fill="#F0F0F0"/>
<path d="M228.68 140.752H226.698V142.838H228.68V140.752Z" fill="#F0F0F0"/>
<path d="M228.68 144.263H226.698V146.35H228.68V144.263Z" fill="#F0F0F0"/>
<path d="M228.68 147.768H226.698V149.855H228.68V147.768Z" fill="#F0F0F0"/>
<path d="M228.68 151.269H226.698V153.356H228.68V151.269Z" fill="#F0F0F0"/>
<path d="M228.68 154.781H226.698V156.868H228.68V154.781Z" fill="#F0F0F0"/>
<path d="M228.68 158.286H226.698V160.373H228.68V158.286Z" fill="#F0F0F0"/>
<path d="M228.68 161.787H226.698V163.874H228.68V161.787Z" fill="#F0F0F0"/>
<path d="M228.68 165.292H226.698V167.379H228.68V165.292Z" fill="#F0F0F0"/>
<path d="M228.68 168.804H226.698V170.898H228.68V168.804Z" fill="#F0F0F0"/>
<path d="M228.68 172.305H226.698V174.392H228.68V172.305Z" fill="#F0F0F0"/>
<path d="M228.68 179.322H226.698V181.409H228.68V179.322Z" fill="#F0F0F0"/>
<path d="M228.68 182.827H226.698V184.914H228.68V182.827Z" fill="#F0F0F0"/>
<path d="M228.68 186.328H226.698V188.415H228.68V186.328Z" fill="#F0F0F0"/>
<path d="M228.68 189.84H226.698V191.927H228.68V189.84Z" fill="#F0F0F0"/>
<path d="M228.68 196.853H226.698V198.94H228.68V196.853Z" fill="#F0F0F0"/>
<path d="M246.447 163.883H244.458V165.97H246.447V163.883Z" fill="#F0F0F0"/>
<path d="M246.447 167.388H244.458V169.475H246.447V167.388Z" fill="#F0F0F0"/>
<path d="M246.447 170.89H244.458V172.977H246.447V170.89Z" fill="#F0F0F0"/>
<path d="M246.447 174.401H244.458V176.495H246.447V174.401Z" fill="#F0F0F0"/>
<path d="M246.447 177.906H244.458V179.993H246.447V177.906Z" fill="#F0F0F0"/>
<path d="M246.447 181.411H244.458V183.506H246.447V181.411Z" fill="#F0F0F0"/>
<path d="M246.447 184.913H244.458V187H246.447V184.913Z" fill="#F0F0F0"/>
<path d="M246.447 191.929H244.458V194.016H246.447V191.929Z" fill="#F0F0F0"/>
<path d="M246.447 195.431H244.458V197.518H246.447V195.431Z" fill="#F0F0F0"/>
<path d="M246.447 198.942H244.458V201.029H246.447V198.942Z" fill="#F0F0F0"/>
<path d="M246.447 202.447H244.458V204.534H246.447V202.447Z" fill="#F0F0F0"/>
<path d="M246.447 205.949H244.458V208.035H246.447V205.949Z" fill="#F0F0F0"/>
<path d="M246.447 209.46H244.458V211.547H246.447V209.46Z" fill="#F0F0F0"/>
<path d="M246.447 212.965H244.458V215.052H246.447V212.965Z" fill="#F0F0F0"/>
<path d="M246.447 216.473H244.458V218.56H246.447V216.473Z" fill="#F0F0F0"/>
<path d="M243.284 163.883H241.301V165.97H243.284V163.883Z" fill="#F0F0F0"/>
<path d="M243.284 167.388H241.301V169.475H243.284V167.388Z" fill="#F0F0F0"/>
<path d="M243.284 170.89H241.301V172.977H243.284V170.89Z" fill="#F0F0F0"/>
<path d="M243.284 174.401H241.301V176.495H243.284V174.401Z" fill="#F0F0F0"/>
<path d="M243.284 177.906H241.301V179.993H243.284V177.906Z" fill="#F0F0F0"/>
<path d="M243.284 181.411H241.301V183.506H243.284V181.411Z" fill="#F0F0F0"/>
<path d="M243.284 191.929H241.301V194.016H243.284V191.929Z" fill="#F0F0F0"/>
<path d="M243.284 195.431H241.301V197.518H243.284V195.431Z" fill="#F0F0F0"/>
<path d="M243.284 198.942H241.301V201.029H243.284V198.942Z" fill="#F0F0F0"/>
<path d="M243.284 202.447H241.301V204.534H243.284V202.447Z" fill="#F0F0F0"/>
<path d="M243.284 205.949H241.301V208.035H243.284V205.949Z" fill="#F0F0F0"/>
<path d="M243.284 209.46H241.301V211.547H243.284V209.46Z" fill="#F0F0F0"/>
<path d="M243.284 212.965H241.301V215.052H243.284V212.965Z" fill="#F0F0F0"/>
<path d="M243.284 216.473H241.301V218.56H243.284V216.473Z" fill="#F0F0F0"/>
<path d="M240.135 163.883H238.146V165.97H240.135V163.883Z" fill="#F0F0F0"/>
<path d="M240.135 167.388H238.146V169.475H240.135V167.388Z" fill="#F0F0F0"/>
<path d="M240.135 170.89H238.146V172.977H240.135V170.89Z" fill="#F0F0F0"/>
<path d="M240.135 174.401H238.146V176.495H240.135V174.401Z" fill="#F0F0F0"/>
<path d="M240.135 177.906H238.146V179.993H240.135V177.906Z" fill="#F0F0F0"/>
<path d="M240.135 181.411H238.146V183.506H240.135V181.411Z" fill="#F0F0F0"/>
<path d="M240.135 188.424H238.146V190.511H240.135V188.424Z" fill="#F0F0F0"/>
<path d="M240.135 191.929H238.146V194.016H240.135V191.929Z" fill="#F0F0F0"/>
<path d="M240.135 195.431H238.146V197.518H240.135V195.431Z" fill="#F0F0F0"/>
<path d="M240.135 198.942H238.146V201.029H240.135V198.942Z" fill="#F0F0F0"/>
<path d="M240.135 202.447H238.146V204.534H240.135V202.447Z" fill="#F0F0F0"/>
<path d="M240.135 205.949H238.146V208.035H240.135V205.949Z" fill="#F0F0F0"/>
<path d="M240.135 209.46H238.146V211.547H240.135V209.46Z" fill="#F0F0F0"/>
<path d="M240.135 212.965H238.146V215.052H240.135V212.965Z" fill="#F0F0F0"/>
<path d="M240.135 216.473H238.146V218.56H240.135V216.473Z" fill="#F0F0F0"/>
<path d="M173.661 144.263H171.678V146.35H173.661V144.263Z" fill="#F0F0F0"/>
<path d="M173.661 147.768H171.678V149.855H173.661V147.768Z" fill="#F0F0F0"/>
<path d="M173.661 151.269H171.678V153.356H173.661V151.269Z" fill="#F0F0F0"/>
<path d="M173.661 154.781H171.678V156.868H173.661V154.781Z" fill="#F0F0F0"/>
<path d="M173.661 158.286H171.678V160.373H173.661V158.286Z" fill="#F0F0F0"/>
<path d="M173.661 161.787H171.678V163.874H173.661V161.787Z" fill="#F0F0F0"/>
<path d="M173.661 165.292H171.678V167.379H173.661V165.292Z" fill="#F0F0F0"/>
<path d="M173.661 168.804H171.678V170.898H173.661V168.804Z" fill="#F0F0F0"/>
<path d="M173.661 172.305H171.678V174.392H173.661V172.305Z" fill="#F0F0F0"/>
<path d="M173.661 175.81H171.678V177.897H173.661V175.81Z" fill="#F0F0F0"/>
<path d="M173.661 179.322H171.678V181.409H173.661V179.322Z" fill="#F0F0F0"/>
<path d="M173.661 182.827H171.678V184.914H173.661V182.827Z" fill="#F0F0F0"/>
<path d="M173.661 186.328H171.678V188.415H173.661V186.328Z" fill="#F0F0F0"/>
<path d="M173.661 193.345H171.678V195.432H173.661V193.345Z" fill="#F0F0F0"/>
<path d="M173.661 196.853H171.678V198.94H173.661V196.853Z" fill="#F0F0F0"/>
<path d="M173.661 200.358H171.678V202.445H173.661V200.358Z" fill="#F0F0F0"/>
<path d="M173.661 203.863H171.678V205.95H173.661V203.863Z" fill="#F0F0F0"/>
<path d="M173.661 210.869H171.678V212.963H173.661V210.869Z" fill="#F0F0F0"/>
<path d="M173.661 214.381H171.678V216.468H173.661V214.381Z" fill="#F0F0F0"/>
<path d="M173.661 217.886H171.678V219.973H173.661V217.886Z" fill="#F0F0F0"/>
<path d="M170.505 144.263H168.522V146.35H170.505V144.263Z" fill="#F0F0F0"/>
<path d="M170.505 147.768H168.522V149.855H170.505V147.768Z" fill="#F0F0F0"/>
<path d="M170.505 151.269H168.522V153.356H170.505V151.269Z" fill="#F0F0F0"/>
<path d="M170.505 154.781H168.522V156.868H170.505V154.781Z" fill="#F0F0F0"/>
<path d="M170.505 158.286H168.522V160.373H170.505V158.286Z" fill="#F0F0F0"/>
<path d="M170.505 161.787H168.522V163.874H170.505V161.787Z" fill="#F0F0F0"/>
<path d="M170.505 165.292H168.522V167.379H170.505V165.292Z" fill="#F0F0F0"/>
<path d="M170.505 168.804H168.522V170.898H170.505V168.804Z" fill="#F0F0F0"/>
<path d="M170.505 172.305H168.522V174.392H170.505V172.305Z" fill="#F0F0F0"/>
<path d="M170.505 175.81H168.522V177.897H170.505V175.81Z" fill="#F0F0F0"/>
<path d="M170.505 179.322H168.522V181.409H170.505V179.322Z" fill="#F0F0F0"/>
<path d="M170.505 182.827H168.522V184.914H170.505V182.827Z" fill="#F0F0F0"/>
<path d="M170.505 186.328H168.522V188.415H170.505V186.328Z" fill="#F0F0F0"/>
<path d="M170.505 196.853H168.522V198.94H170.505V196.853Z" fill="#F0F0F0"/>
<path d="M170.505 200.358H168.522V202.445H170.505V200.358Z" fill="#F0F0F0"/>
<path d="M170.505 207.368H168.522V209.455H170.505V207.368Z" fill="#F0F0F0"/>
<path d="M170.505 210.869H168.522V212.963H170.505V210.869Z" fill="#F0F0F0"/>
<path d="M170.505 214.381H168.522V216.468H170.505V214.381Z" fill="#F0F0F0"/>
<path d="M170.505 217.886H168.522V219.973H170.505V217.886Z" fill="#F0F0F0"/>
<path d="M167.355 144.263H165.372V146.35H167.355V144.263Z" fill="#F0F0F0"/>
<path d="M167.355 147.768H165.372V149.855H167.355V147.768Z" fill="#F0F0F0"/>
<path d="M167.355 151.269H165.372V153.356H167.355V151.269Z" fill="#F0F0F0"/>
<path d="M167.355 154.781H165.372V156.868H167.355V154.781Z" fill="#F0F0F0"/>
<path d="M167.355 158.286H165.372V160.373H167.355V158.286Z" fill="#F0F0F0"/>
<path d="M167.355 161.787H165.372V163.874H167.355V161.787Z" fill="#F0F0F0"/>
<path d="M167.355 165.292H165.372V167.379H167.355V165.292Z" fill="#F0F0F0"/>
<path d="M167.355 168.804H165.372V170.898H167.355V168.804Z" fill="#F0F0F0"/>
<path d="M167.355 172.305H165.372V174.392H167.355V172.305Z" fill="#F0F0F0"/>
<path d="M167.355 175.81H165.372V177.897H167.355V175.81Z" fill="#F0F0F0"/>
<path d="M167.355 179.322H165.372V181.409H167.355V179.322Z" fill="#F0F0F0"/>
<path d="M167.355 182.827H165.372V184.914H167.355V182.827Z" fill="#F0F0F0"/>
<path d="M167.355 186.328H165.372V188.415H167.355V186.328Z" fill="#F0F0F0"/>
<path d="M167.355 189.84H165.372V191.927H167.355V189.84Z" fill="#F0F0F0"/>
<path d="M167.355 196.853H165.372V198.94H167.355V196.853Z" fill="#F0F0F0"/>
<path d="M167.355 203.863H165.372V205.95H167.355V203.863Z" fill="#F0F0F0"/>
<path d="M167.355 207.368H165.372V209.455H167.355V207.368Z" fill="#F0F0F0"/>
<path d="M167.355 210.869H165.372V212.963H167.355V210.869Z" fill="#F0F0F0"/>
<path d="M167.355 214.381H165.372V216.468H167.355V214.381Z" fill="#F0F0F0"/>
<path d="M167.355 217.886H165.372V219.973H167.355V217.886Z" fill="#F0F0F0"/>
<path d="M186.518 164.251H184.528V166.338H186.518V164.251Z" fill="#F0F0F0"/>
<path d="M186.518 167.756H184.528V169.843H186.518V167.756Z" fill="#F0F0F0"/>
<path d="M186.518 171.261H184.528V173.348H186.518V171.261Z" fill="#F0F0F0"/>
<path d="M186.518 174.772H184.528V176.859H186.518V174.772Z" fill="#F0F0F0"/>
<path d="M186.518 178.274H184.528V180.361H186.518V178.274Z" fill="#F0F0F0"/>
<path d="M186.518 181.779H184.528V183.866H186.518V181.779Z" fill="#F0F0F0"/>
<path d="M186.518 192.297H184.528V194.384H186.518V192.297Z" fill="#F0F0F0"/>
<path d="M186.518 195.808H184.528V197.895H186.518V195.808Z" fill="#F0F0F0"/>
<path d="M186.518 199.31H184.528V201.397H186.518V199.31Z" fill="#F0F0F0"/>
<path d="M186.518 202.815H184.528V204.909H186.518V202.815Z" fill="#F0F0F0"/>
<path d="M186.518 206.32H184.528V208.407H186.518V206.32Z" fill="#F0F0F0"/>
<path d="M186.518 209.832H184.528V211.918H186.518V209.832Z" fill="#F0F0F0"/>
<path d="M186.518 213.333H184.528V215.42H186.518V213.333Z" fill="#F0F0F0"/>
<path d="M183.355 164.251H181.372V166.338H183.355V164.251Z" fill="#F0F0F0"/>
<path d="M183.355 167.756H181.372V169.843H183.355V167.756Z" fill="#F0F0F0"/>
<path d="M183.355 171.261H181.372V173.348H183.355V171.261Z" fill="#F0F0F0"/>
<path d="M183.355 174.772H181.372V176.859H183.355V174.772Z" fill="#F0F0F0"/>
<path d="M183.355 178.274H181.372V180.361H183.355V178.274Z" fill="#F0F0F0"/>
<path d="M183.355 181.779H181.372V183.866H183.355V181.779Z" fill="#F0F0F0"/>
<path d="M183.355 192.297H181.372V194.384H183.355V192.297Z" fill="#F0F0F0"/>
<path d="M183.355 195.808H181.372V197.895H183.355V195.808Z" fill="#F0F0F0"/>
<path d="M183.355 199.31H181.372V201.397H183.355V199.31Z" fill="#F0F0F0"/>
<path d="M183.355 202.815H181.372V204.909H183.355V202.815Z" fill="#F0F0F0"/>
<path d="M183.355 206.32H181.372V208.407H183.355V206.32Z" fill="#F0F0F0"/>
<path d="M183.355 209.832H181.372V211.918H183.355V209.832Z" fill="#F0F0F0"/>
<path d="M183.355 216.838H181.372V218.925H183.355V216.838Z" fill="#F0F0F0"/>
<path d="M78.5792 148.816H76.5898V150.903H78.5792V148.816Z" fill="#F0F0F0"/>
<path d="M78.5792 152.317H76.5898V154.404H78.5792V152.317Z" fill="#F0F0F0"/>
<path d="M78.5792 155.823H76.5898V157.909H78.5792V155.823Z" fill="#F0F0F0"/>
<path d="M78.5792 159.334H76.5898V161.421H78.5792V159.334Z" fill="#F0F0F0"/>
<path d="M78.5792 162.835H76.5898V164.922H78.5792V162.835Z" fill="#F0F0F0"/>
<path d="M78.5792 166.34H76.5898V168.427H78.5792V166.34Z" fill="#F0F0F0"/>
<path d="M78.5792 169.852H76.5898V171.939H78.5792V169.852Z" fill="#F0F0F0"/>
<path d="M78.5792 173.354H76.5898V175.44H78.5792V173.354Z" fill="#F0F0F0"/>
<path d="M78.5792 176.858H76.5898V178.945H78.5792V176.858Z" fill="#F0F0F0"/>
<path d="M78.5792 180.364H76.5898V182.45H78.5792V180.364Z" fill="#F0F0F0"/>
<path d="M78.5792 183.871H76.5898V185.958H78.5792V183.871Z" fill="#F0F0F0"/>
<path d="M78.5792 190.881H76.5898V192.968H78.5792V190.881Z" fill="#F0F0F0"/>
<path d="M78.5792 194.393H76.5898V196.487H78.5792V194.393Z" fill="#F0F0F0"/>
<path d="M78.5792 197.894H76.5898V199.988H78.5792V197.894Z" fill="#F0F0F0"/>
<path d="M78.5792 201.4H76.5898V203.486H78.5792V201.4Z" fill="#F0F0F0"/>
<path d="M78.5792 204.911H76.5898V206.998H78.5792V204.911Z" fill="#F0F0F0"/>
<path d="M78.5792 208.419H76.5898V210.506H78.5792V208.419Z" fill="#F0F0F0"/>
<path d="M78.5792 211.917H76.5898V214.004H78.5792V211.917Z" fill="#F0F0F0"/>
<path d="M78.5792 215.429H76.5898V217.516H78.5792V215.429Z" fill="#F0F0F0"/>
<path d="M75.4166 148.816H73.4341V150.903H75.4166V148.816Z" fill="#F0F0F0"/>
<path d="M75.4166 152.317H73.4341V154.404H75.4166V152.317Z" fill="#F0F0F0"/>
<path d="M75.4166 155.823H73.4341V157.909H75.4166V155.823Z" fill="#F0F0F0"/>
<path d="M75.4166 159.334H73.4341V161.421H75.4166V159.334Z" fill="#F0F0F0"/>
<path d="M75.4166 162.835H73.4341V164.922H75.4166V162.835Z" fill="#F0F0F0"/>
<path d="M75.4166 166.34H73.4341V168.427H75.4166V166.34Z" fill="#F0F0F0"/>
<path d="M75.4166 169.852H73.4341V171.939H75.4166V169.852Z" fill="#F0F0F0"/>
<path d="M75.4166 173.354H73.4341V175.44H75.4166V173.354Z" fill="#F0F0F0"/>
<path d="M75.4166 176.858H73.4341V178.945H75.4166V176.858Z" fill="#F0F0F0"/>
<path d="M75.4166 180.364H73.4341V182.45H75.4166V180.364Z" fill="#F0F0F0"/>
<path d="M75.4166 183.871H73.4341V185.958H75.4166V183.871Z" fill="#F0F0F0"/>
<path d="M75.4166 187.376H73.4341V189.463H75.4166V187.376Z" fill="#F0F0F0"/>
<path d="M75.4166 190.881H73.4341V192.968H75.4166V190.881Z" fill="#F0F0F0"/>
<path d="M75.4166 194.393H73.4341V196.487H75.4166V194.393Z" fill="#F0F0F0"/>
<path d="M75.4166 197.894H73.4341V199.988H75.4166V197.894Z" fill="#F0F0F0"/>
<path d="M75.4166 201.4H73.4341V203.486H75.4166V201.4Z" fill="#F0F0F0"/>
<path d="M75.4166 204.911H73.4341V206.998H75.4166V204.911Z" fill="#F0F0F0"/>
<path d="M75.4166 208.419H73.4341V210.506H75.4166V208.419Z" fill="#F0F0F0"/>
<path d="M75.4166 211.917H73.4341V214.004H75.4166V211.917Z" fill="#F0F0F0"/>
<path d="M75.4166 215.429H73.4341V217.516H75.4166V215.429Z" fill="#F0F0F0"/>
<path d="M94.1124 162.468H92.1299V164.555H94.1124V162.468Z" fill="#F0F0F0"/>
<path d="M94.1124 165.973H92.1299V168.06H94.1124V165.973Z" fill="#F0F0F0"/>
<path d="M94.1124 169.474H92.1299V171.561H94.1124V169.474Z" fill="#F0F0F0"/>
<path d="M94.1124 172.986H92.1299V175.072H94.1124V172.986Z" fill="#F0F0F0"/>
<path d="M94.1124 176.491H92.1299V178.578H94.1124V176.491Z" fill="#F0F0F0"/>
<path d="M94.1124 179.992H92.1299V182.079H94.1124V179.992Z" fill="#F0F0F0"/>
<path d="M94.1124 183.504H92.1299V185.59H94.1124V183.504Z" fill="#F0F0F0"/>
<path d="M94.1124 187.009H92.1299V189.095H94.1124V187.009Z" fill="#F0F0F0"/>
<path d="M94.1124 190.514H92.1299V192.601H94.1124V190.514Z" fill="#F0F0F0"/>
<path d="M94.1124 194.025H92.1299V196.112H94.1124V194.025Z" fill="#F0F0F0"/>
<path d="M90.9552 162.468H88.9727V164.555H90.9552V162.468Z" fill="#F0F0F0"/>
<path d="M90.9552 165.973H88.9727V168.06H90.9552V165.973Z" fill="#F0F0F0"/>
<path d="M90.9552 169.474H88.9727V171.561H90.9552V169.474Z" fill="#F0F0F0"/>
<path d="M90.9552 172.986H88.9727V175.072H90.9552V172.986Z" fill="#F0F0F0"/>
<path d="M90.9552 176.491H88.9727V178.578H90.9552V176.491Z" fill="#F0F0F0"/>
<path d="M90.9552 179.992H88.9727V182.079H90.9552V179.992Z" fill="#F0F0F0"/>
<path d="M90.9552 183.504H88.9727V185.59H90.9552V183.504Z" fill="#F0F0F0"/>
<path d="M90.9552 187.009H88.9727V189.095H90.9552V187.009Z" fill="#F0F0F0"/>
<path d="M90.9552 190.514H88.9727V192.601H90.9552V190.514Z" fill="#F0F0F0"/>
<path d="M124.049 60.2729C124.05 59.4912 123.904 58.7169 123.621 57.9943C123.338 57.2717 122.922 56.615 122.398 56.0615C121.874 55.5081 121.251 55.0688 120.566 54.7688C119.88 54.4688 119.145 54.3139 118.403 54.3129C117.852 54.3108 117.304 54.396 116.777 54.5658C116.862 53.9606 116.906 53.3498 116.907 52.738C116.906 49.4003 115.646 46.1997 113.406 43.8389C111.165 41.4781 108.127 40.15 104.957 40.1462C104.218 40.1448 103.481 40.2174 102.755 40.3629C101.578 38.3185 99.801 36.7333 97.6925 35.8467C95.584 34.9601 93.2588 34.8204 91.0683 35.4488C88.8778 36.0771 86.941 37.4392 85.5507 39.3294C84.1604 41.2195 83.3921 43.5349 83.362 45.9256H83.1905C80.6343 45.9256 78.1828 46.9949 76.3752 48.8984C74.5677 50.802 73.5522 53.3837 73.5522 56.0756C73.5522 58.7676 74.5677 61.3493 76.3752 63.2528C78.1828 65.1563 80.6343 66.2257 83.1905 66.2257H118.581C120.049 66.1786 121.442 65.5303 122.463 64.4186C123.484 63.3069 124.053 61.8195 124.049 60.2729Z" fill="#F0F0F0"/>
<path d="M281.354 45.1166C281.354 44.6179 281.261 44.1241 281.079 43.6635C280.898 43.2029 280.632 42.7844 280.297 42.4322C279.962 42.0799 279.564 41.8007 279.126 41.6105C278.688 41.4203 278.219 41.3229 277.746 41.3239C277.395 41.325 277.046 41.3785 276.71 41.4828C276.765 41.0954 276.793 40.7042 276.792 40.3125C276.792 38.18 275.988 36.1348 274.556 34.6269C273.124 33.119 271.182 32.2719 269.157 32.2719C268.683 32.2732 268.21 32.3192 267.744 32.4092C266.986 31.1201 265.852 30.1237 264.512 29.5687C263.173 29.0138 261.698 28.9299 260.309 29.3297C258.92 29.7294 257.692 30.5914 256.806 31.787C255.921 32.9825 255.426 34.4476 255.396 35.9635H255.279C254.429 35.8902 253.573 36.0033 252.766 36.2957C251.96 36.5881 251.219 37.0534 250.592 37.6623C249.964 38.2712 249.464 39.0104 249.121 39.8334C248.778 40.6563 248.602 41.5451 248.602 42.4436C248.602 43.3421 248.778 44.2309 249.121 45.0539C249.464 45.8768 249.964 46.616 250.592 47.2249C251.219 47.8338 251.96 48.2992 252.766 48.5915C253.573 48.8839 254.429 48.9971 255.279 48.9237H277.828C278.772 48.9011 279.67 48.4897 280.329 47.778C280.988 47.0663 281.356 46.1108 281.354 45.1166Z" fill="#F0F0F0"/>
<path d="M183.547 37.0781C183.547 36.4612 183.314 35.8695 182.9 35.4332C182.486 34.997 181.924 34.7519 181.338 34.7519C181.122 34.7515 180.907 34.7856 180.7 34.853C180.734 34.6139 180.75 34.3724 180.748 34.1306C180.748 32.8239 180.255 31.5707 179.378 30.6468C178.5 29.7228 177.31 29.2037 176.069 29.2037C175.779 29.2032 175.49 29.2322 175.205 29.2904C174.733 28.5129 174.037 27.9144 173.22 27.5821C172.402 27.2498 171.505 27.201 170.659 27.4428C169.813 27.6846 169.063 28.2044 168.517 28.9266C167.971 29.6487 167.659 30.5354 167.625 31.4577H167.556C166.556 31.4577 165.596 31.8763 164.888 32.6214C164.181 33.3666 163.783 34.3772 163.783 35.431C163.783 36.4848 164.181 37.4954 164.888 38.2406C165.596 38.9857 166.556 39.4043 167.556 39.4043H181.4C181.974 39.3856 182.519 39.1325 182.92 38.6984C183.321 38.2644 183.545 37.6834 183.547 37.0781Z" fill="#F0F0F0"/>
</svg>
