<svg xmlns="http://www.w3.org/2000/svg" viewBox="0 0 500 500"><g id="freepik--background-complete--inject-31"><rect y="382.4" width="500" height="0.25" style="fill:#ebebeb"></rect><rect x="416.78" y="398.49" width="33.12" height="0.25" style="fill:#ebebeb"></rect><rect x="322.53" y="401.21" width="8.69" height="0.25" style="fill:#ebebeb"></rect><rect x="396.59" y="389.21" width="19.19" height="0.25" style="fill:#ebebeb"></rect><rect x="52.46" y="390.89" width="43.19" height="0.25" style="fill:#ebebeb"></rect><rect x="104.56" y="390.89" width="6.33" height="0.25" style="fill:#ebebeb"></rect><rect x="131.47" y="395.11" width="93.68" height="0.25" style="fill:#ebebeb"></rect><path d="M237,337.8H43.91a5.71,5.71,0,0,1-5.7-5.71V60.66A5.71,5.71,0,0,1,43.91,55H237a5.71,5.71,0,0,1,5.71,5.71V332.09A5.71,5.71,0,0,1,237,337.8ZM43.91,55.2a5.46,5.46,0,0,0-5.45,5.46V332.09a5.46,5.46,0,0,0,5.45,5.46H237a5.47,5.47,0,0,0,5.46-5.46V60.66A5.47,5.47,0,0,0,237,55.2Z" style="fill:#ebebeb"></path><path d="M453.31,337.8H260.21a5.72,5.72,0,0,1-5.71-5.71V60.66A5.72,5.72,0,0,1,260.21,55h193.1A5.71,5.71,0,0,1,459,60.66V332.09A5.71,5.71,0,0,1,453.31,337.8ZM260.21,55.2a5.47,5.47,0,0,0-5.46,5.46V332.09a5.47,5.47,0,0,0,5.46,5.46h193.1a5.47,5.47,0,0,0,5.46-5.46V60.66a5.47,5.47,0,0,0-5.46-5.46Z" style="fill:#ebebeb"></path><rect x="277.77" y="100.22" width="150.75" height="133.77" style="fill:#e6e6e6"></rect><rect x="281.54" y="103.89" width="143.01" height="126.51" style="fill:#f0f0f0"></rect><polygon points="315.11 103.89 281.54 230.12 281.54 170.8 299.26 103.89 315.11 103.89" style="fill:#fff"></polygon><polygon points="326.99 103.89 293.14 230.4 287.73 230.4 321.59 103.89 326.99 103.89" style="fill:#fff"></polygon><polygon points="424.55 183.71 424.55 203.93 417.7 230.4 412.3 230.4 424.55 183.71" style="fill:#fff"></polygon><rect x="329.01" y="101.61" width="2.41" height="131.61" style="fill:#e6e6e6"></rect><rect x="375.7" y="101.61" width="2.41" height="131.61" style="fill:#e6e6e6"></rect><rect x="67.57" y="122.07" width="95.98" height="260.37" transform="translate(231.11 504.51) rotate(180)" style="fill:#f5f5f5"></rect><rect x="72.82" y="127.79" width="85.47" height="42.47" transform="translate(231.11 298.05) rotate(180)" style="fill:#ebebeb"></rect><rect x="121.17" y="143.83" width="26.43" height="26.43" transform="translate(268.78 314.09) rotate(180)" style="fill:#f0f0f0"></rect><rect x="92.87" y="151.45" width="18.81" height="18.81" transform="translate(204.55 321.71) rotate(180)" style="fill:#f0f0f0"></rect><rect x="72.82" y="174.72" width="85.47" height="42.47" transform="translate(231.11 391.9) rotate(180)" style="fill:#ebebeb"></rect><rect x="134.88" y="190.76" width="12.72" height="26.43" transform="translate(282.48 407.94) rotate(180)" style="fill:#f0f0f0"></rect><rect x="92.87" y="206.35" width="28.3" height="10.83" transform="translate(214.04 423.54) rotate(180)" style="fill:#f0f0f0"></rect><rect x="99.07" y="190.19" width="27.48" height="16.16" transform="translate(225.62 396.55) rotate(180)" style="fill:#f0f0f0"></rect><rect x="72.82" y="221.64" width="85.47" height="42.47" transform="translate(231.11 485.76) rotate(180)" style="fill:#ebebeb"></rect><rect x="121.17" y="237.68" width="5.38" height="26.43" transform="translate(247.72 501.8) rotate(180)" style="fill:#f0f0f0"></rect><rect x="78.68" y="228.34" width="33" height="35.77" transform="translate(190.36 492.46) rotate(180)" style="fill:#f0f0f0"></rect><rect x="72.82" y="268.57" width="85.47" height="42.47" transform="translate(231.11 579.61) rotate(180)" style="fill:#ebebeb"></rect><rect x="121.17" y="284.61" width="26.43" height="26.43" transform="translate(268.78 595.65) rotate(180)" style="fill:#f0f0f0"></rect><rect x="92.87" y="292.23" width="18.81" height="18.81" transform="translate(204.55 603.27) rotate(180)" style="fill:#f0f0f0"></rect><rect x="72.82" y="315.5" width="85.47" height="42.47" transform="translate(231.11 673.46) rotate(180)" style="fill:#ebebeb"></rect><rect x="121.17" y="331.54" width="26.43" height="26.43" transform="translate(268.78 689.5) rotate(180)" style="fill:#f0f0f0"></rect><rect x="92.87" y="339.15" width="18.81" height="18.81" transform="translate(204.55 697.12) rotate(180)" style="fill:#f0f0f0"></rect><rect x="121.17" y="108.98" width="28.95" height="13.09" transform="translate(271.3 231.05) rotate(180)" style="fill:#f0f0f0"></rect><rect x="95.18" y="115.52" width="14.9" height="6.55" transform="translate(205.26 237.6) rotate(180)" style="fill:#f0f0f0"></rect><polygon points="186.61 165.34 235.56 165.34 234.81 158.73 185.86 158.73 186.61 165.34" style="fill:#f5f5f5"></polygon><polygon points="190.11 196.28 239.06 196.28 238.31 189.66 189.36 189.66 190.11 196.28" style="fill:#f5f5f5"></polygon><polygon points="193.62 227.22 242.57 227.22 241.82 220.6 192.87 220.6 193.62 227.22" style="fill:#f5f5f5"></polygon><polygon points="197.12 258.15 246.07 258.15 245.32 251.53 196.37 251.53 197.12 258.15" style="fill:#f5f5f5"></polygon><polygon points="200.63 289.09 249.58 289.09 248.83 282.47 199.88 282.47 200.63 289.09" style="fill:#f5f5f5"></polygon><polygon points="204.13 320.02 253.08 320.02 252.33 313.41 203.38 313.41 204.13 320.02" style="fill:#f5f5f5"></polygon><polygon points="207.64 350.96 256.59 350.96 255.84 344.35 206.89 344.35 207.64 350.96" style="fill:#f5f5f5"></polygon><polygon points="256.79 382.44 264.45 382.44 237.61 145.56 229.95 145.56 256.79 382.44" style="fill:#ebebeb"></polygon><polygon points="206.91 382.44 214.57 382.44 187.74 145.56 180.07 145.56 206.91 382.44" style="fill:#ebebeb"></polygon><rect x="333.97" y="307.9" width="83.12" height="74.54" style="fill:#ebebeb"></rect><rect x="333.97" y="307.9" width="28.93" height="74.54" style="fill:#e0e0e0"></rect><rect x="350.51" y="248.76" width="83.12" height="60.68" style="fill:#f5f5f5"></rect><rect x="350.51" y="248.76" width="28.93" height="60.68" style="fill:#ebebeb"></rect><rect x="333.97" y="219.05" width="80.15" height="29.7" style="fill:#fafafa"></rect><rect x="333.97" y="219.05" width="27.9" height="29.7" style="fill:#f0f0f0"></rect></g><g id="freepik--Shadow--inject-31"><ellipse id="freepik--path--inject-31" cx="250" cy="416.24" rx="193.89" ry="11.32" style="fill:#f5f5f5"></ellipse></g><g id="freepik--speech-bubble--inject-31"><path d="M307.45,119.67h28.73a8.85,8.85,0,0,1,8.85,8.85v25a8.85,8.85,0,0,1-8.85,8.85h-6.36l1,7.89-7-7.89H307.45a8.84,8.84,0,0,1-8.84-8.85v-25A8.84,8.84,0,0,1,307.45,119.67Z" style="fill:#407BFF"></path><path d="M307.45,119.67h28.73a8.85,8.85,0,0,1,8.85,8.85v25a8.85,8.85,0,0,1-8.85,8.85h-6.36l1,7.89-7-7.89H307.45a8.84,8.84,0,0,1-8.84-8.85v-25A8.84,8.84,0,0,1,307.45,119.67Z" style="fill:#fff;opacity:0.7000000000000001"></path><path d="M321.82,136c-5.77-6-12.24-3.52-12.24,2.32s12.24,13.93,12.24,13.93,12.24-8.08,12.24-13.93S327.59,130,321.82,136Z" style="fill:#407BFF"></path></g><g id="freepik--character-2--inject-31"><path d="M296.83,230.92l-7.16-3.28-.75,7.53s7.21,2,8.27-.08Z" style="fill:#eec1bb"></path><polygon points="283.23 230.5 284.06 235.87 288.92 235.17 289.67 227.64 283.23 230.5" style="fill:#eec1bb"></polygon><path d="M337.67,214.82s-12.39,11.36-15.7,13S295.49,230,295.49,230l.86,6.68s21.48,2.46,28.15.71c6.52-1.71,17.4-10.82,17.4-10.82Z" style="fill:#263238"></path><path d="M341.9,226.52l-.7.58c-1,.83-3.14,2.49-5.64,4.25-3.51,2.48-7.83,5.14-11.05,6-6.69,1.75-28.16-.71-28.16-.71l-.86-6.68s23.13-.37,26.48-2.09,15.69-13,15.69-13l2.72,7.49.93,2.56Z" style="fill:#fff;opacity:0.2"></path><path d="M341.31,224.88a11.8,11.8,0,0,1-.11,2.22c-1,.83-3.14,2.49-5.64,4.25.62-4,3.79-7.88,4.82-9,.2-.23.32-.35.32-.35A8.59,8.59,0,0,1,341.31,224.88Z" style="opacity:0.2"></path><path d="M381.11,259.38s-.45,7.76-4.24,21.36a215.84,215.84,0,0,1-8.64,24.71c-1.89,4.55-4.06,9.38-6.55,14.46-1.12,2.31-2.32,4.66-3.58,7.07-1.45,41.16-24.55,83-24.55,83-1.28.66-5.75-.06-5.72-1.36,3.42-5.43,10.15-58.17,14.49-83.19.27-3.4.66-7,1.14-10.81,1.27-10.1,3.15-21.08,5-30.74,2.87-15.22,5.6-27.15,5.6-27.15l7.61.74Z" style="fill:#eec1bb"></path><path d="M390.19,316.36h0q-.92,6.64-2.37,14.21c8.25,27.53-8.72,81.26-8.72,81.26-2.87.57-5.41.2-6.7-.77,3.2-16.19.9-58.28-1.59-83.43-.22-2.28-.5-4.79-.8-7.47-.51-4.54-1.12-9.54-1.77-14.71-1.1-8.65-2.33-17.75-3.44-25.82-1.36-9.75-2.54-18-3.15-22.15-.25-1.82-.4-2.85-.4-2.85l23.82,2.58s6.06,6.79,7,28A173.45,173.45,0,0,1,390.19,316.36Z" style="fill:#eec1bb"></path><path d="M390.19,316.36h0a73.86,73.86,0,0,1-20.18,3.8c-.51-4.54-1.12-9.54-1.77-14.71-1.89,4.55-4.06,9.38-6.55,14.46a49.83,49.83,0,0,1-18.22-5.28c1.27-10.1,3.15-21.08,5-30.74a29.82,29.82,0,0,1,8.1-3.27,36,36,0,0,1,8.26-1,63.14,63.14,0,0,1,12.08,1.11A76.15,76.15,0,0,1,392,285.21,173.45,173.45,0,0,1,390.19,316.36Z" style="opacity:0.2"></path><path d="M379.69,418.86h-1.33l-.37-1.64-4.39,2H362.46s-1.77-1.78,3.54-3.19a4.42,4.42,0,0,0,.75-.29c2.82-1.33,6.85-5.81,6.85-5.81h6.11a8.61,8.61,0,0,1,.5.89C380.88,412.14,382,415,379.69,418.86Z" style="fill:#263238"></path><path d="M380.21,410.8h0c-.81-.9-4.48,3.05-7.17,4.4-2.4,1.19-5.1,1.72-6.29.51,2.82-1.33,7.27-7.12,7.27-7.12h4.91S379.92,410.22,380.21,410.8Z" style="fill:#ffc2bc"></path><path d="M333.3,418.86H332l-.37-1.64-4.4,2H316.08s-1.77-1.78,3.53-3.19a4.42,4.42,0,0,0,.75-.29c2.83-1.33,6.85-5.81,6.85-5.81h6.11a6.76,6.76,0,0,1,.5.89C334.49,412.14,335.64,415,333.3,418.86Z" style="fill:#263238"></path><path d="M333.82,410.8h0c-.8-.9-4.47,3.05-7.16,4.4-2.4,1.19-5.1,1.72-6.3.51,2.83-1.33,7.28-7.12,7.28-7.12h4.91S333.54,410.22,333.82,410.8Z" style="fill:#ffc2bc"></path><path d="M353.6,254.63h31.63l.86,4.08s11.62,16.08,5.73,56.18c0,0-25.45,2.94-49.42-2.2,0,0,5.38-41.2,11-54.65Z" style="fill:#263238"></path><path d="M365.36,249.79a.61.61,0,0,1-.61.62.62.62,0,0,1,0-1.24A.61.61,0,0,1,365.36,249.79Z" style="fill:#fff;isolation:isolate;opacity:0.6000000000000001"></path><path d="M337.11,193.42a31.21,31.21,0,0,1,2.54,8.1s17-2.86,20.05-7.13-.87-22.76-10.24-21.71S331.57,183,337.11,193.42Z" style="fill:#263238"></path><path d="M362.7,204.22s-14.25,13.65-15.2,5.56c0,0-6.24,1.9-9.54,5.68,0,0,.75,10.93,11.76,37.48l-1.59,11.75,10.94,1.88,3.28-9.61,7.15,7.83,16.65-10.87-6.7-9.07s-5.58-24-3.66-36.31C375.79,208.54,372.51,201,362.7,204.22Z" style="fill:#407BFF"></path><path d="M362.7,204.22s-14.25,13.65-15.2,5.56c0,0-6.24,1.9-9.54,5.68,0,0,1.22,11.67,11.76,37.48l-1.59,11.75,10.94,1.88,3.28-9.61,7.15,7.83,16.65-10.87-6.7-9.07s-5.58-24-3.66-36.31C375.79,208.54,372.51,201,362.7,204.22Z" style="fill:#fff;opacity:0.7000000000000001"></path><path d="M357.08,190c.19,4.68,1.24,13,4.94,15,0,0,4.79,1.86-6.69,5.09-.25,2.67-2.4,8.91-2.4,8.91s-3.24-4.25-3-6.23c-7.52,1.67-1.31-3.56-1.31-3.56,4.53-2.69,3.55-6.3,1.91-9.46Z" style="fill:#eec1bb"></path><path d="M354.42,194l-3.87,5.77a14,14,0,0,1,1,2.31c1.77-.85,3.81-3.7,3.54-5.73A6.81,6.81,0,0,0,354.42,194Z" style="opacity:0.2"></path><path d="M358.05,180.21c.87,7.37,1.4,10.46-1.52,15-4.4,6.9-13.44,6.82-16.45,0-2.71-6.16-3.69-17.17,2.76-21.72A9.51,9.51,0,0,1,358.05,180.21Z" style="fill:#eec1bb"></path><path d="M350.49,177.06c5.39,3.75-.71,11.93,7.08,9.12s1.08-12.94-4.4-14S350.49,177.06,350.49,177.06Z" style="fill:#263238"></path><path d="M347.39,184.83c.1.62-.13,1.19-.52,1.28s-.78-.34-.88-1,.13-1.19.52-1.28S347.29,184.22,347.39,184.83Z" style="fill:#263238"></path><path d="M340.15,186.64c.1.62-.13,1.19-.51,1.28s-.78-.33-.89-.95.14-1.19.52-1.28S340.05,186,340.15,186.64Z" style="fill:#263238"></path><path d="M339.45,185.69l-1.49-.1S338.88,186.58,339.45,185.69Z" style="fill:#263238"></path><path d="M342.34,187.18a18.46,18.46,0,0,1-1.46,4.42,2.5,2.5,0,0,0,2.17-.08Z" style="fill:#d4827d"></path><path d="M347.46,180a.32.32,0,0,1-.27,0,2.67,2.67,0,0,0-2.53-.15.33.33,0,0,1-.46-.16.39.39,0,0,1,.16-.5,3.37,3.37,0,0,1,3.2.16.39.39,0,0,1,.11.51A.43.43,0,0,1,347.46,180Z" style="fill:#263238"></path><path d="M337.49,183.76a.3.3,0,0,1-.26,0,.35.35,0,0,1-.16-.48A3.83,3.83,0,0,1,339.6,181a.34.34,0,0,1,.39.3.39.39,0,0,1-.3.43,3,3,0,0,0-2,1.79A.34.34,0,0,1,337.49,183.76Z" style="fill:#263238"></path><path d="M346.69,183.87l-1.49-.09S346.11,184.76,346.69,183.87Z" style="fill:#263238"></path><path d="M346.58,174.05s3.94,7.77,9.82,7.43-1.62-8.75-1.62-8.75-2.54-4.08-9.9-1.77-13.5,12.45-7.77,22.46a12.46,12.46,0,0,1-.79-6.8C337.07,183.28,339.51,185.19,346.58,174.05Z" style="fill:#263238"></path><path d="M350.89,170.42c8.75.67,13.18,4.88,14.3,10.75s-4,14.05-5.05,14.62l-3.34,1.59s3-9.17,1.2-11.38-2.95-2.13-2.95-2.13Z" style="fill:#263238"></path><path d="M360.83,186.71a5.12,5.12,0,0,1-2.14,3.52c-1.49.94-2.77-.7-2.82-2.72,0-1.82.69-4.51,2.4-4.6S361.13,184.82,360.83,186.71Z" style="fill:#eec1bb"></path><path d="M344.48,193.13a23.7,23.7,0,0,1,2.75,2.26c.17-.12.33-.24.5-.38,2.25-1.73,2.72-3.28,2.56-4.47a3.66,3.66,0,0,0-.67-1.6,3.59,3.59,0,0,0-.67-.73c-.64,1.63-2.61,3.41-3.71,4.31C344.79,192.91,344.48,193.13,344.48,193.13Z" style="fill:#263238"></path><path d="M345.24,192.52l.83.65c2.11-1.64,3.38-3.08,3.55-4.23a3.59,3.59,0,0,0-.67-.73C348.31,189.84,346.34,191.62,345.24,192.52Z" style="fill:#fff"></path><path d="M347.73,195c2.25-1.73,2.72-3.28,2.56-4.47a9.12,9.12,0,0,0-2.12,2.42A3.39,3.39,0,0,0,347.73,195Z" style="fill:#de5753"></path><path d="M397.6,269.19l-10.13,4.11S371.75,251.08,367,241.62c-.33-.64-.6-1.22-.81-1.73a25.13,25.13,0,0,1-.86-2.51h0a54,54,0,0,1-1.38-7c-1.29-9.64-1-22,1.65-26.7,0,0,3.61-.46,4.95-.48s5.23.26,5.23.26c-.4,2.54-.22,7,.23,12.06.42,4.65,1.07,9.82,1.72,14.48,1.1,7.84,2.21,14.22,2.21,14.22C390.23,254.51,397.6,269.19,397.6,269.19Z" style="fill:#263238"></path><path d="M397.6,269.19l-10.13,4.11S371.75,251.08,367,241.62c-.33-.64-.6-1.22-.81-1.73a25.13,25.13,0,0,1-.86-2.51h0a54,54,0,0,1-1.38-7c-1.29-9.64-1-22,1.65-26.7,0,0,3.61-.46,4.95-.48s5.23.26,5.23.26c-.4,2.54-.22,7,.23,12.06.42,4.65,1.07,9.82,1.72,14.48,1.1,7.84,2.21,14.22,2.21,14.22C390.23,254.51,397.6,269.19,397.6,269.19Z" style="fill:#fff;opacity:0.2"></path><path d="M363.62,216.64l3.26,4.05-.29,3.64-1.08,13.38-.18-.33h0a35.77,35.77,0,0,1-2.46-6.29c-1.92-6.51-3.24-17,2.73-27.42,0,0,1,4.1,2.76,13Z" style="fill:#263238"></path><path d="M377.73,230c-1.58,3.73-3.49,7.86-4.62,9-1.42,1.38-4.28,2.25-6.11,2.68-.33-.64-.6-1.22-.81-1.73a25.13,25.13,0,0,1-.86-2.51h0a35.77,35.77,0,0,1-2.46-6.29l1-.69,0,0c.65-.5,1.63-3,2.64-6C368.37,219,370.2,212,370.2,212A9.91,9.91,0,0,1,376,215.5C376.43,220.15,377.08,225.32,377.73,230Z" style="opacity:0.2"></path><path d="M352.46,250.89l-2.79,27.44-4.15,1.3,3.63-27.7s-.76-1.3-1.89-3.52-2.54-5.16-4-8.7c-2.88-7.1-5.72-16.31-5.67-24.88a26.31,26.31,0,0,1,6.5-3.87l0,0c.44-.18.9-.34,1.36-.49,0,0-2,8.87,3,27.67.06.23.12.48.19.72l0,.1c.68,2.48,1.47,5.13,2.41,8Q351.73,248.83,352.46,250.89Z" style="fill:#263238"></path><path d="M352.46,250.89l-2.79,27.44-4.15,1.3,3.63-27.7s-.76-1.3-1.89-3.52-2.54-5.16-4-8.7c-2.88-7.1-5.72-16.31-5.67-24.88a26.31,26.31,0,0,1,6.5-3.87l0,0c.44-.18.9-.34,1.36-.49,0,0-2,8.87,3,27.67.06.23.12.48.19.72l0,.1c.68,2.48,1.47,5.13,2.41,8Q351.73,248.83,352.46,250.89Z" style="fill:#fff;opacity:0.2"></path><path d="M348.67,238.94l-.41-.75-6.71-12.35,1.54-3-3.3,3.59s1.63-13.29,3.55-14.87a7.74,7.74,0,0,1,.77-.56l0,0a3.4,3.4,0,0,1,2.27-.77c-2.3,2.4,1.31,23.44,2.12,27.93.06.35.11.6.13.74Z" style="fill:#263238"></path><path d="M351.08,246.9c-1,.43-2.49,1-3.82,1.51-1.1-2.15-2.54-5.16-4-8.7,1.26-.33,3-.83,5-1.52l.2-.07.06,0c.06.35.11.6.13.74l0,.1C349.35,241.42,350.14,244.07,351.08,246.9Z" style="opacity:0.2"></path><path d="M351.56,206.4s-2.94,3.8-1.62,6.4L344,216.39S345.78,208.72,351.56,206.4Z" style="fill:#407BFF"></path><path d="M365.51,210.9l-9.87-.1s3.54-5.31,4.37-7.85l3.66,1.3h0C363.8,204.4,365.36,206.3,365.51,210.9Z" style="fill:#407BFF"></path><path d="M351.56,206.4s-2.94,3.8-1.62,6.4L344,216.39S345.78,208.72,351.56,206.4Z" style="fill:#fff;opacity:0.6000000000000001"></path><path d="M365.51,210.9l-9.87-.1s3.54-5.31,4.37-7.85l3.66,1.3h0C363.8,204.4,365.36,206.3,365.51,210.9Z" style="fill:#fff;opacity:0.6000000000000001"></path><path d="M347.27,241.52l-7.87-.12,2.34,7.2s7.4-1.07,7.53-3.41Z" style="fill:#eec1bb"></path><polygon points="334.65 246.62 337.58 251.2 341.74 248.6 339.39 241.4 334.65 246.62" style="fill:#eec1bb"></polygon><path d="M375.78,203.44c8,5-2.71,33.19-4.85,34.79S349,246.67,349,246.67l-4.36-5.95s19.4-9.33,20.86-10.22,5-20.05,5-20.05Z" style="fill:#263238"></path><path d="M375.78,203.44c8,5-2.71,33.19-4.85,34.79S349,246.67,349,246.67l-4.36-5.95s19.4-9.33,20.86-10.22,5-20.05,5-20.05Z" style="fill:#fff;opacity:0.2"></path></g><g id="freepik--character-1--inject-31"><polygon points="171.61 412.61 179.49 414.27 187.91 400.43 180.03 398.76 171.61 412.61" style="fill:#eec1bb"></polygon><path d="M181.08,410.94h-8.82a.63.63,0,0,0-.62.5l-1.43,6.46a1.07,1.07,0,0,0,.82,1.27l.24,0c2.85-.05,4.93-.23,8.52-.23,2.21,0,8.87.23,11.91.23s3.45-3,2.2-3.28c-5.6-1.22-9.81-2.91-11.6-4.52A1.72,1.72,0,0,0,181.08,410.94Z" style="fill:#263238"></path><path d="M181.58,411.94a.16.16,0,0,1-.13-.14.16.16,0,0,1,.08-.17c.26-.17,2.61-1.61,3.41-1.19a.52.52,0,0,1,.3.48,1,1,0,0,1-.36.92,2.17,2.17,0,0,1-1.4.37A8.71,8.71,0,0,1,181.58,411.94Zm.5-.24a3.52,3.52,0,0,0,2.59-.13.71.71,0,0,0,.23-.62c0-.13-.07-.2-.11-.2a.45.45,0,0,0-.23,0A7.21,7.21,0,0,0,182.08,411.7Z" style="fill:#407BFF"></path><path d="M181.53,412a.18.18,0,0,1-.08-.16c0-.1.19-2.19,1-2.87a.88.88,0,0,1,.73-.22.57.57,0,0,1,.55.45c.15.77-1.3,2.37-2,2.77h-.08A.17.17,0,0,1,181.53,412Zm1.17-2.83a4.13,4.13,0,0,0-.86,2.28c.75-.57,1.67-1.78,1.58-2.25,0,0,0-.17-.25-.17h-.08A.58.58,0,0,0,182.7,409.15Z" style="fill:#407BFF"></path><polygon points="180.03 398.76 187.91 400.43 183.56 407.57 175.68 405.9 180.03 398.76" style="isolation:isolate;opacity:0.2"></polygon><path d="M145.56,365.71c.43,0,5.22,0,5.67-.08a128.93,128.93,0,0,0,25.45-5.23c7.43-2.24,12.57-4.32,12.57-4.32C191,365.93,175,403.71,175,403.71l13.05.81s36.49-53.83,20.94-70.61c-11.61-12.52-46.11,1.08-46.11,1.08l-3.23-7.38-34.88,4S115.2,367.33,145.56,365.71Z" style="fill:#263238"></path><path d="M145.56,365.71c.43,0,5.22,0,5.67-.08a128.93,128.93,0,0,0,25.45-5.23c7.43-2.24,12.57-4.32,12.57-4.32C191,365.93,175,403.71,175,403.71l13.05.81s36.49-53.83,20.94-70.61c-11.61-12.52-46.11,1.08-46.11,1.08l-3.23-7.38-34.88,4S115.2,367.33,145.56,365.71Z" style="fill:#fff;isolation:isolate;opacity:0.2"></path><polygon points="187.4 406.06 174.39 403.98 175.64 400.44 189.79 403.39 187.4 406.06" style="fill:#407BFF"></polygon><path d="M149.92,365.71l1.31-.08a128.93,128.93,0,0,0,25.45-5.23C164.05,358.08,152,349,152,349Z" style="isolation:isolate;opacity:0.2"></path><polygon points="83.24 397.85 82.56 405.07 99.25 407.25 99.93 400.01 83.24 397.85" style="fill:#eec1bb"></polygon><path d="M83.3,406.16l.83-8.79a.65.65,0,0,0-.44-.66l-6.3-2a1.08,1.08,0,0,0-1.35.7,2.23,2.23,0,0,0,0,.23c-.22,2.85-.24,4.94-.58,8.5-.21,2.2-1.06,8.81-1.34,11.85s2.67,3.71,3.06,2.49C78.88,413,81,409,82.73,407.33A1.79,1.79,0,0,0,83.3,406.16Z" style="fill:#263238"></path><path d="M82.25,406.56a.18.18,0,0,1,.16-.12.18.18,0,0,1,.16.1c.14.27,1.36,2.75.87,3.51a.55.55,0,0,1-.51.25,1.05,1.05,0,0,1-.89-.45,2.19,2.19,0,0,1-.23-1.42A9.09,9.09,0,0,1,82.25,406.56Zm.2.52a3.49,3.49,0,0,0-.12,2.58.7.7,0,0,0,.6.29c.13,0,.2,0,.21-.09a.52.52,0,0,0,.07-.22A7.21,7.21,0,0,0,82.45,407.08Z" style="fill:#407BFF"></path><path d="M82.22,406.51a.17.17,0,0,1,.16-.07c.1,0,2.17.39,2.77,1.29a1,1,0,0,1,.15.75.56.56,0,0,1-.5.51c-.78.07-2.23-1.52-2.57-2.3v-.09A.15.15,0,0,1,82.22,406.51Zm2.71,1.42a4.15,4.15,0,0,0-2.19-1.07c.49.8,1.61,1.83,2.09,1.79,0,0,.18,0,.2-.24v-.08A.64.64,0,0,0,84.93,407.93Z" style="fill:#407BFF"></path><polygon points="99.92 400.01 99.24 407.25 90.64 406.12 91.32 398.88 99.92 400.01" style="isolation:isolate;opacity:0.2"></polygon><path d="M154.19,340c2.65,3.93,13.94,63.3-2,74.61-11.72,8.31-58.81-5.46-58.81-5.46l.82-12s39.64,4.75,43.34,1.54-13.09-43.81-14-51.67S154.19,340,154.19,340Z" style="fill:#263238"></path><polygon points="187.4 406.06 174.39 403.98 175.64 400.44 189.79 403.39 187.4 406.06" style="fill:#fff;opacity:0.5"></polygon><path d="M154.19,340c2.65,3.93,13.94,63.3-2,74.61-11.72,8.31-58.81-5.46-58.81-5.46l.82-12s39.64,4.75,43.34,1.54-13.09-43.81-14-51.67S154.19,340,154.19,340Z" style="fill:#fff;isolation:isolate;opacity:0.2"></path><polygon points="95.84 396.2 94.87 410.71 91.23 409.79 92.87 395.42 95.84 396.2" style="fill:#407BFF"></polygon><polygon points="95.84 396.2 94.87 410.71 91.23 409.79 92.87 395.42 95.84 396.2" style="fill:#fff;opacity:0.5"></polygon><path d="M142.44,268.8c4.86-.56,9.76-1,14.63-1.52s9.78-.94,14.48-1.54c1,0,2.74-1,4.41-2.36,5.33-4.45,9.83-10.2,14.19-15.72l4,2.39a84.71,84.71,0,0,1-7.75,13.16c-3.28,4.31-7.22,9.37-12.84,10.83-5.16,1.1-10.25,1.84-15.43,2.52-4.92.66-9.83,1.23-14.78,1.65l-.93-9.41Z" style="fill:#ebc0bb"></path><path d="M139.59,283.41c5.76,3.63,26.69-4,26.69-4l-3.63-12.89a70.64,70.64,0,0,0-18.11,1.67C135.54,270.5,133.18,279.37,139.59,283.41Z" style="fill:#407BFF"></path><path d="M139.59,283.41c5.76,3.63,26.69-4,26.69-4l-3.63-12.89a70.64,70.64,0,0,0-18.11,1.67C135.54,270.5,133.18,279.37,139.59,283.41Z" style="fill:#fff;opacity:0.2"></path><path d="M140.32,283.79c-.67-3,1.11-5.83,6.94-7.73a56.34,56.34,0,0,1,17.48-2.1l1.54,5.49S146.88,286.57,140.32,283.79Z" style="opacity:0.1"></path><path d="M187.19,252l3.45-9.57,7.77,4.32s-1.47,7-7.31,8Z" style="fill:#eec1bb"></path><polygon points="196 237.56 201.03 242.17 198.41 246.74 190.64 242.42 196 237.56" style="fill:#eec1bb"></polygon><path d="M147.27,268.26s12.75,19.28,13.37,60.15l-37.27,8c-1.49-5.67-3.9-34.35-15.21-60.12A98.55,98.55,0,0,1,120.3,272a140.92,140.92,0,0,1,15.84-3.41A71.9,71.9,0,0,1,147.27,268.26Z" style="fill:#407BFF"></path><path d="M160.64,328.41l-37.27,8c-.93-3.55-2.23-16.12-5.84-31.36-1-4.06-2.09-8.33-3.43-12.65a154.13,154.13,0,0,0-5.94-16.11A98.78,98.78,0,0,1,120.29,272a139.35,139.35,0,0,1,15.85-3.41,72,72,0,0,1,11.14-.37S160,287.54,160.64,328.41Z" style="fill:#fff;opacity:0.2"></path><path d="M120,253.44c1.81,5,4.27,14.29,1.2,18.28,5.26,1.34,9,2.2,13.81,5.32,1-3.39,2.21-7.79,2.21-7.79-6-.48-6.47-4.77-6.09-8.93Z" style="fill:#eec1bb"></path><path d="M124.58,256.25l6.58,4.07a16.81,16.81,0,0,0,0,2.92c-2.24,0-5.63-1.93-6.22-4.19A8,8,0,0,1,124.58,256.25Z" style="opacity:0.2"></path><polygon points="115.67 273.44 118.51 269.31 128.79 270.51 134.37 276.03 134.51 269.18 136.25 266.76 140.54 268.25 140.85 272.51 137.82 271.76 135.69 277.89 127.36 275.16 125.72 277.59 115.67 273.44" style="fill:#263238"></polygon><polygon points="115.67 273.44 118.51 269.31 128.79 270.51 134.37 276.03 134.51 269.18 136.25 266.76 140.54 268.25 140.85 272.51 137.82 271.76 135.69 277.89 127.36 275.16 125.72 277.59 115.67 273.44" style="fill:#fff;opacity:0.30000000000000004"></polygon><polygon points="135.69 277.89 136.15 270.71 140.85 272.51 137.82 271.76 135.69 277.89" style="opacity:0.1"></polygon><polygon points="135.69 277.89 127.79 272.93 125.72 277.59 127.36 275.16 135.69 277.89" style="opacity:0.1"></polygon><path d="M117.53,305.06c-1-4.06-2.09-8.33-3.43-12.65a7.92,7.92,0,0,1,4.64-3.18S120.5,299.11,117.53,305.06Z" style="opacity:0.1"></path><path d="M114.1,284.16c-.83,9-2.22,18.45-1.53,27.49.06.41.14.88.19,1.1a1.13,1.13,0,0,0-.29-.3c-.12-.08-.16,0,0,0,1,.55,3.23.44,4.67.31a81.78,81.78,0,0,0,12.62-2.67l1.92,4.27A51.58,51.58,0,0,1,118.4,320c-13.64,3.13-15-4.81-15.12-16.2A149.06,149.06,0,0,1,104.73,283l9.37,1.21Z" style="fill:#ebc0bb"></path><path d="M108.16,276.3c-9.8,5-7.38,29.06-7.38,29.06l13.84-.05a124.39,124.39,0,0,0,5-19C121,277.15,114.67,273,108.16,276.3Z" style="fill:#407BFF"></path><path d="M108.16,276.3c-9.8,5-7.38,29.06-7.38,29.06l13.84-.05a124.39,124.39,0,0,0,5-19C121,277.15,114.67,273,108.16,276.3Z" style="fill:#fff;opacity:0.2"></path><path d="M126.86,310.83l7.26-7.12,5.13,7.26s-4.37,5.69-10.06,4Z" style="fill:#eec1bb"></path><polygon points="141.06 301.66 143.59 307.99 139.25 310.97 134.12 303.71 141.06 301.66" style="fill:#eec1bb"></polygon><path d="M132.52,233.72c3.71,1.21,6.79,10.94,2.53,13.58S125.49,231.44,132.52,233.72Z" style="fill:#263238"></path><path d="M117.6,246.28c2.29,6.8,3.28,10.89,7.75,13.61a9.33,9.33,0,0,0,14.26-8.34c-.18-6.55-3.9-16.57-11.45-17.73A9.44,9.44,0,0,0,117.6,246.28Z" style="fill:#eec1bb"></path><path d="M124.24,237l-1.13-6c-14-2.85-18.31,11-11.52,18.31,3.56,3.83,7.25,5.28,9.35,3.13,2-1.27,1.42-8.5.41-11.08C119.83,237.43,124.24,237,124.24,237Z" style="fill:#263238"></path><path d="M116.8,253.73a7.66,7.66,0,0,0,4.72,2.14c2.24.13,2.5-2,1.17-3.8-1.2-1.66-3.82-3.73-5.72-3S115.18,252.18,116.8,253.73Z" style="fill:#eec1bb"></path><path d="M128.67,245.75c.15.56.58.95,1,.86s.54-.61.39-1.17-.57-.95-.94-.86S128.52,245.19,128.67,245.75Z" style="fill:#263238"></path><path d="M135.07,244.26c.16.56.58.94,1,.86s.55-.62.39-1.18-.57-.94-.94-.86S134.92,243.69,135.07,244.26Z" style="fill:#263238"></path><path d="M133.11,245a21.81,21.81,0,0,0,4,4.17,3.29,3.29,0,0,1-2.57,1.14Z" style="fill:#d4827d"></path><path d="M126.14,244.16a.32.32,0,0,1-.17,0,.35.35,0,0,1-.19-.45,3.29,3.29,0,0,1,2.35-2,.33.33,0,0,1,.39.28.33.33,0,0,1-.28.39,2.62,2.62,0,0,0-1.83,1.59A.32.32,0,0,1,126.14,244.16Z" style="fill:#263238"></path><path d="M137.24,241.43a.34.34,0,0,1-.3-.12,2.87,2.87,0,0,0-2.29-1.06.34.34,0,0,1-.38-.3.35.35,0,0,1,.31-.38h0a3.58,3.58,0,0,1,2.88,1.3.35.35,0,0,1,0,.48A.33.33,0,0,1,137.24,241.43Z" style="fill:#263238"></path><path d="M112.7,234.07c-1,4.35,10.44,7.37,18.28,4.15a6.34,6.34,0,0,1-2.4-.54s7.24-.69,8.54-6.1l-1.22,1s1-4.48-1.58-6.83l-.14,1.45s-3.59-3.08-7.75-1.25l1.64.49S114.52,226.41,112.7,234.07Z" style="fill:#263238"></path><path d="M136.09,252.17a46,46,0,0,0-8.82-.4c.79,1.94,2.24,3.51,5.56,3.43A3,3,0,0,0,136.09,252.17Z" style="fill:#263238"></path><path d="M131.27,253.69a6.05,6.05,0,0,1,3.63.89,3.49,3.49,0,0,1-2.07.62,6,6,0,0,1-3.62-.89A3.45,3.45,0,0,1,131.27,253.69Z" style="fill:#a02724"></path><path d="M135.79,252.12c-.18.42-.35.84-1,1a33.69,33.69,0,0,1-5.75-.4,1.85,1.85,0,0,1-1.49-.93A52.66,52.66,0,0,1,135.79,252.12Z" style="fill:#fff"></path></g><g id="freepik--light-bulb--inject-31"><path d="M208.6,241.78c0,3.33-4.63,6-10.26,5.91s-10.15-2.81-10.11-6.14,4.63-6,10.25-5.9S208.64,238.46,208.6,241.78Z" style="fill:#263238"></path><path d="M213,230.8a3,3,0,0,0,.93-2c0-3.26-6.87-6-15.43-6.08s-15.53,2.47-15.57,5.73a3,3,0,0,0,.89,2,2.4,2.4,0,0,0-.27,1,2.83,2.83,0,0,0,.91,2,2.28,2.28,0,0,0-.29,1.06,2.77,2.77,0,0,0,.94,2,2.12,2.12,0,0,0-.32,1.08,2.72,2.72,0,0,0,1,1.94,2.11,2.11,0,0,0-.34,1.09c0,2.71,5.71,5,12.83,5.06s12.91-2,12.94-4.77a2.08,2.08,0,0,0-.32-1.1,2.7,2.7,0,0,0,1-1.92,2.24,2.24,0,0,0-.29-1.08,2.83,2.83,0,0,0,1-1.94,2.33,2.33,0,0,0-.27-1.07,2.86,2.86,0,0,0,1-1.95A2.44,2.44,0,0,0,213,230.8Z" style="fill:#263238"></path><path d="M213,230.8a3,3,0,0,0,.93-2c0-3.26-6.87-6-15.43-6.08s-15.53,2.47-15.57,5.73a3,3,0,0,0,.89,2,2.4,2.4,0,0,0-.27,1,2.83,2.83,0,0,0,.91,2,2.28,2.28,0,0,0-.29,1.06,2.77,2.77,0,0,0,.94,2,2.12,2.12,0,0,0-.32,1.08,2.72,2.72,0,0,0,1,1.94,2.11,2.11,0,0,0-.34,1.09c0,2.71,5.71,5,12.83,5.06s12.91-2,12.94-4.77a2.08,2.08,0,0,0-.32-1.1,2.7,2.7,0,0,0,1-1.92,2.24,2.24,0,0,0-.29-1.08,2.83,2.83,0,0,0,1-1.94,2.33,2.33,0,0,0-.27-1.07,2.86,2.86,0,0,0,1-1.95A2.44,2.44,0,0,0,213,230.8Z" style="fill:#fff;opacity:0.30000000000000004"></path><path d="M225.84,202a27.43,27.43,0,1,0-45.06,20.69,4.51,4.51,0,0,1,1.62,3.92,1.5,1.5,0,0,0,0,.22c0,3.31,7,6.08,15.68,6.18s15.77-2.51,15.81-5.83c0-.07,0-.14,0-.21A4.55,4.55,0,0,1,215.6,223,27.35,27.35,0,0,0,225.84,202Z" style="fill:#407BFF"></path><path d="M225.84,202a27.43,27.43,0,1,0-45.06,20.69,4.51,4.51,0,0,1,1.62,3.92,1.5,1.5,0,0,0,0,.22c0,3.31,7,6.08,15.68,6.18s15.77-2.51,15.81-5.83c0-.07,0-.14,0-.21A4.55,4.55,0,0,1,215.6,223,27.35,27.35,0,0,0,225.84,202Z" style="fill:#fff;opacity:0.7000000000000001"></path><path d="M203,228.47h0a.25.25,0,0,1-.2-.28c.08-.53,2-12.73,8.47-17.15l-4.34,0a.23.23,0,0,1-.22-.15l-1.41-3.41L202,214a.25.25,0,0,1-.22.14.23.23,0,0,1-.21-.14l-3.13-6.73-3.25,5.82c-.05.08-.14.14-.21.12a.24.24,0,0,1-.21-.12l-3.11-5.88-1.49,3.41a.22.22,0,0,1-.23.14l-4.59,0c1.63,1.74,7.56,8.69,7.46,17.37,0,.14-.11.27-.24.24a.24.24,0,0,1-.24-.24c.11-9.8-7.63-17.37-7.71-17.44a.23.23,0,0,1-.06-.26.26.26,0,0,1,.23-.15l5,.05,1.63-3.71a.25.25,0,0,1,.21-.15.25.25,0,0,1,.22.13L195,212.5l3.27-5.85a.26.26,0,0,1,.22-.12.22.22,0,0,1,.2.14l3.12,6.7,3.27-6.63a.23.23,0,0,1,.22-.13.23.23,0,0,1,.21.15l1.55,3.75,5,.06a.24.24,0,0,1,.12.44c-6.81,3.88-8.91,17.12-8.94,17.25A.24.24,0,0,1,203,228.47Z" style="fill:#263238"></path><path d="M212.37,186.07c0,5.34-6.25,9.68-14,9.68s-14-4.34-14-9.68,6.25-9.69,14-9.69S212.37,180.72,212.37,186.07Z" style="fill:#fff;opacity:0.2"></path><path d="M208.6,216.83c0,3.9-4.56,7.07-10.19,7.07s-10.18-3.17-10.18-7.07,4.56-7.07,10.18-7.07S208.6,212.93,208.6,216.83Z" style="fill:#fff;opacity:0.2"></path><path d="M178.67,173.07c5.54-6.59,26.57-11,38.18-.59,0,0-4-6.18,0-11.46,0,0-5.28,3.43-10,0S201,140.45,201,140.45s-1.11,17.41-8.87,19S179.4,150,179.4,150s4.22,12.11,2.11,14-6.33,0-6.33,0Z" style="fill:#407BFF"></path><path d="M166.28,185.09s-7.64,14.83,0,28.09A12.2,12.2,0,0,0,155.53,212s3-3.17,2.57-6.53-14.24-8.11-14.24-8.11,10.88,1,13.25-2.77-6-11.07-6-11.07,9.15,4.94,11.13,3.36,0-6.53,0-6.53Z" style="fill:#407BFF"></path><path d="M228.12,215.63s7.72-10.7,1.58-26.95L235,185.5s-2,3.39-.79,5.54,12.46.66,12.46.66-8.9,1.79-9.29,6.49,11.07,11.57,11.07,11.57-10.48-2.62-12.65,0,2.47,7.7,2.47,7.7S233.07,213.73,228.12,215.63Z" style="fill:#407BFF"></path></g><g id="freepik--Box--inject-31"><rect x="167.53" y="332.05" width="100.74" height="87.16" style="fill:#407BFF"></rect><rect x="167.53" y="332.05" width="100.74" height="87.16" style="fill:#fff;opacity:0.7000000000000001"></rect><path d="M192,411.93a4.16,4.16,0,0,0,3.36-4.25h-3.31l-.47,1h.31l-1.18,2,.66-1.69h-.5l.47-1.33h-3.54a4.16,4.16,0,0,0,3.35,4.25v3.14l-1.91,1v.58H194v-.58l-1.92-1Z" style="opacity:0.5"></path><rect x="169.51" y="407.57" width="8.8" height="8.8" style="opacity:0.5"></rect><rect x="252.71" y="406.06" width="12.26" height="10.18" style="opacity:0.5"></rect><rect x="204.32" y="338.25" width="14.51" height="9.23" style="opacity:0.5"></rect><rect x="167.53" y="332.05" width="33.5" height="87.16" style="opacity:0.1"></rect><polygon points="184.21 354.01 150.71 354.01 167.53 332.05 201.03 332.05 184.21 354.01" style="fill:#407BFF"></polygon><polygon points="201.03 332.05 185.25 357.36 167.53 364.1 167.53 332.05 201.03 332.05" style="opacity:0.1"></polygon><polygon points="216.78 352.03 284.02 352.03 268.27 332.05 201.03 332.05 216.78 352.03" style="fill:#407BFF"></polygon><polygon points="184.21 354.01 150.71 354.01 167.53 332.05 201.03 332.05 184.21 354.01" style="fill:#fff;opacity:0.6000000000000001"></polygon><polygon points="216.78 352.03 284.02 352.03 268.27 332.05 201.03 332.05 216.78 352.03" style="fill:#fff;opacity:0.6000000000000001"></polygon></g></svg>