<svg xmlns="http://www.w3.org/2000/svg" viewBox="0 0 500 500"><g id="freepik--background-complete--inject-228"><rect x="416.78" y="398.49" width="33.12" height="0.25" style="fill:#ebebeb"></rect><rect x="322.53" y="401.21" width="8.69" height="0.25" style="fill:#ebebeb"></rect><rect x="396.59" y="389.21" width="19.19" height="0.25" style="fill:#ebebeb"></rect><rect x="52.46" y="390.89" width="43.19" height="0.25" style="fill:#ebebeb"></rect><rect x="104.56" y="390.89" width="6.33" height="0.25" style="fill:#ebebeb"></rect><rect x="131.47" y="395.11" width="93.68" height="0.25" style="fill:#ebebeb"></rect><path d="M237,337.8H43.92a5.71,5.71,0,0,1-5.71-5.71V60.66A5.71,5.71,0,0,1,43.92,55H237a5.71,5.71,0,0,1,5.71,5.71V332.09A5.71,5.71,0,0,1,237,337.8ZM43.92,55.2a5.47,5.47,0,0,0-5.46,5.46V332.09a5.47,5.47,0,0,0,5.46,5.46H237a5.47,5.47,0,0,0,5.46-5.46V60.66A5.47,5.47,0,0,0,237,55.2Z" style="fill:#ebebeb"></path><path d="M453.31,337.8H260.21a5.72,5.72,0,0,1-5.71-5.71V60.66A5.72,5.72,0,0,1,260.21,55h193.1A5.71,5.71,0,0,1,459,60.66V332.09A5.71,5.71,0,0,1,453.31,337.8ZM260.21,55.2a5.47,5.47,0,0,0-5.46,5.46V332.09a5.47,5.47,0,0,0,5.46,5.46h193.1a5.47,5.47,0,0,0,5.46-5.46V60.66a5.47,5.47,0,0,0-5.46-5.46Z" style="fill:#ebebeb"></path><rect y="382.4" width="500" height="0.25" style="fill:#ebebeb"></rect><path d="M178.74,143.51l-29.14-1.7a5.27,5.27,0,0,0-2.95.7h0c-9.63,8.34-20,2.77-24.59-.52a11.27,11.27,0,0,0-5.93-2.13L83.66,138c-12.18-.71-14.12-17.94-2.39-21.27l.46-.12c-12.11-11.35,17.11-32.08,45.64.64-1.77-10.45,25-5.16,32.4,9.41C163.24,117.55,188,135.11,178.74,143.51Z" style="fill:#fafafa"></path><path d="M201.5,105.83c3.74-10.65,11.65-24.5,39.72-21.48s14,20,30,22,13.71-6.3,26.73,7,11.51,1.73,22.59,8.33S192.74,130.8,201.5,105.83Z" style="fill:#f5f5f5"></path><path d="M364.33,138.33l20.54-.4,1.71.73a33.72,33.72,0,0,0,29.13-1.32h0l17.18-.33s16-6.36,13.57-22.36-26.4-2.17-26.4-2.17S427,90,403.6,96.77s-25.24,29-25.24,29S347.38,121,364.33,138.33Z" style="fill:#f5f5f5"></path><rect x="89.07" y="170.94" width="125.4" height="213.11" style="fill:#e6e6e6"></rect><polygon points="113.16 141.16 113.16 170.94 123.04 170.94 180.51 170.94 190.39 170.94 190.39 141.16 113.16 141.16" style="fill:#e6e6e6"></polygon><rect x="86.48" y="167.89" width="130.58" height="3.22" transform="translate(303.55 338.99) rotate(180)" style="fill:#e0e0e0"></rect><rect x="109.88" y="137.94" width="83.8" height="3.22" transform="translate(303.55 279.1) rotate(180)" style="fill:#e0e0e0"></rect><rect x="62.93" y="170.94" width="125.4" height="213.11" style="fill:#f0f0f0"></rect><polygon points="87.01 141.16 87.01 170.94 96.9 170.94 154.36 170.94 164.25 170.94 164.25 141.16 87.01 141.16" style="fill:#f0f0f0"></polygon><rect x="70.95" y="178.83" width="16.06" height="15.78" style="fill:#fff"></rect><rect x="102.05" y="178.83" width="16.06" height="15.78" style="fill:#fff"></rect><rect x="133.15" y="178.83" width="16.06" height="15.78" style="fill:#fff"></rect><rect x="164.25" y="178.83" width="16.06" height="15.78" style="fill:#fff"></rect><rect x="70.95" y="207.5" width="16.06" height="15.78" style="fill:#fff"></rect><rect x="102.05" y="207.5" width="16.06" height="15.78" style="fill:#fff"></rect><rect x="133.15" y="207.5" width="16.06" height="15.78" style="fill:#fff"></rect><rect x="164.25" y="207.5" width="16.06" height="15.78" style="fill:#fff"></rect><rect x="70.95" y="236.17" width="16.06" height="15.78" style="fill:#fff"></rect><rect x="102.05" y="236.17" width="16.06" height="15.78" style="fill:#fff"></rect><rect x="133.15" y="236.17" width="16.06" height="15.78" style="fill:#fff"></rect><rect x="102.05" y="154.05" width="16.06" height="15.78" style="fill:#fff"></rect><rect x="133.15" y="154.05" width="16.06" height="15.78" style="fill:#fff"></rect><rect x="164.25" y="236.17" width="16.06" height="15.78" style="fill:#fff"></rect><rect x="70.95" y="264.84" width="16.06" height="15.78" style="fill:#fff"></rect><rect x="102.05" y="264.84" width="16.06" height="15.78" style="fill:#fff"></rect><rect x="133.15" y="264.84" width="16.06" height="15.78" style="fill:#fff"></rect><rect x="164.25" y="264.84" width="16.06" height="15.78" style="fill:#fff"></rect><rect x="70.95" y="293.51" width="16.06" height="15.78" style="fill:#fff"></rect><rect x="102.05" y="293.51" width="16.06" height="15.78" style="fill:#fff"></rect><rect x="133.15" y="293.51" width="16.06" height="15.78" style="fill:#fff"></rect><rect x="164.25" y="293.51" width="16.06" height="15.78" style="fill:#fff"></rect><rect x="70.95" y="322.18" width="16.06" height="15.78" style="fill:#fff"></rect><rect x="102.05" y="322.18" width="16.06" height="15.78" style="fill:#fff"></rect><rect x="133.15" y="322.18" width="16.06" height="15.78" style="fill:#fff"></rect><rect x="164.25" y="322.18" width="16.06" height="15.78" style="fill:#fff"></rect><rect x="70.95" y="350.85" width="16.06" height="15.78" style="fill:#fff"></rect><rect x="102.05" y="350.85" width="16.06" height="15.78" style="fill:#fff"></rect><rect x="133.15" y="350.85" width="16.06" height="15.78" style="fill:#fff"></rect><rect x="164.25" y="350.85" width="16.06" height="15.78" style="fill:#fff"></rect><rect x="60.34" y="167.89" width="130.58" height="3.22" transform="translate(251.26 338.99) rotate(180)" style="fill:#ebebeb"></rect><rect x="83.73" y="137.94" width="83.8" height="3.22" transform="translate(251.26 279.1) rotate(180)" style="fill:#ebebeb"></rect><polygon points="274.19 274.78 204 274.78 204 383.14 316.02 383.14 316.02 274.78 316.02 226.73 274.19 274.78" style="fill:#f5f5f5"></polygon><rect x="316.02" y="226.73" width="20.91" height="156.41" style="fill:#e6e6e6"></rect><rect x="209.22" y="296.74" width="16.67" height="16.39" style="fill:#e0e0e0"></rect><rect x="211.08" y="296.74" width="14.82" height="16.39" style="fill:#fff;opacity:0.30000000000000004;isolation:isolate"></rect><rect x="209.22" y="324.31" width="16.67" height="16.39" style="fill:#e0e0e0"></rect><rect x="211.08" y="324.31" width="14.82" height="16.39" style="fill:#fff;opacity:0.30000000000000004;isolation:isolate"></rect><rect x="209.22" y="351.88" width="16.67" height="16.39" style="fill:#e0e0e0"></rect><rect x="211.08" y="351.88" width="14.82" height="16.39" style="fill:#fff;opacity:0.30000000000000004;isolation:isolate"></rect><rect x="211.08" y="351.88" width="16.67" height="16.38" style="fill:#fff;opacity:0.2;isolation:isolate"></rect><rect x="237.33" y="296.74" width="16.67" height="16.39" style="fill:#e0e0e0"></rect><rect x="239.18" y="296.74" width="14.82" height="16.39" style="fill:#fff;opacity:0.30000000000000004;isolation:isolate"></rect><rect x="237.33" y="324.31" width="16.67" height="16.39" style="fill:#e0e0e0"></rect><rect x="239.18" y="324.31" width="14.82" height="16.39" style="fill:#fff;opacity:0.30000000000000004;isolation:isolate"></rect><rect x="237.33" y="351.88" width="16.67" height="16.39" style="fill:#e0e0e0"></rect><rect x="239.18" y="351.88" width="14.82" height="16.39" style="fill:#fff;opacity:0.30000000000000004;isolation:isolate"></rect><rect x="239.18" y="351.88" width="16.67" height="16.38" style="fill:#fff;opacity:0.2;isolation:isolate"></rect><rect x="265.43" y="296.74" width="16.67" height="16.39" style="fill:#e0e0e0"></rect><rect x="267.29" y="296.74" width="14.82" height="16.39" style="fill:#fff;opacity:0.30000000000000004;isolation:isolate"></rect><rect x="265.43" y="324.31" width="16.67" height="16.39" style="fill:#e0e0e0"></rect><rect x="267.29" y="324.31" width="14.82" height="16.39" style="fill:#fff;opacity:0.30000000000000004;isolation:isolate"></rect><rect x="265.43" y="351.88" width="16.67" height="16.39" style="fill:#e0e0e0"></rect><rect x="267.29" y="351.88" width="14.82" height="16.39" style="fill:#fff;opacity:0.30000000000000004;isolation:isolate"></rect><rect x="267.29" y="351.88" width="16.67" height="16.38" style="fill:#fff;opacity:0.2;isolation:isolate"></rect><rect x="293.54" y="296.74" width="16.67" height="16.39" style="fill:#e0e0e0"></rect><rect x="295.39" y="296.74" width="14.82" height="16.39" style="fill:#fff;opacity:0.30000000000000004;isolation:isolate"></rect><rect x="293.54" y="324.31" width="16.67" height="16.39" style="fill:#e0e0e0"></rect><rect x="295.39" y="324.31" width="14.82" height="16.39" style="fill:#fff;opacity:0.30000000000000004;isolation:isolate"></rect><rect x="293.54" y="351.88" width="16.67" height="16.39" style="fill:#e0e0e0"></rect><rect x="295.39" y="351.88" width="14.82" height="16.39" style="fill:#fff;opacity:0.30000000000000004;isolation:isolate"></rect><rect x="295.39" y="351.88" width="16.67" height="16.38" style="fill:#fff;opacity:0.2;isolation:isolate"></rect><rect x="330.25" y="204.78" width="105.49" height="179.27" style="fill:#f0f0f0"></rect><polygon points="350.51 179.72 350.51 204.78 358.83 204.78 407.16 204.78 415.48 204.78 415.48 179.72 350.51 179.72" style="fill:#ebebeb"></polygon><rect x="337" y="211.42" width="13.51" height="13.27" style="fill:#fafafa"></rect><rect x="363.16" y="211.42" width="13.51" height="13.27" style="fill:#fafafa"></rect><rect x="389.32" y="211.42" width="13.51" height="13.27" style="fill:#fafafa"></rect><rect x="415.48" y="211.42" width="13.51" height="13.27" style="fill:#fafafa"></rect><rect x="337" y="235.53" width="13.51" height="13.27" style="fill:#fafafa"></rect><rect x="363.16" y="235.53" width="13.51" height="13.27" style="fill:#fafafa"></rect><rect x="389.32" y="235.53" width="13.51" height="13.27" style="fill:#fafafa"></rect><rect x="415.48" y="235.53" width="13.51" height="13.27" style="fill:#fafafa"></rect><rect x="337" y="259.65" width="13.51" height="13.27" style="fill:#fafafa"></rect><rect x="363.16" y="259.65" width="13.51" height="13.27" style="fill:#fafafa"></rect><rect x="389.32" y="259.65" width="13.51" height="13.27" style="fill:#fafafa"></rect><rect x="363.16" y="190.57" width="13.51" height="13.27" style="fill:#fafafa"></rect><rect x="389.32" y="190.57" width="13.51" height="13.27" style="fill:#fafafa"></rect><rect x="415.48" y="259.65" width="13.51" height="13.27" style="fill:#fafafa"></rect><rect x="337" y="283.77" width="13.51" height="13.27" style="fill:#fafafa"></rect><rect x="363.16" y="283.77" width="13.51" height="13.27" style="fill:#fafafa"></rect><rect x="389.32" y="283.77" width="13.51" height="13.27" style="fill:#fafafa"></rect><rect x="415.48" y="283.77" width="13.51" height="13.27" style="fill:#fafafa"></rect><rect x="337" y="307.89" width="13.51" height="13.27" style="fill:#fafafa"></rect><rect x="363.16" y="307.89" width="13.51" height="13.27" style="fill:#fafafa"></rect><rect x="389.32" y="307.89" width="13.51" height="13.27" style="fill:#fafafa"></rect><rect x="415.48" y="307.89" width="13.51" height="13.27" style="fill:#fafafa"></rect><rect x="337" y="332" width="13.51" height="13.27" style="fill:#fafafa"></rect><rect x="363.16" y="332" width="13.51" height="13.27" style="fill:#fafafa"></rect><rect x="389.32" y="332" width="13.51" height="13.27" style="fill:#fafafa"></rect><rect x="415.48" y="332" width="13.51" height="13.27" style="fill:#fafafa"></rect><rect x="337" y="356.12" width="13.51" height="13.27" style="fill:#fafafa"></rect><rect x="363.16" y="356.12" width="13.51" height="13.27" style="fill:#fafafa"></rect><rect x="389.32" y="356.12" width="13.51" height="13.27" style="fill:#fafafa"></rect><rect x="415.48" y="356.12" width="13.51" height="13.27" style="fill:#fafafa"></rect><rect x="328.07" y="202.21" width="109.85" height="2.71" transform="translate(765.99 407.12) rotate(180)" style="fill:#f5f5f5"></rect></g><g id="freepik--Shadow--inject-228"><ellipse id="freepik--path--inject-228" cx="245.18" cy="412.39" rx="193.89" ry="11.32" style="fill:#f5f5f5"></ellipse></g><g id="freepik--Trophy--inject-228"><path d="M351.7,122H339.9a6.45,6.45,0,0,0,2.53-3.25,36.78,36.78,0,0,0,1.5-6.56,39.64,39.64,0,0,0,.39-5.25,26.38,26.38,0,0,0-1-7h4.88a25.27,25.27,0,0,0-.67,3.2,24.6,24.6,0,0,0-.29,3.83,40.47,40.47,0,0,0,1.89,11.82A6.51,6.51,0,0,0,351.7,122Z" style="fill:#407BFF"></path><path d="M348.24,99.87c-.2,1.15-.43,2.21-.67,3.2a30.63,30.63,0,0,1-3.64,9.09,39.64,39.64,0,0,0,.39-5.25,26.38,26.38,0,0,0-1-7Z" style="opacity:0.2"></path><path d="M337.5,86.14,336,88l-.79-.92a6.17,6.17,0,0,0-4-1.79,1.87,1.87,0,0,0-.34,0,2.52,2.52,0,0,0-1.66,1,3.92,3.92,0,0,0-.68,1.41,3,3,0,0,0-.09.41,6.37,6.37,0,0,0,.34,3.19c.74,2,2.25,3.32,3.83,3.32h1.1v2.62h-1.1c-2.46,0-4.75-1.92-5.85-4.89-.07-.19-.14-.39-.2-.59a8.09,8.09,0,0,1,1-7.24,4.6,4.6,0,0,1,3.56-1.88,6.66,6.66,0,0,1,2.78.58,8.52,8.52,0,0,1,2.83,2Z" style="fill:#407BFF"></path><path d="M333.88,83.27a1.54,1.54,0,0,1-.23.37,3.52,3.52,0,0,1-1.13.67,7.64,7.64,0,0,0-1.7,1,2.52,2.52,0,0,0-1.66,1,4.07,4.07,0,0,0-.77,1.82,10.38,10.38,0,0,0-.91,2,3.1,3.1,0,0,1-1,1.68,8.49,8.49,0,0,1,.34-6.13,5.73,5.73,0,0,1,.69-1.11,4.6,4.6,0,0,1,3.56-1.88h.37A6.71,6.71,0,0,1,333.88,83.27Z" style="fill:#fff;opacity:0.2"></path><path d="M331.47,82.69s0,.06,0,.09a3,3,0,0,1-1.39,1.8,7.07,7.07,0,0,1-2.71,1.06,4.06,4.06,0,0,1-.51,0,5.73,5.73,0,0,1,.69-1.11,4.6,4.6,0,0,1,3.56-1.88Z" style="fill:#fff;opacity:0.30000000000000004"></path><path d="M332.78,94.67a1.38,1.38,0,0,1-1.67.43,4.82,4.82,0,0,1-2.95-3.23,6.37,6.37,0,0,1,.32-4.12,3,3,0,0,0-.09.41,6.37,6.37,0,0,0,.34,3.19c.74,2,2.25,3.32,3.83,3.32Z" style="opacity:0.2"></path><path d="M354.38,86.14,355.92,88l.79-.92a6.17,6.17,0,0,1,4-1.79,1.76,1.76,0,0,1,.33,0,2.5,2.5,0,0,1,1.66,1,3.92,3.92,0,0,1,.68,1.41c0,.14.07.27.1.41a6.37,6.37,0,0,1-.35,3.19c-.74,2-2.25,3.32-3.83,3.32h-1.1v2.62h1.1c2.46,0,4.76-1.92,5.85-4.89a5.84,5.84,0,0,0,.2-.59,8.08,8.08,0,0,0-1-7.24,4.63,4.63,0,0,0-3.56-1.88,6.67,6.67,0,0,0-2.79.58,8.52,8.52,0,0,0-2.83,2Z" style="fill:#407BFF"></path><path d="M358,83.27a1.31,1.31,0,0,0,.24.37,3.38,3.38,0,0,0,1.12.67,7.64,7.64,0,0,1,1.7,1,2.5,2.5,0,0,1,1.66,1,4.09,4.09,0,0,1,.78,1.82,11,11,0,0,1,.9,2,3.22,3.22,0,0,0,1,1.68,8.49,8.49,0,0,0-.34-6.13,6.22,6.22,0,0,0-.68-1.11,4.63,4.63,0,0,0-3.56-1.88h-.38A6.71,6.71,0,0,0,358,83.27Z" style="fill:#fff;opacity:0.2"></path><path d="M360.41,82.69s0,.06,0,.09a3,3,0,0,0,1.39,1.8,7.07,7.07,0,0,0,2.71,1.06,4.21,4.21,0,0,0,.51,0,6.22,6.22,0,0,0-.68-1.11,4.63,4.63,0,0,0-3.56-1.88Z" style="fill:#fff;opacity:0.30000000000000004"></path><path d="M359.1,94.67a1.38,1.38,0,0,0,1.67.43,4.85,4.85,0,0,0,3-3.23,6.44,6.44,0,0,0-.33-4.12c0,.14.07.27.1.41a6.37,6.37,0,0,1-.35,3.19c-.74,2-2.25,3.32-3.83,3.32Z" style="opacity:0.2"></path><path d="M359.62,94.25a10.27,10.27,0,0,1-.17,1.09,8.12,8.12,0,0,1-3.19,5.13c-4.14,2.78-10.73,3.58-16.11,2l-.48-.14a13.74,13.74,0,0,1-3.78-1.86,7.75,7.75,0,0,1-1.83-1.91,9.24,9.24,0,0,1-1.53-4.31,9.71,9.71,0,0,1,.55-4.26v0c.05-.15.11-.3.17-.45a10.59,10.59,0,0,1,1.09-1.94c.54-.76,1.17-1.42,1.68-2.17a3.77,3.77,0,0,0,.75-2.42l9.3.82,9.29-.82a3.72,3.72,0,0,0,.76,2.42c.5.75,1.13,1.41,1.67,2.17a9.92,9.92,0,0,1,1.3,2.5h0A9.74,9.74,0,0,1,359.62,94.25Z" style="fill:#407BFF"></path><path d="M347.89,90.76c-5.36,2.29-11.24.65-13.67-.27a9.86,9.86,0,0,1-1.13-.52,1.8,1.8,0,0,1,.08-.21,9.8,9.8,0,0,1,1.18-2.18c.54-.76,1.17-1.42,1.68-2.17a3.77,3.77,0,0,0,.75-2.42l9.3.82,7.13-.47C353.4,84.27,353.55,88.35,347.89,90.76Z" style="fill:#fff;opacity:0.1"></path><path d="M359.62,94.25a8.45,8.45,0,0,1-3.36,6.22c-5.46,3.67-15,3.87-20.37,0a8.75,8.75,0,0,1-3.36-6.22c0-.36,0-.72,0-1.07,3.59,4.2,10.55,5.55,16.09,2.76a12.55,12.55,0,0,0,6.29-7.25,10.13,10.13,0,0,0,.25-5.68l.25,0a3.72,3.72,0,0,0,.76,2.42c.5.75,1.13,1.41,1.67,2.17A9.88,9.88,0,0,1,359.62,94.25Z" style="opacity:0.1"></path><path d="M359.45,95.34a8.12,8.12,0,0,1-3.19,5.13c-4.27,2.87-11.13,3.63-16.59,1.86-.69-.27-1.37-.58-2-.91a11.23,11.23,0,0,1-3.58-2.86,9.24,9.24,0,0,1-1.53-4.31,9.78,9.78,0,0,1,.56-4.28,19.56,19.56,0,0,0,5.08,1.89,23,23,0,0,0,4.1.75c3.7.34,11,.45,16.83-2.53h0A12.86,12.86,0,0,1,359.45,95.34Z" style="opacity:0.1"></path><path d="M359.62,94.25a8.45,8.45,0,0,1-3.36,6.22c-5.46,3.67-15,3.87-20.37,0a8.75,8.75,0,0,1-3.36-6.22c0-.36,1.76,3.61,1.76,3.21,4,4.8,11.57,5.06,17.47,2.36,7.13-3.26,5.9-10.81,4.38-14.38.5.74,1.13,1.39,1.66,2.14A9.88,9.88,0,0,1,359.62,94.25Z" style="opacity:0.2"></path><path d="M355.67,84.6c-11.89,3.38-19.5-1.38-19.57-2l10,1.17,9.29-.82A3,3,0,0,0,355.67,84.6Z" style="opacity:0.30000000000000004"></path><path d="M356.4,81.64a3.07,3.07,0,0,1-.4,1.6c-5,1.81-15.11,1.7-19.85,0a3.07,3.07,0,0,1-.4-1.6c1.61,1.08,6.86,1.34,10.33,1.43C349.54,83,354.79,82.72,356.4,81.64Z" style="fill:#407BFF"></path><path d="M353.25,84l-.09,0a43.39,43.39,0,0,1-14.61-.1,16.86,16.86,0,0,1-2.4-.64,3.07,3.07,0,0,1-.4-1.6c1,.68,3.5,1,6.08,1.23,1.48.11,3,.16,4.25.2a68.2,68.2,0,0,0,6.84-.47H353C353.13,83,353.22,84,353.25,84Z" style="fill:#407BFF;opacity:0.1"></path><path d="M356.4,81.64c.08.79-4.54,1.45-10.32,1.45s-10.41-.66-10.33-1.45,4.7-1.41,10.33-1.41S356.32,80.86,356.4,81.64Z" style="fill:#407BFF"></path><path d="M355.38,81.5c0,.59-4.07,1-9.18,1s-9.22-.46-9.18-1,4.14-1.06,9.18-1.06S355.34,80.91,355.38,81.5Z" style="opacity:0.2"></path><path d="M340.93,87.43a1.54,1.54,0,0,1-1.5,1,1.68,1.68,0,0,1-1.32-.48c-.15-.15-.6-.89-.17-1.3l.05-.05a2.38,2.38,0,0,1,2.34.05h0C341,87,341,87.2,340.93,87.43Z" style="fill:#fff;opacity:0.30000000000000004"></path><path d="M339.55,86.37c.75.11.57,1.1-.22,1.11a1.7,1.7,0,0,1-.3,0c-.78-.12-.57-1.1.23-1.12A1,1,0,0,1,339.55,86.37Z" style="fill:#fff;opacity:0.30000000000000004"></path><path d="M341.72,83a4.51,4.51,0,0,1-1.77.77,7,7,0,0,1-1.4.16,16.86,16.86,0,0,1-2.4-.64,3.1,3.1,0,0,1-.38-1.16,2.2,2.2,0,0,0,.75.13h.38c0,.06.06.11.18.15h0a2.18,2.18,0,0,0,.36.08h0l1.17.21,1,.12.86.09C340.87,82.89,341.29,82.93,341.72,83Z" style="fill:#fff;opacity:0.2"></path><path d="M347.5,83.09a4.67,4.67,0,0,1-3.15,1.42,7.4,7.4,0,0,1-1.8-.05l-.52-.09a8.7,8.7,0,0,1-2.08-.65,2.84,2.84,0,0,1-1.34-1.07c.89.12,1.94.23,3.11.3s2.8.14,4.36.14l1.4,0Z" style="fill:#fff;opacity:0.2"></path><path d="M340.48,82.86a.39.39,0,0,1-.4.31s-.57,0-.46-.4Z" style="fill:#fff;opacity:0.30000000000000004"></path><path d="M359.71,123.24H332.16A17.5,17.5,0,0,1,340.7,121h10.48a17.43,17.43,0,0,1,8.53,2.23Z" style="fill:#407BFF"></path><path d="M359.71,123.24H332.16A17.5,17.5,0,0,1,340.7,121h10.48a17.43,17.43,0,0,1,8.53,2.23Z" style="fill:#fff;opacity:0.30000000000000004"></path><g style="opacity:0.8"><path d="M346.73,88.23v8.39h-1.56V89.53H343.4v-1.3Z" style="fill:#fff"></path></g></g><g id="freepik--Sparkles--inject-228"><path d="M365.53,94.62s-.47,3.37-1.21,7.18c-.43,2.23-3.69,3.49-5.87,4.11,3,.1,5.12,2.37,6.31,4.74s1.56,7.76,1.56,7.76.57-6.57,2.4-9.21c1.13-1.63,3.72-2.91,5.53-3.69C368.32,105.28,366.21,99.67,365.53,94.62Z" style="fill:#407BFF"></path><path d="M365.53,94.62s-.47,3.37-1.21,7.18c-.43,2.23-3.69,3.49-5.87,4.11,3,.1,5.12,2.37,6.31,4.74s1.56,7.76,1.56,7.76.57-6.57,2.4-9.21c1.13-1.63,3.72-2.91,5.53-3.69C368.32,105.28,366.21,99.67,365.53,94.62Z" style="fill:#fff;opacity:0.7000000000000001"></path><path d="M370.2,72.43s-.35,2.53-.91,5.38c-.32,1.67-2.77,2.62-4.4,3.09,2.25.07,3.84,1.77,4.73,3.55s1.17,5.82,1.17,5.82.43-4.93,1.8-6.91c.85-1.22,2.79-2.18,4.15-2.76C372.29,80.42,370.71,76.22,370.2,72.43Z" style="fill:#407BFF"></path><path d="M370.2,72.43s-.35,2.53-.91,5.38c-.32,1.67-2.77,2.62-4.4,3.09,2.25.07,3.84,1.77,4.73,3.55s1.17,5.82,1.17,5.82.43-4.93,1.8-6.91c.85-1.22,2.79-2.18,4.15-2.76C372.29,80.42,370.71,76.22,370.2,72.43Z" style="fill:#fff;opacity:0.7000000000000001"></path><path d="M319.36,85.67s-.42,3-1.07,6.29c-.38,2-3.23,3.05-5.14,3.6,2.63.09,4.48,2.08,5.53,4.16s1.37,6.8,1.37,6.8.5-5.77,2.1-8.07c1-1.43,3.27-2.55,4.85-3.24C321.8,95,320,90.09,319.36,85.67Z" style="fill:#407BFF"></path><path d="M319.36,85.67s-.42,3-1.07,6.29c-.38,2-3.23,3.05-5.14,3.6,2.63.09,4.48,2.08,5.53,4.16s1.37,6.8,1.37,6.8.5-5.77,2.1-8.07c1-1.43,3.27-2.55,4.85-3.24C321.8,95,320,90.09,319.36,85.67Z" style="fill:#fff;opacity:0.7000000000000001"></path></g><g id="freepik--Lines--inject-228"><path d="M305,77.56a.49.49,0,0,1-.23-.06l-11.25-6a.5.5,0,1,1,.47-.88l11.25,6a.5.5,0,0,1-.24.94Z" style="fill:#407BFF"></path><path d="M312.63,81.59a.46.46,0,0,1-.23-.06l-3.79-2a.5.5,0,1,1,.46-.88l3.8,2a.5.5,0,0,1-.24.94Z" style="fill:#407BFF"></path><path d="M305,92.42H287.72a.5.5,0,0,1,0-1H305a.5.5,0,0,1,0,1Z" style="fill:#407BFF"></path><path d="M293.8,113.26a.51.51,0,0,1-.45-.27.5.5,0,0,1,.21-.67l18.51-9.83a.5.5,0,1,1,.47.88L294,113.2A.53.53,0,0,1,293.8,113.26Z" style="fill:#407BFF"></path><path d="M381.07,81.59a.5.5,0,0,1-.44-.26.51.51,0,0,1,.21-.68l18.84-10a.5.5,0,1,1,.47.88l-18.84,10A.53.53,0,0,1,381.07,81.59Z" style="fill:#407BFF"></path><path d="M406,92.42H388.66a.5.5,0,0,1,0-1H406a.5.5,0,0,1,0,1Z" style="fill:#407BFF"></path><path d="M392.19,109.15a.52.52,0,0,1-.24-.05l-10.78-5.73a.5.5,0,1,1,.47-.88l10.78,5.72a.5.5,0,0,1,.21.68A.49.49,0,0,1,392.19,109.15Z" style="fill:#407BFF"></path><path d="M399.91,113.26a.46.46,0,0,1-.23-.06l-3.47-1.84a.5.5,0,0,1-.2-.68.5.5,0,0,1,.67-.21l3.47,1.85a.5.5,0,0,1,.21.67A.51.51,0,0,1,399.91,113.26Z" style="fill:#407BFF"></path></g><g id="freepik--plants-1--inject-228"><path d="M92.71,346.56a70.3,70.3,0,0,0,5,19.61c9.17,21.59,11.61,25,11.61,25L106,393.76S88.8,355.28,90.77,346.29,92.71,346.56,92.71,346.56Z" style="fill:#407BFF"></path><path d="M92.71,346.56a70.3,70.3,0,0,0,5,19.61c9.17,21.59,11.61,25,11.61,25L106,393.76S88.8,355.28,90.77,346.29,92.71,346.56,92.71,346.56Z" style="opacity:0.4"></path><path d="M92.36,344.89c-1.86.63-1.84.94-3.12,2.05-.11-1.66-.74-3.67.53-6.37A5.7,5.7,0,0,1,96,337.78a.65.65,0,0,0,.53-.13h0a.68.68,0,0,0,0-1.08,5.39,5.39,0,0,0-5.39-.31c.83-2.12,2.11-4.56,4-5.86,2-1.43,6.43-.94,8.14.75a.43.43,0,0,0,.56,0h0a.49.49,0,0,0,.13-.68,6.29,6.29,0,0,0-2.16-2,3.33,3.33,0,0,0-3.29-.09c.64-2.7,6.31-5,6.23-4.69,1.9.39,3.5,2.22,4.2,3.13a.81.81,0,0,0,1.08.18h0a1,1,0,0,0,.36-1.36,8.4,8.4,0,0,0-2.89-2.86c.68-.9,2.13-.86,3.18-.84,3.34.06,5.54,2.7,7.81,4.78a15.9,15.9,0,0,1-.17,8.39A9.07,9.07,0,0,1,114.6,340l0,0c-.23-1.9-.56-4-.81-6a.65.65,0,0,0-.73-.57h0a.83.83,0,0,0-.68.82c.07,2.56.45,4.54.47,7.17-1.33,1.42-6,3.68-5.81,3.27.07-2.26.66-6.07,0-8.2a.54.54,0,0,0-.77-.29h0a.67.67,0,0,0-.35.64,26.56,26.56,0,0,1-.59,8.72c-2.38,1.7-4.2,2.93-5.88,3.12,0-1.84,0-4.64,0-6.78a.55.55,0,0,0-1.1,0v0c-.56,2.76.1,6-1.61,8.22,0,0-3,2.93-4.48,1.93C93.6,349.76,93.19,344.61,92.36,344.89Z" style="fill:#407BFF"></path><path d="M92.36,344.89c-1.86.63-1.84.94-3.12,2.05-.11-1.66-.74-3.67.53-6.37A5.7,5.7,0,0,1,96,337.78a.65.65,0,0,0,.53-.13h0a.68.68,0,0,0,0-1.08,5.39,5.39,0,0,0-5.39-.31c.83-2.12,2.11-4.56,4-5.86,2-1.43,6.43-.94,8.14.75a.43.43,0,0,0,.56,0h0a.49.49,0,0,0,.13-.68,6.29,6.29,0,0,0-2.16-2,3.33,3.33,0,0,0-3.29-.09c.64-2.7,6.31-5,6.23-4.69,1.9.39,3.5,2.22,4.2,3.13a.81.81,0,0,0,1.08.18h0a1,1,0,0,0,.36-1.36,8.4,8.4,0,0,0-2.89-2.86c.68-.9,2.13-.86,3.18-.84,3.34.06,5.54,2.7,7.81,4.78a15.9,15.9,0,0,1-.17,8.39A9.07,9.07,0,0,1,114.6,340l0,0c-.23-1.9-.56-4-.81-6a.65.65,0,0,0-.73-.57h0a.83.83,0,0,0-.68.82c.07,2.56.45,4.54.47,7.17-1.33,1.42-6,3.68-5.81,3.27.07-2.26.66-6.07,0-8.2a.54.54,0,0,0-.77-.29h0a.67.67,0,0,0-.35.64,26.56,26.56,0,0,1-.59,8.72c-2.38,1.7-4.2,2.93-5.88,3.12,0-1.84,0-4.64,0-6.78a.55.55,0,0,0-1.1,0v0c-.56,2.76.1,6-1.61,8.22,0,0-3,2.93-4.48,1.93C93.6,349.76,93.19,344.61,92.36,344.89Z" style="fill:#fff;opacity:0.1"></path><path d="M87.12,343a70.41,70.41,0,0,1,8.27,18.47c6.26,22.6,6.48,26.8,6.48,26.8l4.26-.08S95.6,347.39,88.46,341.59,87.12,343,87.12,343Z" style="fill:#407BFF"></path><path d="M87.12,343a70.41,70.41,0,0,1,8.27,18.47c6.26,22.6,6.48,26.8,6.48,26.8l4.26-.08S95.6,347.39,88.46,341.59,87.12,343,87.12,343Z" style="opacity:0.2"></path><path d="M86.35,341.48c1.84-.66,2-.41,3.71-.34-.94-1.36-1.7-3.33-4.38-4.65A5.69,5.69,0,0,0,79,338.21a.67.67,0,0,1-.49.23h0a.68.68,0,0,1-.7-.82,5.36,5.36,0,0,1,4-3.6c-2-1.14-4.49-2.26-6.75-2.13-2.46.14-5.6,3.27-5.9,5.65a.41.41,0,0,1-.42.37h0a.49.49,0,0,1-.52-.46,6.3,6.3,0,0,1,.42-2.93,3.35,3.35,0,0,1,2.52-2.13c-2.18-1.71-8,0-7.79.21-1.25,1.49-1.37,3.92-1.34,5.07a.83.83,0,0,1-.74.81h0a1,1,0,0,1-1.12-.85,8.34,8.34,0,0,1,.48-4c-1.09-.28-2.2.65-3,1.32-2.58,2.13-2.65,5.56-3.14,8.61A15.92,15.92,0,0,0,59.88,350a9.05,9.05,0,0,0,6,1.51h0c-1-1.64-2.06-3.49-3.08-5.17a.64.64,0,0,1,.22-.9h0a.82.82,0,0,1,1,.21c1.54,2.05,2.48,3.84,4.1,5.91,1.93.28,7-.83,6.58-1.06-1.46-1.72-4.29-4.33-5.06-6.44a.52.52,0,0,1,.41-.7h0a.66.66,0,0,1,.67.27,26.52,26.52,0,0,0,5.89,6.46c2.92-.14,5.12-.32,6.55-1.21l-4.21-5.32c-.42-.53.3-1.15.83-.72l0,0c2.16,1.82,3.66,4.77,6.37,5.44,0,0,4.16.43,4.71-1.28C88.41,346.07,85.53,341.78,86.35,341.48Z" style="fill:#407BFF"></path><path d="M86.35,341.48c1.84-.66,2-.41,3.71-.34-.94-1.36-1.7-3.33-4.38-4.65A5.69,5.69,0,0,0,79,338.21a.67.67,0,0,1-.49.23h0a.68.68,0,0,1-.7-.82,5.36,5.36,0,0,1,4-3.6c-2-1.14-4.49-2.26-6.75-2.13-2.46.14-5.6,3.27-5.9,5.65a.41.41,0,0,1-.42.37h0a.49.49,0,0,1-.52-.46,6.3,6.3,0,0,1,.42-2.93,3.35,3.35,0,0,1,2.52-2.13c-2.18-1.71-8,0-7.79.21-1.25,1.49-1.37,3.92-1.34,5.07a.83.83,0,0,1-.74.81h0a1,1,0,0,1-1.12-.85,8.34,8.34,0,0,1,.48-4c-1.09-.28-2.2.65-3,1.32-2.58,2.13-2.65,5.56-3.14,8.61A15.92,15.92,0,0,0,59.88,350a9.05,9.05,0,0,0,6,1.51h0c-1-1.64-2.06-3.49-3.08-5.17a.64.64,0,0,1,.22-.9h0a.82.82,0,0,1,1,.21c1.54,2.05,2.48,3.84,4.1,5.91,1.93.28,7-.83,6.58-1.06-1.46-1.72-4.29-4.33-5.06-6.44a.52.52,0,0,1,.41-.7h0a.66.66,0,0,1,.67.27,26.52,26.52,0,0,0,5.89,6.46c2.92-.14,5.12-.32,6.55-1.21l-4.21-5.32c-.42-.53.3-1.15.83-.72l0,0c2.16,1.82,3.66,4.77,6.37,5.44,0,0,4.16.43,4.71-1.28C88.41,346.07,85.53,341.78,86.35,341.48Z" style="fill:#fff;opacity:0.2"></path><path d="M88.09,350.78c1.06-2.46,1.47-2.36,3.1-3.9-2.19-.55-4.81-1.9-8.56-.74-3.32,1.25-4.81,4.64-4.46,8.15a.91.91,0,0,1-.24.7h0a.89.89,0,0,1-1.43-.19,7.94,7.94,0,0,1,.23-7.65c-2.93.68-6.35,1.9-8.3,4.18-2.14,2.5-2,8.8,0,11.6a.63.63,0,0,1,0,.8h0a.64.64,0,0,1-.93,0,9.71,9.71,0,0,1-2.46-3.5,4.9,4.9,0,0,1,.26-4.64c-3.67.26-7.38,7.69-7,7.64.29,2.76,2.54,5.44,3.68,6.63a1.24,1.24,0,0,1,.11,1.56l0,0a1.24,1.24,0,0,1-1.86.18c-1.21-1.17-3.05-3.14-3.47-4.73-1.28.75-1.4,2.79-1.5,4.27-.31,4.71,3,8.41,5.46,12.08A20.68,20.68,0,0,0,71.91,385a10.87,10.87,0,0,0,7-4.14l0-.05c-2.51-.78-5.29-1.73-7.85-2.53a1,1,0,0,1-.68-1.16v0a1,1,0,0,1,1.16-.76c3.41.69,6,1.68,9.52,2.33,2.05-1.54,5.62-7.51,5.05-7.39-3-.43-8.17-.49-10.93-2a.82.82,0,0,1-.3-1.14h0a.81.81,0,0,1,.89-.35A34,34,0,0,0,87.55,369c2.55-2.94,4.41-5.21,4.87-7.52l-9-1.61a.78.78,0,0,1,.07-1.55h0c3.76-.13,8,1.56,11.16-.32,0,0,4.26-3.5,3.12-5.84C94.45,353.67,87.62,351.88,88.09,350.78Z" style="fill:#407BFF"></path><path d="M89.94,354.13s8.3,12.09,10.53,23.52S103,391.28,103,391.28l5,.05s-9-32-16.71-38.87S89.94,354.13,89.94,354.13Z" style="fill:#407BFF"></path><path d="M89.94,354.13s8.3,12.09,10.53,23.52S103,391.28,103,391.28l5,.05s-9-32-16.71-38.87S89.94,354.13,89.94,354.13Z" style="opacity:0.1"></path><path d="M88.09,350.78c1.06-2.46,1.47-2.36,3.1-3.9-2.19-.55-4.81-1.9-8.56-.74-3.32,1.25-4.81,4.64-4.46,8.15a.91.91,0,0,1-.24.7h0a.89.89,0,0,1-1.43-.19,7.94,7.94,0,0,1,.23-7.65c-2.93.68-6.35,1.9-8.3,4.18-2.14,2.5-2,8.8,0,11.6a.63.63,0,0,1,0,.8h0a.64.64,0,0,1-.93,0,9.71,9.71,0,0,1-2.46-3.5,4.9,4.9,0,0,1,.26-4.64c-3.67.26-7.38,7.69-7,7.64.29,2.76,2.54,5.44,3.68,6.63a1.24,1.24,0,0,1,.11,1.56l0,0a1.24,1.24,0,0,1-1.86.18c-1.21-1.17-3.05-3.14-3.47-4.73-1.28.75-1.4,2.79-1.5,4.27-.31,4.71,3,8.41,5.46,12.08A20.68,20.68,0,0,0,71.91,385a10.87,10.87,0,0,0,7-4.14l0-.05c-2.51-.78-5.29-1.73-7.85-2.53a1,1,0,0,1-.68-1.16v0a1,1,0,0,1,1.16-.76c3.41.69,6,1.68,9.52,2.33,2.05-1.54,5.62-7.51,5.05-7.39-3-.43-8.17-.49-10.93-2a.82.82,0,0,1-.3-1.14h0a.81.81,0,0,1,.89-.35A34,34,0,0,0,87.55,369c2.55-2.94,4.41-5.21,4.87-7.52l-9-1.61a.78.78,0,0,1,.07-1.55h0c3.76-.13,8,1.56,11.16-.32,0,0,4.26-3.5,3.12-5.84C94.45,353.67,87.62,351.88,88.09,350.78Z" style="fill:#fff;opacity:0.30000000000000004"></path><path d="M55.85,412.41a5.44,5.44,0,0,1-5.22-4.76,5.67,5.67,0,0,1,3.89-6,10.64,10.64,0,0,1-.2-20.17,5,5,0,0,1,4.84.66c1.29,1.14,1.47,3.67,0,4.59a9.78,9.78,0,0,1,4.16-11,8.7,8.7,0,0,1,11,2.35,5.49,5.49,0,0,1,0-6.06,4.81,4.81,0,0,1,5.47-1.84,5.49,5.49,0,0,1,5.93-4.5,5.71,5.71,0,0,1,4.45,6.11c.31-2.36,4-3,5-.95,1.48-.42-.45.35-.45.35a8.23,8.23,0,0,1,8.77-4.38,8.69,8.69,0,0,1,6.53,7.58,7.32,7.32,0,0,1,8.33-.22,8.29,8.29,0,0,1,3.35,8,6.13,6.13,0,0,1,8.89,1.81c1.75,3.1.4,7.66-2.71,9.14a4.41,4.41,0,0,1-.22,8.78,4.77,4.77,0,0,1,4.37,4.19c.26,2.24-1.22,5.78-3.29,6.37Z" style="fill:#407BFF"></path><g style="opacity:0.1;isolation:isolate"><path d="M55.85,412.41a5.44,5.44,0,0,1-5.22-4.76,5.67,5.67,0,0,1,3.89-6,10.64,10.64,0,0,1-.2-20.17,5,5,0,0,1,4.84.66c1.29,1.14,1.47,3.67,0,4.59a9.78,9.78,0,0,1,4.16-11,8.7,8.7,0,0,1,11,2.35,5.49,5.49,0,0,1,0-6.06,4.81,4.81,0,0,1,5.47-1.84,5.49,5.49,0,0,1,5.93-4.5,5.71,5.71,0,0,1,4.45,6.11c.31-2.36,4-3,5-.95,1.48-.42-.45.35-.45.35a8.23,8.23,0,0,1,8.77-4.38,8.69,8.69,0,0,1,6.53,7.58,7.32,7.32,0,0,1,8.33-.22,8.29,8.29,0,0,1,3.35,8,6.13,6.13,0,0,1,8.89,1.81c1.75,3.1.4,7.66-2.71,9.14a4.41,4.41,0,0,1-.22,8.78,4.77,4.77,0,0,1,4.37,4.19c.26,2.24-1.22,5.78-3.29,6.37Z"></path></g><path d="M94.22,405.4a4.62,4.62,0,0,1,3.53-.85,3.24,3.24,0,0,1,2.58,2.41,2.53,2.53,0,0,1-1.72,2.91c-1.47.35-3-.86-4.45-.65a13.84,13.84,0,0,0-1.55.47c-2.16.58-4.3-.83-6.09-2.17a6.48,6.48,0,0,1-1.69-1.61,2.21,2.21,0,0,1-.18-2.24c.55-.94,1.85-1.08,2.94-1a11.75,11.75,0,0,1,6,2.51c-.06-.34-.11-.69-.17-1Z" style="fill:#407BFF"></path><path d="M59.94,394.59a2,2,0,0,1,1.92.82A2,2,0,0,1,61,398a5.93,5.93,0,0,1-2.93.59c-1,0-2.32-.11-2.7-1.07a1.75,1.75,0,0,1,.73-2,5.2,5.2,0,0,1,2.12-.73S59.21,394.67,59.94,394.59Z" style="fill:#407BFF"></path><path d="M108.66,387.53a5.62,5.62,0,0,1,3.25,3.89,1.35,1.35,0,0,1-.36,1.45,1.54,1.54,0,0,1-1.1,0l-4.65-1.11a6.66,6.66,0,0,1,2.09,1.11,2.23,2.23,0,0,1,.8,2.13,2.15,2.15,0,0,1-2.16,1.45,4.59,4.59,0,0,1-2.56-1,3.26,3.26,0,0,1-1.62-2.39c0-1,1.24-1.92,2-1.28a16.77,16.77,0,0,1-5-2.28,4.57,4.57,0,0,1-1.45-1.35,1.93,1.93,0,0,1-.15-1.9c1.6-2.89,3.61,1.35,4.59,1.73C104.2,388.71,106.3,386.55,108.66,387.53Z" style="fill:#407BFF"></path><path d="M105.93,402.45a1.87,1.87,0,0,0,.5,2,1.21,1.21,0,0,0,1.83-.38,6.46,6.46,0,0,0-3.45,1.94c-.79,1.08-.6,3,.68,3.39a3.13,3.13,0,0,0,2.38-.54,42.41,42.41,0,0,0,5.93-3.9c-.57,1.31.8,2.8,2.23,2.92a6.87,6.87,0,0,0,4-1.39c1.5-.91,3.22-2.31,2.83-4-.35-1.49-2.25-2.15-3.72-1.71a8.54,8.54,0,0,0-3.6,2.75c.81-1.17-.33-2.91-1.74-3.1a4.23,4.23,0,0,0-3.59,1.66c1.59-.88,2-3.16-.19-3.43C108.62,398.46,106.26,401.29,105.93,402.45Z" style="fill:#407BFF"></path><path d="M94.71,396.81a4.62,4.62,0,0,1,2.62,3.62c.4,2.06-.14,4.53-2.37,5.27a3.67,3.67,0,0,1-3.61-.86c-2.29-2.16-1.47-5.67.63-7.54A3,3,0,0,1,94.71,396.81Z" style="fill:#407BFF"></path><path d="M72,403.16a2.67,2.67,0,0,1,2.34,1.08,2.5,2.5,0,0,1,.29,3.31,2.1,2.1,0,0,1-2.06.59,3,3,0,0,1-1.81-4A1.74,1.74,0,0,1,72,403.16Z" style="fill:#407BFF"></path><path d="M70.21,385.86a3.34,3.34,0,0,1,3.19-.47c1.45.43,2.86,1.59,2.59,3.27a2.64,2.64,0,0,1-1.76,2c-2.15.75-4.12-.95-4.62-2.92A2.19,2.19,0,0,1,70.21,385.86Z" style="fill:#407BFF"></path><path d="M78,378.08a3.31,3.31,0,0,1,2,2.53c.35,1.47,0,3.27-1.55,3.87a2.64,2.64,0,0,1-2.63-.5c-1.72-1.49-1.24-4.05.22-5.47A2.18,2.18,0,0,1,78,378.08Z" style="fill:#407BFF"></path><path d="M57.82,400.8a3.38,3.38,0,0,1,1.33-2.95c1.14-1,2.88-1.54,4.15-.41a2.61,2.61,0,0,1,.76,2.57c-.53,2.21-3,3-5,2.32A2.19,2.19,0,0,1,57.82,400.8Z" style="fill:#407BFF"></path><path d="M80.38,392.32l-.53.46a2.59,2.59,0,1,1,0,3.22,3.88,3.88,0,0,1-4.53-.84,3,3,0,0,1,.62-4.31c1.44-.81,3.62.41,3.47,2.06l.62-.7Z" style="fill:#407BFF"></path><path d="M64,393c.41,1.38-.18,3.16-1.56,3.55s-2.72-.74-3.54-1.91S57.39,392.17,58,391C60.1,387,63.61,391.63,64,393Z" style="fill:#407BFF"></path><path d="M120.47,395.25c-1.34.51-3.17.07-3.66-1.28s.52-2.77,1.63-3.67,2.35-1.72,3.54-1.21C126.12,390.88,121.82,394.74,120.47,395.25Z" style="fill:#407BFF"></path><path d="M101.52,380.39c-.83,1.17-2.59,1.81-3.75,1s-1.1-2.59-.68-4,1-2.73,2.28-3C103.81,373.62,102.36,379.22,101.52,380.39Z" style="fill:#407BFF"></path><path d="M97.28,379.69a2.17,2.17,0,0,1-1.66,2.47c-1.09.11-2-.91-2.41-1.91s-.83-2.08-.22-2.86C95.11,374.66,97.15,378.59,97.28,379.69Z" style="fill:#407BFF"></path><path d="M107.24,384.07a2.17,2.17,0,0,1-2.78-1.05c-.35-1,.45-2.11,1.32-2.79s1.83-1.27,2.73-.85C111.66,380.83,108.28,383.71,107.24,384.07Z" style="fill:#407BFF"></path><path d="M89,387.88a2.36,2.36,0,0,1,3.27-.9,2.86,2.86,0,0,1,1,3.39,3.62,3.62,0,0,1-3,2.12c-1.58.18-3.43-1.09-3.08-2.64a3.35,3.35,0,0,1-3,1.14,8,8,0,0,1-3.13-1.17c-1.32-.76-2.72-1.94-2.58-3.45A2.71,2.71,0,0,1,81,384.12a4.6,4.6,0,0,1,3.32,1.23c.73.62,1.33,1.39,2.11,1.93a2.68,2.68,0,0,0,2.69.38Z" style="fill:#407BFF"></path></g><g id="freepik--Stairs--inject-228"><polygon points="438.7 197.84 245.15 197.84 270.89 121.99 438.7 121.99 438.7 197.84" style="fill:#407BFF"></polygon><polygon points="438.7 197.84 245.15 197.84 270.89 121.99 438.7 121.99 438.7 197.84" style="fill:#fff;opacity:0.30000000000000004"></polygon><rect x="283.19" y="120.94" width="135.18" height="17.01" style="fill:#fff;opacity:0.2"></rect><rect x="275.08" y="140.78" width="135.18" height="17.01" style="fill:#fff;opacity:0.2"></rect><rect x="266.97" y="160.62" width="135.18" height="17.01" style="fill:#fff;opacity:0.2"></rect><rect x="258.85" y="180.47" width="135.18" height="17.01" style="fill:#fff;opacity:0.2"></rect><polygon points="438.73 313.94 156.87 313.94 209.6 197.25 438.73 197.25 438.73 313.94" style="fill:#407BFF"></polygon><g style="opacity:0.1"><polygon points="438.73 313.94 156.87 313.94 209.6 197.25 438.73 197.25 438.73 313.94" style="fill:#fff"></polygon></g><rect x="227.43" y="199.69" width="160.14" height="17.01" style="fill:#fff;opacity:0.2"></rect><rect x="218.17" y="219.22" width="160.14" height="17.01" style="fill:#fff;opacity:0.2"></rect><rect x="208.92" y="238.75" width="160.14" height="17.01" style="fill:#fff;opacity:0.2"></rect><rect x="199.66" y="258.28" width="160.14" height="17.01" style="fill:#fff;opacity:0.2"></rect><rect x="190.41" y="277.81" width="160.14" height="17.01" style="fill:#fff;opacity:0.2"></rect><rect x="181.16" y="297.34" width="160.14" height="17.01" style="fill:#fff;opacity:0.2"></rect><polygon points="438.54 412.34 62.55 412.34 124.35 298.09 438.54 295.65 438.54 412.34" style="fill:#407BFF"></polygon><rect x="141.38" y="297.49" width="197.23" height="17.01" style="fill:#fff;opacity:0.2"></rect><rect x="129.98" y="317.02" width="197.23" height="17.01" style="fill:#fff;opacity:0.2"></rect><rect x="118.58" y="336.55" width="197.23" height="17.01" style="fill:#fff;opacity:0.2"></rect><rect x="107.19" y="356.08" width="197.23" height="17.01" style="fill:#fff;opacity:0.2"></rect><rect x="95.79" y="375.6" width="197.23" height="17.01" style="fill:#fff;opacity:0.2"></rect><rect x="84.39" y="395.13" width="197.23" height="17.01" style="fill:#fff;opacity:0.2"></rect></g><g id="freepik--plants-2--inject-228"><path d="M369.61,401.78c-.05.06.07.28-.07.46s-.31.24-.79.25h0a8.39,8.39,0,0,1-1.08-.08c-6.07-.8-16.67-3.06-19.72-9.25-4.35-8.82,8.71-5.8,8.18-10.34s-15.31-3.49-17-10.13c-1.33-5.24,4.65-4.49,7.29-5.52h0a1.69,1.69,0,0,0,1.14-1.08,1.36,1.36,0,0,0,0-.3c.07-3.26-11.45-1-13.88-8.19-1.64-4.85,1.88-4.05,4-4,1,0,1.64-.06,1.4-.91,0,0,0-.08,0-.12-1.06-3-11.08-16.34-5.79-18,4.66-1.47,12.35,9,16.51,12.82l0,0a10.87,10.87,0,0,0,1.06.86,2.7,2.7,0,0,0,.4.26c3.5,1.91,6.37-9.49,10.58-4.77,3.73,4.18-.75,17.92,1.89,23.17a4,4,0,0,0,.78,1.09,2.83,2.83,0,0,0,.61.47c4,2.35,2.74-4.29,7.93-3.14C380.14,367,378.22,391.8,369.61,401.78Z" style="fill:#407BFF"></path><g style="opacity:0.1"><path d="M369.61,401.78c-.05.06.07.28-.07.46s-.31.24-.79.25h0a8.39,8.39,0,0,1-1.08-.08c-6.07-.8-16.67-3.06-19.72-9.25-4.35-8.82,8.71-5.8,8.18-10.34s-15.31-3.49-17-10.13c-1.33-5.24,4.65-4.49,7.29-5.52h0a1.69,1.69,0,0,0,1.14-1.08,1.36,1.36,0,0,0,0-.3c.07-3.26-11.45-1-13.88-8.19-1.64-4.85,1.88-4.05,4-4,1,0,1.64-.06,1.4-.91,0,0,0-.08,0-.12-1.06-3-11.08-16.34-5.79-18,4.66-1.47,12.35,9,16.51,12.82l0,0a10.87,10.87,0,0,0,1.06.86,2.7,2.7,0,0,0,.4.26c3.5,1.91,6.37-9.49,10.58-4.77,3.73,4.18-.75,17.92,1.89,23.17a4,4,0,0,0,.78,1.09,2.83,2.83,0,0,0,.61.47c4,2.35,2.74-4.29,7.93-3.14C380.14,367,378.22,391.8,369.61,401.78Z" style="fill:#fff"></path></g><path d="M369.79,408h0a.4.4,0,0,0,.36-.44c-4.2-41.93-27.92-59.44-28.16-59.62a.39.39,0,0,0-.56.1.4.4,0,0,0,.09.56c.24.17,23.66,17.5,27.82,59A.42.42,0,0,0,369.79,408Z" style="fill:#407BFF"></path><path d="M339.12,352.73a21.81,21.81,0,0,1,7,0h0a10.21,10.21,0,0,1,1.41.34l0,0h0a.35.35,0,0,1,.2.21h0a.36.36,0,0,1,0,.27.41.41,0,0,1-.37.27l-.15,0-.15,0a20.48,20.48,0,0,0-9-.06.39.39,0,0,1-.33-.09Z" style="fill:#407BFF"></path><path d="M350.89,348.32a36.1,36.1,0,0,1,1.23,10.26v.06a.41.41,0,0,1-.39.4h0a.42.42,0,0,1-.4-.42c0-.36,0-.72,0-1.08a35.93,35.93,0,0,0-1.53-10.11Z" style="fill:#407BFF"></path><path d="M359.07,369.49a.41.41,0,0,1-.4.4.36.36,0,0,1-.29-.11l-.14-.13c-.85-.75-5.49-4.5-11.55-2.47a.36.36,0,0,1-.27,0,1.69,1.69,0,0,0,1.14-1.08A12.6,12.6,0,0,1,357.3,368a11,11,0,0,1,1.59,1.21l.05,0A.43.43,0,0,1,359.07,369.49Z" style="fill:#407BFF"></path><path d="M364.54,368.07a27.77,27.77,0,0,1-1.87,9l-.05.11a.4.4,0,0,1-.36.24l-.18,0a.42.42,0,0,1-.2-.54,8.75,8.75,0,0,0,.33-.86,30,30,0,0,0,1.55-9A4,4,0,0,0,364.54,368.07Z" style="fill:#407BFF"></path><path d="M375.64,363.86a44.35,44.35,0,0,0-2.24,15.2L389,397c6.27-5,13.84-12.88,17.37-23.2a41.13,41.13,0,0,0,2.07-10.24c1.32-15.68-5.46-29.65-5.46-29.65S382.24,344.58,375.64,363.86Z" style="fill:#407BFF"></path><g style="opacity:0.5;isolation:isolate"><path d="M375.64,363.86a44.35,44.35,0,0,0-2.24,15.2L389,397c6.27-5,13.84-12.88,17.37-23.2a41.13,41.13,0,0,0,2.07-10.24c1.32-15.68-5.46-29.65-5.46-29.65S382.24,344.58,375.64,363.86Z" style="fill:#fff;opacity:0.2"></path></g><path d="M391,393.21l12.49,14.43c7.51-.89,16.3-3.16,23.93-8.46,17.64-12.24,22.4-35.9,22.4-35.9s-17.1-2.76-33,3.82a45.49,45.49,0,0,0-8.43,4.56C399.9,377.5,394.41,386,391,393.21Z" style="fill:#407BFF"></path><path d="M391,393.21l12.49,14.43c7.51-.89,16.3-3.16,23.93-8.46,17.64-12.24,22.4-35.9,22.4-35.9s-17.1-2.76-33,3.82a45.49,45.49,0,0,0-8.43,4.56C399.9,377.5,394.41,386,391,393.21Z" style="opacity:0.30000000000000004;isolation:isolate"></path><path d="M391.39,394.48l-.68-.73c8-7.38,10.77-19.82,6.89-30.94-1.73-5-5-8.61-8.44-12.46-2.9-3.24-5.9-6.59-7.86-10.78-2.15-4.57-2.69-9-1.57-12.91a8.82,8.82,0,0,1,4.56-5.7,5.12,5.12,0,0,1,4.57.35,4.38,4.38,0,0,1,2.35,4.52,5,5,0,0,1-3.62,4.15,3.13,3.13,0,0,1-3.23-1.83,3.2,3.2,0,0,1,.56-3.5l.72.69a2.19,2.19,0,0,0-.37,2.38,2.17,2.17,0,0,0,2.09,1.29,4,4,0,0,0,2.85-3.32,3.33,3.33,0,0,0-1.84-3.5,4.07,4.07,0,0,0-3.7-.3,7.74,7.74,0,0,0-4,5.05c-1.33,4.6.09,9.17,1.51,12.2,1.91,4.06,4.86,7.35,7.71,10.54,3.36,3.75,6.83,7.64,8.63,12.8C402.61,374.15,399.8,386.72,391.39,394.48Z" style="fill:#407BFF"></path><path d="M397.35,362.21c-2.57-2.85-6.67-5.06-9.13-4.93l-.06-1c2.78-.14,7.14,2.17,9.93,5.25Z" style="fill:#407BFF"></path><path d="M399.18,364.9l-1,.3a8.26,8.26,0,0,1,.9-6.7l.85.54A7.19,7.19,0,0,0,399.18,364.9Z" style="fill:#407BFF"></path><path d="M384.51,344.87a62.94,62.94,0,0,0-8.19-5.77l.52-.85a66.2,66.2,0,0,1,8.32,5.86Z" style="fill:#407BFF"></path><rect x="384.57" y="343.63" width="3.38" height="1" transform="translate(-9.55 677.23) rotate(-81.78)" style="fill:#407BFF"></rect><path d="M393.82,328.75a9.17,9.17,0,0,1-4.44-.39l.33-.95a8.15,8.15,0,0,0,4,.35Z" style="fill:#407BFF"></path><rect x="386.37" y="319.45" width="3.84" height="1" transform="translate(48.85 691.32) rotate(-87.06)" style="fill:#407BFF"></rect><path d="M388.43,333.87a2,2,0,0,1,2.34-.28c.82.56.86,1.73.75,2.71-.28,2.45-1.46,9.47-5.17,7.68C382.84,342.3,386.42,335.52,388.43,333.87Z" style="fill:#407BFF"></path><path d="M378.55,337.48a2,2,0,0,1,.62,2.28c-.43.89-1.59,1.11-2.58,1.14-2.46.08-9.58-.07-8.35-4C369.4,333.18,376.62,335.73,378.55,337.48Z" style="fill:#407BFF"></path><path d="M390.2,353.06c-3.84-3.3-10.55-4.1-15.76-1.89-2.45,1-1.75,4.95-.43,6.8s3.83,2.95,6.46,3.33a11.56,11.56,0,0,0,8-1.52C390.64,358.27,392.06,354.66,390.2,353.06Z" style="fill:#407BFF"></path><path d="M407.8,348.06c-3,.4-6.1,1.05-8.42,3s-3.54,5.49-2,8.06a4.61,4.61,0,0,0,5.63,1.83c2.09-.81,3.55-2.7,4.71-4.62a8.39,8.39,0,0,0,1.47-4.13C409.24,350.69,409.27,347.87,407.8,348.06Z" style="fill:#407BFF"></path><path d="M388.39,320.26a6.39,6.39,0,0,1-1.58-3.22,3.37,3.37,0,0,1,1.25-3.21,2.32,2.32,0,0,1,3.2.54,4.35,4.35,0,0,1,.09,4A3.27,3.27,0,0,1,388.39,320.26Z" style="fill:#407BFF"></path><path d="M402.76,329.09A6.28,6.28,0,0,1,391.67,328a6.49,6.49,0,0,1,5.73-2.62A6.89,6.89,0,0,1,402.76,329.09Z" style="fill:#407BFF"></path><g style="opacity:0.30000000000000004"><path d="M391.39,394.48l-.68-.73c8-7.38,10.77-19.82,6.89-30.94-1.73-5-5-8.61-8.44-12.46-2.9-3.24-5.9-6.59-7.86-10.78-2.15-4.57-2.69-9-1.57-12.91a8.82,8.82,0,0,1,4.56-5.7,5.12,5.12,0,0,1,4.57.35,4.38,4.38,0,0,1,2.35,4.52,5,5,0,0,1-3.62,4.15,3.13,3.13,0,0,1-3.23-1.83,3.2,3.2,0,0,1,.56-3.5l.72.69a2.19,2.19,0,0,0-.37,2.38,2.17,2.17,0,0,0,2.09,1.29,4,4,0,0,0,2.85-3.32,3.33,3.33,0,0,0-1.84-3.5,4.07,4.07,0,0,0-3.7-.3,7.74,7.74,0,0,0-4,5.05c-1.33,4.6.09,9.17,1.51,12.2,1.91,4.06,4.86,7.35,7.71,10.54,3.36,3.75,6.83,7.64,8.63,12.8C402.61,374.15,399.8,386.72,391.39,394.48Z" style="fill:#fff"></path><path d="M397.35,362.21c-2.57-2.85-6.67-5.06-9.13-4.93l-.06-1c2.78-.14,7.14,2.17,9.93,5.25Z" style="fill:#fff"></path><path d="M399.18,364.9l-1,.3a8.26,8.26,0,0,1,.9-6.7l.85.54A7.19,7.19,0,0,0,399.18,364.9Z" style="fill:#fff"></path><path d="M384.51,344.87a62.94,62.94,0,0,0-8.19-5.77l.52-.85a66.2,66.2,0,0,1,8.32,5.86Z" style="fill:#fff"></path><rect x="384.57" y="343.63" width="3.38" height="1" transform="translate(-9.55 677.23) rotate(-81.78)" style="fill:#fff"></rect><path d="M393.82,328.75a9.17,9.17,0,0,1-4.44-.39l.33-.95a8.15,8.15,0,0,0,4,.35Z" style="fill:#fff"></path><rect x="386.37" y="319.45" width="3.84" height="1" transform="translate(48.85 691.32) rotate(-87.06)" style="fill:#fff"></rect><path d="M388.43,333.87a2,2,0,0,1,2.34-.28c.82.56.86,1.73.75,2.71-.28,2.45-1.46,9.47-5.17,7.68C382.84,342.3,386.42,335.52,388.43,333.87Z" style="fill:#fff"></path><path d="M378.55,337.48a2,2,0,0,1,.62,2.28c-.43.89-1.59,1.11-2.58,1.14-2.46.08-9.58-.07-8.35-4C369.4,333.18,376.62,335.73,378.55,337.48Z" style="fill:#fff"></path><path d="M390.2,353.06c-3.84-3.3-10.55-4.1-15.76-1.89-2.45,1-1.75,4.95-.43,6.8s3.83,2.95,6.46,3.33a11.56,11.56,0,0,0,8-1.52C390.64,358.27,392.06,354.66,390.2,353.06Z" style="fill:#fff"></path><path d="M407.8,348.06c-3,.4-6.1,1.05-8.42,3s-3.54,5.49-2,8.06a4.61,4.61,0,0,0,5.63,1.83c2.09-.81,3.55-2.7,4.71-4.62a8.39,8.39,0,0,0,1.47-4.13C409.24,350.69,409.27,347.87,407.8,348.06Z" style="fill:#fff"></path><path d="M388.39,320.26a6.39,6.39,0,0,1-1.58-3.22,3.37,3.37,0,0,1,1.25-3.21,2.32,2.32,0,0,1,3.2.54,4.35,4.35,0,0,1,.09,4A3.27,3.27,0,0,1,388.39,320.26Z" style="fill:#fff"></path><path d="M402.76,329.09A6.28,6.28,0,0,1,391.67,328a6.49,6.49,0,0,1,5.73-2.62A6.89,6.89,0,0,1,402.76,329.09Z" style="fill:#fff"></path></g><path d="M439.09,412.29H327.47l0-.1c.68-2.57.79-5.33,2-7.72s3.94-4.34,6.42-3.37c2.9-3.88,3-9.55,5.54-13.45a8.91,8.91,0,0,1,2.12-2.35c3.21-2.44,7.67-2.09,11.67-1.63A12.72,12.72,0,0,1,378.06,375c2-7.62,10.36-12.93,18.11-11.58s13.81,9.09,13.37,16.95c5.37-2.22,12.3-3.66,16.4.45,2.37,2.37,3,6,2.88,9.32s-1,6.63-1.12,10c3.59-.17,7.72-.14,10.1,2.55C440,405.1,439.75,410.3,439.09,412.29Z" style="fill:#407BFF"></path><g style="opacity:0.2"><path d="M439.09,412.29H327.47l0-.1c.68-2.57.79-5.33,2-7.72s3.94-4.34,6.42-3.37c2.9-3.88,3-9.55,5.54-13.45a8.91,8.91,0,0,1,2.12-2.35c3.21-2.44,7.67-2.09,11.67-1.63A12.72,12.72,0,0,1,378.06,375c2-7.62,10.36-12.93,18.11-11.58s13.81,9.09,13.37,16.95c5.37-2.22,12.3-3.66,16.4.45,2.37,2.37,3,6,2.88,9.32s-1,6.63-1.12,10c3.59-.17,7.72-.14,10.1,2.55C440,405.1,439.75,410.3,439.09,412.29Z"></path></g><path d="M387.53,404.67a5.44,5.44,0,0,1,4.1-1,3.78,3.78,0,0,1,3,2.79,2.93,2.93,0,0,1-2,3.38c-1.71.41-3.42-1-5.16-.75a15.57,15.57,0,0,0-1.8.54c-2.51.67-5-1-7.06-2.51a7.67,7.67,0,0,1-2-1.88,2.55,2.55,0,0,1-.21-2.59c.64-1.09,2.16-1.25,3.42-1.11a13.59,13.59,0,0,1,6.95,2.91c-.06-.4-.13-.8-.19-1.19Z" style="fill:#407BFF"></path><path d="M347.79,392.14a2.29,2.29,0,0,1,2.23.95,2.34,2.34,0,0,1-1,3,6.88,6.88,0,0,1-3.4.68c-1.2,0-2.69-.12-3.13-1.23a2,2,0,0,1,.85-2.28,6,6,0,0,1,2.46-.84S346.94,392.23,347.79,392.14Z" style="fill:#407BFF"></path><path d="M404.27,384a6.5,6.5,0,0,1,3.77,4.51c.14.6.12,1.36-.41,1.67a1.69,1.69,0,0,1-1.27,0l-5.4-1.29a7.8,7.8,0,0,1,2.43,1.3,2.6,2.6,0,0,1,.93,2.46,2.52,2.52,0,0,1-2.51,1.69,5.45,5.45,0,0,1-3-1.19,3.8,3.8,0,0,1-1.88-2.77c0-1.15,1.44-2.23,2.33-1.48a19.91,19.91,0,0,1-5.8-2.64,5.61,5.61,0,0,1-1.68-1.57,2.26,2.26,0,0,1-.17-2.2c1.85-3.36,4.18,1.56,5.32,2C399.11,385.32,401.54,382.82,404.27,384Z" style="fill:#407BFF"></path><path d="M401.11,401.26a2.19,2.19,0,0,0,.58,2.3,1.41,1.41,0,0,0,2.13-.43,7.41,7.41,0,0,0-4,2.25c-.93,1.25-.7,3.43.78,3.92a3.61,3.61,0,0,0,2.76-.62,50.12,50.12,0,0,0,6.88-4.53c-.66,1.52.93,3.25,2.59,3.4s3.2-.76,4.62-1.62c1.74-1.06,3.74-2.67,3.28-4.66-.4-1.73-2.61-2.49-4.31-2a9.84,9.84,0,0,0-4.17,3.2c.93-1.36-.39-3.38-2-3.6a4.92,4.92,0,0,0-4.16,1.92c1.85-1,2.27-3.67-.21-4C404.23,396.63,401.5,399.91,401.11,401.26Z" style="fill:#407BFF"></path><path d="M388.1,394.72a5.35,5.35,0,0,1,3,4.2c.46,2.38-.16,5.24-2.74,6.1a4.25,4.25,0,0,1-4.2-1c-2.65-2.51-1.7-6.58.74-8.75A3.5,3.5,0,0,1,388.1,394.72Z" style="fill:#407BFF"></path><path d="M361.72,402.07a3.08,3.08,0,0,1,2.71,1.26c.9,1.07,1.4,2.68.34,3.84a2.46,2.46,0,0,1-2.39.69c-2-.52-2.71-2.83-2.09-4.61A2,2,0,0,1,361.72,402.07Z" style="fill:#407BFF"></path><path d="M359.69,382a3.87,3.87,0,0,1,3.71-.55c1.68.5,3.3,1.85,3,3.79a3.06,3.06,0,0,1-2,2.36c-2.49.87-4.78-1.1-5.36-3.39A2.53,2.53,0,0,1,359.69,382Z" style="fill:#407BFF"></path><path d="M368.67,373a3.89,3.89,0,0,1,2.33,2.94c.4,1.71,0,3.79-1.79,4.49a3.06,3.06,0,0,1-3.06-.58c-2-1.73-1.44-4.7.26-6.34A2.52,2.52,0,0,1,368.67,373Z" style="fill:#407BFF"></path><path d="M345.33,399.34a3.88,3.88,0,0,1,1.54-3.42c1.32-1.14,3.34-1.79,4.81-.48a3.1,3.1,0,0,1,.89,3c-.62,2.56-3.51,3.43-5.75,2.69A2.54,2.54,0,0,1,345.33,399.34Z" style="fill:#407BFF"></path><path d="M371.49,389.51l-.62.53a3,3,0,1,1,0,3.74,4.51,4.51,0,0,1-5.25-1,3.44,3.44,0,0,1,.72-5c1.67-.95,4.2.47,4,2.38l.73-.81Z" style="fill:#407BFF"></path><path d="M352.51,390.31c.46,1.6-.21,3.67-1.82,4.11s-3.15-.85-4.1-2.21-1.77-2.88-1.07-4.2C348,383.39,352,388.71,352.51,390.31Z" style="fill:#407BFF"></path><path d="M418,392.91c-1.56.59-3.68.08-4.25-1.49s.61-3.21,1.89-4.26,2.73-2,4.1-1.39C424.52,387.84,419.54,392.31,418,392.91Z" style="fill:#407BFF"></path><path d="M396,375.67c-1,1.36-3,2.1-4.35,1.11s-1.28-3-.79-4.58,1.17-3.17,2.64-3.44C398.65,367.83,397,374.32,396,375.67Z" style="fill:#407BFF"></path><path d="M391.08,374.86a2.52,2.52,0,0,1-1.92,2.87c-1.27.12-2.27-1.06-2.8-2.22s-1-2.41-.25-3.31C388.57,369,390.94,373.59,391.08,374.86Z" style="fill:#407BFF"></path><path d="M402.63,380a2.51,2.51,0,0,1-3.22-1.23c-.41-1.2.52-2.45,1.52-3.23s2.14-1.47,3.18-1C407.75,376.18,403.84,379.52,402.63,380Z" style="fill:#407BFF"></path><path d="M381.49,384.36a2.72,2.72,0,0,1,3.78-1,3.29,3.29,0,0,1,1.17,3.92,4.18,4.18,0,0,1-3.43,2.47c-1.83.2-4-1.27-3.57-3.06A3.89,3.89,0,0,1,376,388a9.16,9.16,0,0,1-3.62-1.36c-1.54-.88-3.17-2.25-3-4a3.14,3.14,0,0,1,2.89-2.61,5.36,5.36,0,0,1,3.85,1.43,32.2,32.2,0,0,0,2.45,2.23,3.1,3.1,0,0,0,3.12.45Z" style="fill:#407BFF"></path></g><g id="freepik--Character--inject-228"><polygon points="127.11 404.52 129.37 388.68 137.25 391.42 132.69 405.96 127.11 404.52" style="fill:#cb7a63"></polygon><path d="M132.44,405.28,127.12,403a.54.54,0,0,0-.65.18l-3.25,4.52a.88.88,0,0,0,.19,1.25.65.65,0,0,0,.16.09c2.23.91,4.25,1.64,7,2.82,3.25,1.4,2.26,1.43,6.06,3.13,2.29,1,3.83-1.42,2.91-2-4.23-2.48-4.93-4.4-6-6.74A2.17,2.17,0,0,0,132.44,405.28Z" style="fill:#263238"></path><path d="M167,270.11s-6.64,55.47-16,81.14S136.87,393,136.87,393L129,390.72s2.8-32,8.66-49c.27-.77.54-1.5.82-2.2a33.47,33.47,0,0,0,2.38-13.15v-.14c-.19-8-.36-19.85.07-26.44a56.65,56.65,0,0,1,5.84-29Z" style="fill:#263238"></path><path d="M161.1,290.81l1.83,7.71c-1.13,7-2.48,14.63-4,22.16a26.17,26.17,0,0,0-4.1-11.8,31.3,31.3,0,0,1-4.92-23.21Z" style="opacity:0.1"></path><polygon points="138.37 391.09 136.94 394.44 128.13 392.04 128.47 388.39 138.37 391.09" style="fill:#263238"></polygon><polygon points="138.37 391.09 136.94 394.44 128.13 392.04 128.47 388.39 138.37 391.09" style="fill:#fff;opacity:0.6000000000000001"></polygon><polygon points="197.99 372.99 200.7 392.2 195.36 392.95 189.43 373.93 197.99 372.99" style="fill:#cb7a63"></polygon><path d="M200.4,390.31l-5.89,1a.57.57,0,0,0-.47.52l-.3,5.74a.92.92,0,0,0,.86,1,.67.67,0,0,0,.2,0c2.44-.45,4.6-.95,7.66-1.45,3.6-.6,2.76,0,7-.66,2.56-.39,2.54-3.37,1.44-3.34-5.06.2-6.75-1.07-8.95-2.53A2.18,2.18,0,0,0,200.4,390.31Z" style="fill:#263238"></path><path d="M175.16,271.66s19.1,37.33,21,49,3.36,59.45,3.36,59.45l-8.83,2.1A236.08,236.08,0,0,1,183.16,335c-.08-1.73-.51-3.38-.69-5-.75-6.61-23.67-26.61-23.67-26.61s-16.47-3.49-11.05-31.46Z" style="fill:#263238"></path><polygon points="200.02 378.17 200.2 381.93 191.2 383.65 189.6 380.16 200.02 378.17" style="fill:#263238"></polygon><polygon points="200.02 378.17 200.2 381.93 191.2 383.65 189.6 380.16 200.02 378.17" style="fill:#fff;opacity:0.6000000000000001"></polygon><path d="M146.9,239.41s6.09,13.43,8.25,16.6,24.51,11.11,24.51,11.11l3.93,3.13a2,2,0,0,0,2.87-.39l2-2.78a2,2,0,0,0,.3-1.74l-.22-.74a2,2,0,0,0-1.85-1.43l-5.33-.18s-18.78-8.06-20.61-11.21-6.14-14.27-6.14-14.27Z" style="fill:#cb7a63"></path><path d="M143.2,226.88s-3.88,2.19,4.74,18.89c0,0,2.56,1.2,10.1-3.25C158,242.52,155.29,229,143.2,226.88Z" style="fill:#407BFF"></path><path d="M143.2,226.88s-3.88,2.19,4.74,18.89c0,0,2.56,1.2,10.1-3.25C158,242.52,155.29,229,143.2,226.88Z" style="fill:#fff;opacity:0.4"></path><path d="M165.76,201.46a2,2,0,0,0,1.6-.69,1.48,1.48,0,0,1-1.52,1.07Z" style="fill:#263238"></path><path d="M167.49,202.17c.12.44,0,.85-.3.93s-.63-.23-.73-.65,0-.85.3-.92S167.37,201.74,167.49,202.17Z" style="fill:#263238"></path><path d="M166.1,203.8l2.87,3s-.12,1.11-1.82.86Z" style="fill:#d4827d"></path><path d="M164.65,201a.22.22,0,0,0,.2-.09,1.87,1.87,0,0,1,1.51-.77.24.24,0,0,0,.25-.21.25.25,0,0,0-.22-.26,2.32,2.32,0,0,0-1.91,1,.24.24,0,0,0,0,.33h0A.21.21,0,0,0,164.65,201Z" style="fill:#263238"></path><path d="M149.15,204.66c1,6.36,1.33,9.08,4.89,12,5.27,2.85,13,1.8,13.84-4.75.8-5.88-1-15.27-7.54-17.23a8.8,8.8,0,0,0-11.19,9.94Z" style="fill:#cb7a63"></path><path d="M152.36,213.05s2,8.24-1.07,11.37l11,.54s-3.87-2.67-2.26-10.3A11,11,0,0,0,152.36,213.05Z" style="fill:#cb7a63"></path><path d="M175.4,271.57s.16-11.68-.1-20.79c-.1-3.54,1.18-4.58,1-8.68-.11-3.11-2-6.29-2.39-8.19-1.06-5.29-.7-12.12-8.64-10.84l-19.44,1.48a4.24,4.24,0,0,0-3.77,5.34c2.29,8.34,6.5,25.85,3.88,42.6Z" style="fill:#407BFF"></path><path d="M175.4,271.57s.16-11.68-.1-20.79c-.1-3.54,1.18-4.58,1-8.68-.11-3.11-2-6.29-2.39-8.19-1.06-5.29-.7-12.12-8.64-10.84l-19.44,1.48a4.24,4.24,0,0,0-3.77,5.34c2.29,8.34,6.5,25.85,3.88,42.6Z" style="opacity:0.4"></path><path d="M156.3,193.25A9.31,9.31,0,0,1,168,199.69c.93-2.3-.44-5.24-2.27-6.93a8.45,8.45,0,0,0-6.93-1.93,4.13,4.13,0,0,0-2,.72A1.55,1.55,0,0,0,156.3,193.25Z" style="fill:#263238"></path><path d="M164,194.35c-3.2-3.66-9.31-4.76-11.76-1.55-2-1.29-8.67.57-9.95,3.58-3.3,7.76-.38,15.93,10.62,21,0,0,7.11.79,7.06-4.44-.09-10,3.28-1.9,5.51-12.33A7.74,7.74,0,0,0,164,194.35Z" style="fill:#263238"></path><path d="M163.05,205.65a6,6,0,0,1-.12,3.93,2.27,2.27,0,0,0,.84-2A2.22,2.22,0,0,0,163.05,205.65Z" style="fill:#263238"></path><path d="M162.69,205.35a6,6,0,0,1,2,3.35,2.27,2.27,0,0,0-.37-2.11C163.91,205.93,163.48,205.38,162.69,205.35Z" style="fill:#263238"></path><path d="M162.5,204.83a4.58,4.58,0,0,1,.71,3.45c-.32,1.59-1.93,1.66-3.05.61s-2.06-2.9-1.15-4.21A2.08,2.08,0,0,1,162.5,204.83Z" style="fill:#cb7a63"></path><path d="M166.69,240.3l-6.07,12.54c-.71,6-1.7,24.28-1.7,24.28l2.46,6.06a1.79,1.79,0,0,1-.57,2.1l-.63.48a1.82,1.82,0,0,1-1.37.34l-4-.65a1.78,1.78,0,0,1-1.46-2.14l1.46-6.93s-1.93-20.78-1.25-24.82,4.66-13.51,4.66-13.51Z" style="fill:#cb7a63"></path><path d="M172.6,227.59c-.33,3.37-1.55,9-5.35,17.29,0,0-7,.11-11.79-3.37,0,0,3.09-16.72,12.7-18.22A3.93,3.93,0,0,1,172.6,227.59Z" style="fill:#407BFF"></path><path d="M172.6,227.59c-.33,3.37-1.55,9-5.35,17.29,0,0-7,.11-11.79-3.37,0,0,3.09-16.72,12.7-18.22A3.93,3.93,0,0,1,172.6,227.59Z" style="opacity:0.30000000000000004"></path><path d="M159.6,218.18s-.23-2.2-.21-3.52c0,0,1.61,2.92,4,2.72l1.08-.26A9.83,9.83,0,0,1,159.6,218.18Z" style="opacity:0.1"></path><path d="M200.4,390.31l-5.89,1a.57.57,0,0,0-.47.52l-.3,5.74a.92.92,0,0,0,.86,1,.67.67,0,0,0,.2,0c2.44-.45,4.6-.95,7.66-1.45,3.6-.6,2.76,0,7-.66,2.56-.39,2.54-3.37,1.44-3.34-5.06.2-6.75-1.07-8.95-2.53A2.18,2.18,0,0,0,200.4,390.31Z" style="fill:#263238"></path></g></svg>